%TF.GenerationSoftware,KiCad,Pcbnew,(6.0.5)*%
%TF.CreationDate,2022-12-19T19:55:07-05:00*%
%TF.ProjectId,GrandPapa_Board,4772616e-6450-4617-9061-5f426f617264,rev?*%
%TF.SameCoordinates,Original*%
%TF.FileFunction,Soldermask,Top*%
%TF.FilePolarity,Negative*%
%FSLAX46Y46*%
G04 Gerber Fmt 4.6, Leading zero omitted, Abs format (unit mm)*
G04 Created by KiCad (PCBNEW (6.0.5)) date 2022-12-19 19:55:07*
%MOMM*%
%LPD*%
G01*
G04 APERTURE LIST*
G04 Aperture macros list*
%AMRoundRect*
0 Rectangle with rounded corners*
0 $1 Rounding radius*
0 $2 $3 $4 $5 $6 $7 $8 $9 X,Y pos of 4 corners*
0 Add a 4 corners polygon primitive as box body*
4,1,4,$2,$3,$4,$5,$6,$7,$8,$9,$2,$3,0*
0 Add four circle primitives for the rounded corners*
1,1,$1+$1,$2,$3*
1,1,$1+$1,$4,$5*
1,1,$1+$1,$6,$7*
1,1,$1+$1,$8,$9*
0 Add four rect primitives between the rounded corners*
20,1,$1+$1,$2,$3,$4,$5,0*
20,1,$1+$1,$4,$5,$6,$7,0*
20,1,$1+$1,$6,$7,$8,$9,0*
20,1,$1+$1,$8,$9,$2,$3,0*%
G04 Aperture macros list end*
%ADD10RoundRect,0.250000X-0.350000X-0.450000X0.350000X-0.450000X0.350000X0.450000X-0.350000X0.450000X0*%
%ADD11RoundRect,0.250000X-0.475000X0.337500X-0.475000X-0.337500X0.475000X-0.337500X0.475000X0.337500X0*%
%ADD12C,2.200000*%
%ADD13R,1.200000X1.200000*%
%ADD14C,1.200000*%
%ADD15R,1.700000X1.700000*%
%ADD16O,1.700000X1.700000*%
%ADD17RoundRect,0.150000X-0.825000X-0.150000X0.825000X-0.150000X0.825000X0.150000X-0.825000X0.150000X0*%
%ADD18C,6.400000*%
%ADD19C,0.800000*%
%ADD20C,7.000000*%
%ADD21RoundRect,0.250001X-0.624999X0.462499X-0.624999X-0.462499X0.624999X-0.462499X0.624999X0.462499X0*%
%ADD22RoundRect,0.250000X0.450000X-0.350000X0.450000X0.350000X-0.450000X0.350000X-0.450000X-0.350000X0*%
%ADD23R,1.750000X0.450000*%
%ADD24RoundRect,0.250001X0.462499X0.624999X-0.462499X0.624999X-0.462499X-0.624999X0.462499X-0.624999X0*%
%ADD25RoundRect,0.250000X0.475000X-0.337500X0.475000X0.337500X-0.475000X0.337500X-0.475000X-0.337500X0*%
%ADD26C,1.500000*%
%ADD27RoundRect,0.250000X-0.450000X0.350000X-0.450000X-0.350000X0.450000X-0.350000X0.450000X0.350000X0*%
%ADD28RoundRect,0.250000X0.350000X0.450000X-0.350000X0.450000X-0.350000X-0.450000X0.350000X-0.450000X0*%
%ADD29RoundRect,0.250000X0.350000X0.625000X-0.350000X0.625000X-0.350000X-0.625000X0.350000X-0.625000X0*%
%ADD30O,1.200000X1.750000*%
G04 APERTURE END LIST*
D10*
%TO.C,R29*%
X188865000Y-132765800D03*
X190865000Y-132765800D03*
%TD*%
D11*
%TO.C,C18*%
X153489000Y-67334300D03*
X153489000Y-69409300D03*
%TD*%
D12*
%TO.C,J4*%
X139771000Y-136083800D03*
X128771000Y-136083800D03*
D13*
X136271000Y-135083800D03*
D14*
X134271000Y-135083800D03*
X132271000Y-135083800D03*
X136271000Y-137083800D03*
X134271000Y-137083800D03*
X132271000Y-137083800D03*
%TD*%
D15*
%TO.C,J11*%
X124149000Y-64246800D03*
D16*
X126689000Y-64246800D03*
X129229000Y-64246800D03*
X131769000Y-64246800D03*
%TD*%
D17*
%TO.C,U7*%
X177491500Y-83767800D03*
X177491500Y-85037800D03*
X177491500Y-86307800D03*
X177491500Y-87577800D03*
X182441500Y-87577800D03*
X182441500Y-86307800D03*
X182441500Y-85037800D03*
X182441500Y-83767800D03*
%TD*%
D11*
%TO.C,C19*%
X169489000Y-75334300D03*
X169489000Y-77409300D03*
%TD*%
D18*
%TO.C,H2*%
X117284000Y-88036400D03*
%TD*%
D19*
%TO.C,H8*%
X119140155Y-66099498D03*
X117284000Y-66868343D03*
D20*
X117284000Y-64243343D03*
D19*
X115427845Y-62387188D03*
X114659000Y-64243343D03*
X119909000Y-64243343D03*
X117284000Y-61618343D03*
X119140155Y-62387188D03*
X115427845Y-66099498D03*
%TD*%
D21*
%TO.C,D8*%
X146939000Y-135906600D03*
X146939000Y-138881600D03*
%TD*%
D22*
%TO.C,R6*%
X150489000Y-131756600D03*
X150489000Y-129756600D03*
%TD*%
D19*
%TO.C,H6*%
X193923933Y-64243343D03*
X189442778Y-66099498D03*
X188673933Y-64243343D03*
D20*
X191298933Y-64243343D03*
D19*
X193155088Y-62387188D03*
X193155088Y-66099498D03*
X191298933Y-66868343D03*
X191298933Y-61618343D03*
X189442778Y-62387188D03*
%TD*%
D10*
%TO.C,R13*%
X186341000Y-78121800D03*
X188341000Y-78121800D03*
%TD*%
D23*
%TO.C,U9*%
X159406000Y-71136800D03*
X159406000Y-71786800D03*
X159406000Y-72436800D03*
X159406000Y-73086800D03*
X159406000Y-73736800D03*
X159406000Y-74386800D03*
X159406000Y-75036800D03*
X159406000Y-75686800D03*
X159406000Y-76336800D03*
X159406000Y-76986800D03*
X159406000Y-77636800D03*
X159406000Y-78286800D03*
X159406000Y-78936800D03*
X159406000Y-79586800D03*
X166606000Y-79586800D03*
X166606000Y-78936800D03*
X166606000Y-78286800D03*
X166606000Y-77636800D03*
X166606000Y-76986800D03*
X166606000Y-76336800D03*
X166606000Y-75686800D03*
X166606000Y-75036800D03*
X166606000Y-74386800D03*
X166606000Y-73736800D03*
X166606000Y-73086800D03*
X166606000Y-72436800D03*
X166606000Y-71786800D03*
X166606000Y-71136800D03*
%TD*%
D24*
%TO.C,D3*%
X193764000Y-78121800D03*
X190789000Y-78121800D03*
%TD*%
%TO.C,D5*%
X193839000Y-70896800D03*
X190864000Y-70896800D03*
%TD*%
D21*
%TO.C,D7*%
X153889800Y-135854200D03*
X153889800Y-138829200D03*
%TD*%
D25*
%TO.C,C23*%
X174039000Y-73346800D03*
X174039000Y-71271800D03*
%TD*%
D10*
%TO.C,R11*%
X154489000Y-64371800D03*
X156489000Y-64371800D03*
%TD*%
D19*
%TO.C,H7*%
X189442778Y-136383845D03*
X191298933Y-135615000D03*
X191298933Y-140865000D03*
X188673933Y-138240000D03*
X193155088Y-136383845D03*
D20*
X191298933Y-138240000D03*
D19*
X189442778Y-140096155D03*
X193923933Y-138240000D03*
X193155088Y-140096155D03*
%TD*%
D10*
%TO.C,R15*%
X186309000Y-70916800D03*
X188309000Y-70916800D03*
%TD*%
D24*
%TO.C,D1*%
X184177600Y-63371800D03*
X181202600Y-63371800D03*
%TD*%
D10*
%TO.C,R14*%
X186309000Y-74452800D03*
X188309000Y-74452800D03*
%TD*%
D22*
%TO.C,R21*%
X146914000Y-131756600D03*
X146914000Y-129756600D03*
%TD*%
D15*
%TO.C,J6*%
X172526000Y-63296800D03*
D16*
X169986000Y-63296800D03*
X167446000Y-63296800D03*
X164906000Y-63296800D03*
X162366000Y-63296800D03*
%TD*%
D18*
%TO.C,H5*%
X158750000Y-126161800D03*
%TD*%
D15*
%TO.C,J8*%
X185786000Y-132765800D03*
D16*
X183246000Y-132765800D03*
X180706000Y-132765800D03*
%TD*%
D26*
%TO.C,Y1*%
X150749000Y-74181800D03*
X150749000Y-79061800D03*
%TD*%
D25*
%TO.C,C22*%
X184989000Y-86771800D03*
X184989000Y-84696800D03*
%TD*%
D12*
%TO.C,J5*%
X117165559Y-94491413D03*
X117165559Y-105491413D03*
D13*
X116165559Y-97991413D03*
D14*
X116165559Y-99991413D03*
X116165559Y-101991413D03*
X118165559Y-97991413D03*
X118165559Y-99991413D03*
X118165559Y-101991413D03*
%TD*%
D19*
%TO.C,H3*%
X119922332Y-138240000D03*
X115441177Y-140096155D03*
X114672332Y-138240000D03*
X119153487Y-136383845D03*
X117297332Y-135615000D03*
X117297332Y-140865000D03*
X115441177Y-136383845D03*
X119153487Y-140096155D03*
D20*
X117297332Y-138240000D03*
%TD*%
D25*
%TO.C,C16*%
X145929073Y-75219300D03*
X145929073Y-73144300D03*
%TD*%
D12*
%TO.C,J3*%
X190262000Y-107739800D03*
X190262000Y-118739800D03*
D13*
X191262000Y-115239800D03*
D14*
X191262000Y-113239800D03*
X191262000Y-111239800D03*
X189262000Y-115239800D03*
X189262000Y-113239800D03*
X189262000Y-111239800D03*
%TD*%
D17*
%TO.C,U8*%
X176976000Y-70916800D03*
X176976000Y-72186800D03*
X176976000Y-73456800D03*
X176976000Y-74726800D03*
X181926000Y-74726800D03*
X181926000Y-73456800D03*
X181926000Y-72186800D03*
X181926000Y-70916800D03*
%TD*%
D18*
%TO.C,H4*%
X190500000Y-88061800D03*
%TD*%
D24*
%TO.C,D4*%
X193856000Y-74452800D03*
X190881000Y-74452800D03*
%TD*%
D27*
%TO.C,R12*%
X156489000Y-67871800D03*
X156489000Y-69871800D03*
%TD*%
D28*
%TO.C,R3*%
X178489000Y-63371800D03*
X176489000Y-63371800D03*
%TD*%
D18*
%TO.C,H1*%
X138874000Y-123596400D03*
%TD*%
D21*
%TO.C,D6*%
X150489000Y-135896800D03*
X150489000Y-138871800D03*
%TD*%
D12*
%TO.C,J7*%
X175553000Y-136067800D03*
X164553000Y-136067800D03*
D13*
X172053000Y-135067800D03*
D14*
X170053000Y-135067800D03*
X168053000Y-135067800D03*
X172053000Y-137067800D03*
X170053000Y-137067800D03*
X168053000Y-137067800D03*
%TD*%
D11*
%TO.C,C17*%
X145895995Y-78022529D03*
X145895995Y-80097529D03*
%TD*%
D27*
%TO.C,R20*%
X153839000Y-129656600D03*
X153839000Y-131656600D03*
%TD*%
D15*
%TO.C,TP1*%
X127000000Y-109971800D03*
%TD*%
%TO.C,TP2*%
X147389000Y-100021800D03*
%TD*%
%TO.C,TP7*%
X181296762Y-66471800D03*
%TD*%
D29*
%TO.C,J1*%
X168289000Y-122746800D03*
D30*
X166289000Y-122746800D03*
%TD*%
D15*
%TO.C,TP3*%
X167767000Y-105587800D03*
%TD*%
%TO.C,TP4*%
X140489000Y-70871800D03*
%TD*%
D12*
%TO.C,J2*%
X149137000Y-66471800D03*
X138137000Y-66471800D03*
D13*
X145637000Y-67471800D03*
D14*
X143637000Y-67471800D03*
X141637000Y-67471800D03*
X145637000Y-65471800D03*
X143637000Y-65471800D03*
X141637000Y-65471800D03*
%TD*%
M02*
