%TF.GenerationSoftware,KiCad,Pcbnew,(6.0.5)*%
%TF.CreationDate,2022-12-19T19:55:07-05:00*%
%TF.ProjectId,GrandPapa_Board,4772616e-6450-4617-9061-5f426f617264,rev?*%
%TF.SameCoordinates,Original*%
%TF.FileFunction,Legend,Top*%
%TF.FilePolarity,Positive*%
%FSLAX46Y46*%
G04 Gerber Fmt 4.6, Leading zero omitted, Abs format (unit mm)*
G04 Created by KiCad (PCBNEW (6.0.5)) date 2022-12-19 19:55:07*
%MOMM*%
%LPD*%
G01*
G04 APERTURE LIST*
%ADD10C,0.150000*%
%ADD11C,0.120000*%
%ADD12C,0.010000*%
G04 APERTURE END LIST*
D10*
X154940000Y-84353400D02*
X175895000Y-84353400D01*
X186055000Y-84378800D02*
X195199000Y-84378800D01*
X142989000Y-127371800D02*
X142989000Y-83138456D01*
X113411000Y-127371800D02*
X142989000Y-127371800D01*
X154940000Y-130073400D02*
X154940000Y-84353400D01*
X195199000Y-130073400D02*
X154940000Y-130073400D01*
X142989000Y-83138456D02*
X113489000Y-83138456D01*
G36*
X172650693Y-61622895D02*
G01*
X172150693Y-61122895D01*
X173150693Y-61122895D01*
X172650693Y-61622895D01*
G37*
X172650693Y-61622895D02*
X172150693Y-61122895D01*
X173150693Y-61122895D01*
X172650693Y-61622895D01*
X119894428Y-100264885D02*
X119865857Y-100293457D01*
X119780142Y-100322028D01*
X119723000Y-100322028D01*
X119637285Y-100293457D01*
X119580142Y-100236314D01*
X119551571Y-100179171D01*
X119523000Y-100064885D01*
X119523000Y-99979171D01*
X119551571Y-99864885D01*
X119580142Y-99807742D01*
X119637285Y-99750600D01*
X119723000Y-99722028D01*
X119780142Y-99722028D01*
X119865857Y-99750600D01*
X119894428Y-99779171D01*
X120123000Y-100150600D02*
X120408714Y-100150600D01*
X120065857Y-100322028D02*
X120265857Y-99722028D01*
X120465857Y-100322028D01*
X120665857Y-100322028D02*
X120665857Y-99722028D01*
X121008714Y-100322028D01*
X121008714Y-99722028D01*
X121580142Y-100322028D02*
X121294428Y-100322028D01*
X121294428Y-99722028D01*
X166903457Y-65282800D02*
X166846314Y-65254228D01*
X166760600Y-65254228D01*
X166674885Y-65282800D01*
X166617742Y-65339942D01*
X166589171Y-65397085D01*
X166560600Y-65511371D01*
X166560600Y-65597085D01*
X166589171Y-65711371D01*
X166617742Y-65768514D01*
X166674885Y-65825657D01*
X166760600Y-65854228D01*
X166817742Y-65854228D01*
X166903457Y-65825657D01*
X166932028Y-65797085D01*
X166932028Y-65597085D01*
X166817742Y-65597085D01*
X167189171Y-65854228D02*
X167189171Y-65254228D01*
X167532028Y-65854228D01*
X167532028Y-65254228D01*
X167817742Y-65854228D02*
X167817742Y-65254228D01*
X167960600Y-65254228D01*
X168046314Y-65282800D01*
X168103457Y-65339942D01*
X168132028Y-65397085D01*
X168160600Y-65511371D01*
X168160600Y-65597085D01*
X168132028Y-65711371D01*
X168103457Y-65768514D01*
X168046314Y-65825657D01*
X167960600Y-65854228D01*
X167817742Y-65854228D01*
X167941952Y-132456180D02*
X167941952Y-131456180D01*
X168513380Y-132456180D02*
X168084809Y-131884752D01*
X168513380Y-131456180D02*
X167941952Y-132027609D01*
X168894333Y-132170466D02*
X169370523Y-132170466D01*
X168799095Y-132456180D02*
X169132428Y-131456180D01*
X169465761Y-132456180D01*
X170275285Y-132456180D02*
X169799095Y-132456180D01*
X169799095Y-131456180D01*
X170608619Y-132456180D02*
X170608619Y-131456180D01*
X170941952Y-132170466D01*
X171275285Y-131456180D01*
X171275285Y-132456180D01*
X171703857Y-132170466D02*
X172180047Y-132170466D01*
X171608619Y-132456180D02*
X171941952Y-131456180D01*
X172275285Y-132456180D01*
X172608619Y-132456180D02*
X172608619Y-131456180D01*
X173180047Y-132456180D01*
X173180047Y-131456180D01*
X119772200Y-98283685D02*
X119743628Y-98312257D01*
X119657914Y-98340828D01*
X119600771Y-98340828D01*
X119515057Y-98312257D01*
X119457914Y-98255114D01*
X119429342Y-98197971D01*
X119400771Y-98083685D01*
X119400771Y-97997971D01*
X119429342Y-97883685D01*
X119457914Y-97826542D01*
X119515057Y-97769400D01*
X119600771Y-97740828D01*
X119657914Y-97740828D01*
X119743628Y-97769400D01*
X119772200Y-97797971D01*
X120000771Y-98169400D02*
X120286485Y-98169400D01*
X119943628Y-98340828D02*
X120143628Y-97740828D01*
X120343628Y-98340828D01*
X120543628Y-98340828D02*
X120543628Y-97740828D01*
X120886485Y-98340828D01*
X120886485Y-97740828D01*
X121172200Y-98340828D02*
X121172200Y-97740828D01*
X121172200Y-98026542D02*
X121515057Y-98026542D01*
X121515057Y-98340828D02*
X121515057Y-97740828D01*
X135825000Y-139076085D02*
X135796428Y-139104657D01*
X135710714Y-139133228D01*
X135653571Y-139133228D01*
X135567857Y-139104657D01*
X135510714Y-139047514D01*
X135482142Y-138990371D01*
X135453571Y-138876085D01*
X135453571Y-138790371D01*
X135482142Y-138676085D01*
X135510714Y-138618942D01*
X135567857Y-138561800D01*
X135653571Y-138533228D01*
X135710714Y-138533228D01*
X135796428Y-138561800D01*
X135825000Y-138590371D01*
X136053571Y-138961800D02*
X136339285Y-138961800D01*
X135996428Y-139133228D02*
X136196428Y-138533228D01*
X136396428Y-139133228D01*
X136596428Y-139133228D02*
X136596428Y-138533228D01*
X136939285Y-139133228D01*
X136939285Y-138533228D01*
X137225000Y-139133228D02*
X137225000Y-138533228D01*
X137225000Y-138818942D02*
X137567857Y-138818942D01*
X137567857Y-139133228D02*
X137567857Y-138533228D01*
X114822333Y-110824180D02*
X114346142Y-110824180D01*
X114346142Y-109824180D01*
X115346142Y-109824180D02*
X115536619Y-109824180D01*
X115631857Y-109871800D01*
X115727095Y-109967038D01*
X115774714Y-110157514D01*
X115774714Y-110490847D01*
X115727095Y-110681323D01*
X115631857Y-110776561D01*
X115536619Y-110824180D01*
X115346142Y-110824180D01*
X115250904Y-110776561D01*
X115155666Y-110681323D01*
X115108047Y-110490847D01*
X115108047Y-110157514D01*
X115155666Y-109967038D01*
X115250904Y-109871800D01*
X115346142Y-109824180D01*
X116727095Y-109871800D02*
X116631857Y-109824180D01*
X116489000Y-109824180D01*
X116346142Y-109871800D01*
X116250904Y-109967038D01*
X116203285Y-110062276D01*
X116155666Y-110252752D01*
X116155666Y-110395609D01*
X116203285Y-110586085D01*
X116250904Y-110681323D01*
X116346142Y-110776561D01*
X116489000Y-110824180D01*
X116584238Y-110824180D01*
X116727095Y-110776561D01*
X116774714Y-110728942D01*
X116774714Y-110395609D01*
X116584238Y-110395609D01*
X117727095Y-109871800D02*
X117631857Y-109824180D01*
X117489000Y-109824180D01*
X117346142Y-109871800D01*
X117250904Y-109967038D01*
X117203285Y-110062276D01*
X117155666Y-110252752D01*
X117155666Y-110395609D01*
X117203285Y-110586085D01*
X117250904Y-110681323D01*
X117346142Y-110776561D01*
X117489000Y-110824180D01*
X117584238Y-110824180D01*
X117727095Y-110776561D01*
X117774714Y-110728942D01*
X117774714Y-110395609D01*
X117584238Y-110395609D01*
X118203285Y-110300371D02*
X118536619Y-110300371D01*
X118679476Y-110824180D02*
X118203285Y-110824180D01*
X118203285Y-109824180D01*
X118679476Y-109824180D01*
X119679476Y-110824180D02*
X119346142Y-110347990D01*
X119108047Y-110824180D02*
X119108047Y-109824180D01*
X119489000Y-109824180D01*
X119584238Y-109871800D01*
X119631857Y-109919419D01*
X119679476Y-110014657D01*
X119679476Y-110157514D01*
X119631857Y-110252752D01*
X119584238Y-110300371D01*
X119489000Y-110347990D01*
X119108047Y-110347990D01*
X130207285Y-132710180D02*
X130207285Y-131710180D01*
X130540619Y-132424466D01*
X130873952Y-131710180D01*
X130873952Y-132710180D01*
X131350142Y-132710180D02*
X131350142Y-131710180D01*
X131826333Y-132710180D02*
X131826333Y-131710180D01*
X132397761Y-132710180D01*
X132397761Y-131710180D01*
X132873952Y-132710180D02*
X132873952Y-131710180D01*
X133302523Y-132662561D02*
X133445380Y-132710180D01*
X133683476Y-132710180D01*
X133778714Y-132662561D01*
X133826333Y-132614942D01*
X133873952Y-132519704D01*
X133873952Y-132424466D01*
X133826333Y-132329228D01*
X133778714Y-132281609D01*
X133683476Y-132233990D01*
X133493000Y-132186371D01*
X133397761Y-132138752D01*
X133350142Y-132091133D01*
X133302523Y-131995895D01*
X133302523Y-131900657D01*
X133350142Y-131805419D01*
X133397761Y-131757800D01*
X133493000Y-131710180D01*
X133731095Y-131710180D01*
X133873952Y-131757800D01*
X134302523Y-132186371D02*
X134635857Y-132186371D01*
X134778714Y-132710180D02*
X134302523Y-132710180D01*
X134302523Y-131710180D01*
X134778714Y-131710180D01*
X135207285Y-132710180D02*
X135207285Y-131710180D01*
X135778714Y-132710180D01*
X135778714Y-131710180D01*
X136207285Y-132662561D02*
X136350142Y-132710180D01*
X136588238Y-132710180D01*
X136683476Y-132662561D01*
X136731095Y-132614942D01*
X136778714Y-132519704D01*
X136778714Y-132424466D01*
X136731095Y-132329228D01*
X136683476Y-132281609D01*
X136588238Y-132233990D01*
X136397761Y-132186371D01*
X136302523Y-132138752D01*
X136254904Y-132091133D01*
X136207285Y-131995895D01*
X136207285Y-131900657D01*
X136254904Y-131805419D01*
X136302523Y-131757800D01*
X136397761Y-131710180D01*
X136635857Y-131710180D01*
X136778714Y-131757800D01*
X137397761Y-131710180D02*
X137588238Y-131710180D01*
X137683476Y-131757800D01*
X137778714Y-131853038D01*
X137826333Y-132043514D01*
X137826333Y-132376847D01*
X137778714Y-132567323D01*
X137683476Y-132662561D01*
X137588238Y-132710180D01*
X137397761Y-132710180D01*
X137302523Y-132662561D01*
X137207285Y-132567323D01*
X137159666Y-132376847D01*
X137159666Y-132043514D01*
X137207285Y-131853038D01*
X137302523Y-131757800D01*
X137397761Y-131710180D01*
X138826333Y-132710180D02*
X138493000Y-132233990D01*
X138254904Y-132710180D02*
X138254904Y-131710180D01*
X138635857Y-131710180D01*
X138731095Y-131757800D01*
X138778714Y-131805419D01*
X138826333Y-131900657D01*
X138826333Y-132043514D01*
X138778714Y-132138752D01*
X138731095Y-132186371D01*
X138635857Y-132233990D01*
X138254904Y-132233990D01*
X153499139Y-140886509D02*
X153213425Y-140886509D01*
X153213425Y-140286509D01*
X153813425Y-140286509D02*
X153927710Y-140286509D01*
X153984853Y-140315081D01*
X154041996Y-140372223D01*
X154070568Y-140486509D01*
X154070568Y-140686509D01*
X154041996Y-140800795D01*
X153984853Y-140857938D01*
X153927710Y-140886509D01*
X153813425Y-140886509D01*
X153756282Y-140857938D01*
X153699139Y-140800795D01*
X153670568Y-140686509D01*
X153670568Y-140486509D01*
X153699139Y-140372223D01*
X153756282Y-140315081D01*
X153813425Y-140286509D01*
X154270568Y-140286509D02*
X154413425Y-140886509D01*
X154527710Y-140457938D01*
X154641996Y-140886509D01*
X154784853Y-140286509D01*
X120655666Y-78166750D02*
X120655666Y-78881036D01*
X120608047Y-79023893D01*
X120512809Y-79119131D01*
X120369952Y-79166750D01*
X120274714Y-79166750D01*
X121131857Y-79071512D02*
X121179476Y-79119131D01*
X121131857Y-79166750D01*
X121084238Y-79119131D01*
X121131857Y-79071512D01*
X121131857Y-79166750D01*
X122369952Y-79166750D02*
X122369952Y-78166750D01*
X122608047Y-78166750D01*
X122750904Y-78214370D01*
X122846142Y-78309608D01*
X122893761Y-78404846D01*
X122941380Y-78595322D01*
X122941380Y-78738179D01*
X122893761Y-78928655D01*
X122846142Y-79023893D01*
X122750904Y-79119131D01*
X122608047Y-79166750D01*
X122369952Y-79166750D01*
X123512809Y-79166750D02*
X123417571Y-79119131D01*
X123369952Y-79071512D01*
X123322333Y-78976274D01*
X123322333Y-78690560D01*
X123369952Y-78595322D01*
X123417571Y-78547703D01*
X123512809Y-78500084D01*
X123655666Y-78500084D01*
X123750904Y-78547703D01*
X123798523Y-78595322D01*
X123846142Y-78690560D01*
X123846142Y-78976274D01*
X123798523Y-79071512D01*
X123750904Y-79119131D01*
X123655666Y-79166750D01*
X123512809Y-79166750D01*
X124417571Y-79166750D02*
X124322333Y-79119131D01*
X124274714Y-79023893D01*
X124274714Y-78166750D01*
X124798523Y-79166750D02*
X124798523Y-78500084D01*
X124798523Y-78166750D02*
X124750904Y-78214370D01*
X124798523Y-78261989D01*
X124846142Y-78214370D01*
X124798523Y-78166750D01*
X124798523Y-78261989D01*
X125274714Y-78500084D02*
X125274714Y-79166750D01*
X125274714Y-78595322D02*
X125322333Y-78547703D01*
X125417571Y-78500084D01*
X125560428Y-78500084D01*
X125655666Y-78547703D01*
X125703285Y-78642941D01*
X125703285Y-79166750D01*
X126608047Y-79166750D02*
X126608047Y-78642941D01*
X126560428Y-78547703D01*
X126465190Y-78500084D01*
X126274714Y-78500084D01*
X126179476Y-78547703D01*
X126608047Y-79119131D02*
X126512809Y-79166750D01*
X126274714Y-79166750D01*
X126179476Y-79119131D01*
X126131857Y-79023893D01*
X126131857Y-78928655D01*
X126179476Y-78833417D01*
X126274714Y-78785798D01*
X126512809Y-78785798D01*
X126608047Y-78738179D01*
X163947571Y-65625657D02*
X164404714Y-65625657D01*
X164176142Y-65854228D02*
X164176142Y-65397085D01*
X164976142Y-65254228D02*
X164690428Y-65254228D01*
X164661857Y-65539942D01*
X164690428Y-65511371D01*
X164747571Y-65482800D01*
X164890428Y-65482800D01*
X164947571Y-65511371D01*
X164976142Y-65539942D01*
X165004714Y-65597085D01*
X165004714Y-65739942D01*
X164976142Y-65797085D01*
X164947571Y-65825657D01*
X164890428Y-65854228D01*
X164747571Y-65854228D01*
X164690428Y-65825657D01*
X164661857Y-65797085D01*
X165176142Y-65254228D02*
X165376142Y-65854228D01*
X165576142Y-65254228D01*
X169283142Y-65854228D02*
X169283142Y-65254228D01*
X169426000Y-65254228D01*
X169511714Y-65282800D01*
X169568857Y-65339942D01*
X169597428Y-65397085D01*
X169626000Y-65511371D01*
X169626000Y-65597085D01*
X169597428Y-65711371D01*
X169568857Y-65768514D01*
X169511714Y-65825657D01*
X169426000Y-65854228D01*
X169283142Y-65854228D01*
X169854571Y-65682800D02*
X170140285Y-65682800D01*
X169797428Y-65854228D02*
X169997428Y-65254228D01*
X170197428Y-65854228D01*
X170311714Y-65254228D02*
X170654571Y-65254228D01*
X170483142Y-65854228D02*
X170483142Y-65254228D01*
X149576955Y-140829366D02*
X149548384Y-140857938D01*
X149462669Y-140886509D01*
X149405527Y-140886509D01*
X149319812Y-140857938D01*
X149262669Y-140800795D01*
X149234098Y-140743652D01*
X149205527Y-140629366D01*
X149205527Y-140543652D01*
X149234098Y-140429366D01*
X149262669Y-140372223D01*
X149319812Y-140315081D01*
X149405527Y-140286509D01*
X149462669Y-140286509D01*
X149548384Y-140315081D01*
X149576955Y-140343652D01*
X149834098Y-140886509D02*
X149834098Y-140286509D01*
X150034098Y-140715081D01*
X150234098Y-140286509D01*
X150234098Y-140886509D01*
X150519812Y-140886509D02*
X150519812Y-140286509D01*
X150748384Y-140286509D01*
X150805527Y-140315081D01*
X150834098Y-140343652D01*
X150862669Y-140400795D01*
X150862669Y-140486509D01*
X150834098Y-140543652D01*
X150805527Y-140572223D01*
X150748384Y-140600795D01*
X150519812Y-140600795D01*
X151405527Y-140886509D02*
X151119812Y-140886509D01*
X151119812Y-140286509D01*
X151519812Y-140286509D02*
X151862669Y-140286509D01*
X151691241Y-140886509D02*
X151691241Y-140286509D01*
X185330307Y-63368898D02*
X185787450Y-63368898D01*
X185558878Y-63597469D02*
X185558878Y-63140326D01*
X186358878Y-62997469D02*
X186073164Y-62997469D01*
X186044593Y-63283183D01*
X186073164Y-63254612D01*
X186130307Y-63226041D01*
X186273164Y-63226041D01*
X186330307Y-63254612D01*
X186358878Y-63283183D01*
X186387450Y-63340326D01*
X186387450Y-63483183D01*
X186358878Y-63540326D01*
X186330307Y-63568898D01*
X186273164Y-63597469D01*
X186130307Y-63597469D01*
X186073164Y-63568898D01*
X186044593Y-63540326D01*
X186558878Y-62997469D02*
X186758878Y-63597469D01*
X186958878Y-62997469D01*
X192446371Y-113301457D02*
X192903514Y-113301457D01*
X192674942Y-113530028D02*
X192674942Y-113072885D01*
X193474942Y-112930028D02*
X193189228Y-112930028D01*
X193160657Y-113215742D01*
X193189228Y-113187171D01*
X193246371Y-113158600D01*
X193389228Y-113158600D01*
X193446371Y-113187171D01*
X193474942Y-113215742D01*
X193503514Y-113272885D01*
X193503514Y-113415742D01*
X193474942Y-113472885D01*
X193446371Y-113501457D01*
X193389228Y-113530028D01*
X193246371Y-113530028D01*
X193189228Y-113501457D01*
X193160657Y-113472885D01*
X193674942Y-112930028D02*
X193874942Y-113530028D01*
X194074942Y-112930028D01*
X168916428Y-138822085D02*
X168887857Y-138850657D01*
X168802142Y-138879228D01*
X168745000Y-138879228D01*
X168659285Y-138850657D01*
X168602142Y-138793514D01*
X168573571Y-138736371D01*
X168545000Y-138622085D01*
X168545000Y-138536371D01*
X168573571Y-138422085D01*
X168602142Y-138364942D01*
X168659285Y-138307800D01*
X168745000Y-138279228D01*
X168802142Y-138279228D01*
X168887857Y-138307800D01*
X168916428Y-138336371D01*
X169145000Y-138707800D02*
X169430714Y-138707800D01*
X169087857Y-138879228D02*
X169287857Y-138279228D01*
X169487857Y-138879228D01*
X169687857Y-138879228D02*
X169687857Y-138279228D01*
X170030714Y-138879228D01*
X170030714Y-138279228D01*
X170602142Y-138879228D02*
X170316428Y-138879228D01*
X170316428Y-138279228D01*
X192836857Y-111002800D02*
X192779714Y-110974228D01*
X192694000Y-110974228D01*
X192608285Y-111002800D01*
X192551142Y-111059942D01*
X192522571Y-111117085D01*
X192494000Y-111231371D01*
X192494000Y-111317085D01*
X192522571Y-111431371D01*
X192551142Y-111488514D01*
X192608285Y-111545657D01*
X192694000Y-111574228D01*
X192751142Y-111574228D01*
X192836857Y-111545657D01*
X192865428Y-111517085D01*
X192865428Y-111317085D01*
X192751142Y-111317085D01*
X193122571Y-111574228D02*
X193122571Y-110974228D01*
X193465428Y-111574228D01*
X193465428Y-110974228D01*
X193751142Y-111574228D02*
X193751142Y-110974228D01*
X193894000Y-110974228D01*
X193979714Y-111002800D01*
X194036857Y-111059942D01*
X194065428Y-111117085D01*
X194094000Y-111231371D01*
X194094000Y-111317085D01*
X194065428Y-111431371D01*
X194036857Y-111488514D01*
X193979714Y-111545657D01*
X193894000Y-111574228D01*
X193751142Y-111574228D01*
X186244000Y-115454085D02*
X186215428Y-115482657D01*
X186129714Y-115511228D01*
X186072571Y-115511228D01*
X185986857Y-115482657D01*
X185929714Y-115425514D01*
X185901142Y-115368371D01*
X185872571Y-115254085D01*
X185872571Y-115168371D01*
X185901142Y-115054085D01*
X185929714Y-114996942D01*
X185986857Y-114939800D01*
X186072571Y-114911228D01*
X186129714Y-114911228D01*
X186215428Y-114939800D01*
X186244000Y-114968371D01*
X186472571Y-115339800D02*
X186758285Y-115339800D01*
X186415428Y-115511228D02*
X186615428Y-114911228D01*
X186815428Y-115511228D01*
X187015428Y-115511228D02*
X187015428Y-114911228D01*
X187358285Y-115511228D01*
X187358285Y-114911228D01*
X187644000Y-115511228D02*
X187644000Y-114911228D01*
X187644000Y-115196942D02*
X187986857Y-115196942D01*
X187986857Y-115511228D02*
X187986857Y-114911228D01*
X179164407Y-130253300D02*
X179507264Y-130253300D01*
X179335835Y-130853300D02*
X179335835Y-130253300D01*
X179707264Y-130853300D02*
X179707264Y-130253300D01*
X179707264Y-130539014D02*
X180050121Y-130539014D01*
X180050121Y-130853300D02*
X180050121Y-130253300D01*
X180335835Y-130539014D02*
X180535835Y-130539014D01*
X180621549Y-130853300D02*
X180335835Y-130853300D01*
X180335835Y-130253300D01*
X180621549Y-130253300D01*
X181221549Y-130853300D02*
X181021549Y-130567586D01*
X180878692Y-130853300D02*
X180878692Y-130253300D01*
X181107264Y-130253300D01*
X181164407Y-130281872D01*
X181192978Y-130310443D01*
X181221549Y-130367586D01*
X181221549Y-130453300D01*
X181192978Y-130510443D01*
X181164407Y-130539014D01*
X181107264Y-130567586D01*
X180878692Y-130567586D01*
X181478692Y-130853300D02*
X181478692Y-130253300D01*
X181678692Y-130681872D01*
X181878692Y-130253300D01*
X181878692Y-130853300D01*
X135220295Y-70505628D02*
X135982200Y-70505628D01*
X135601247Y-70886580D02*
X135601247Y-70124676D01*
X136982200Y-70886580D02*
X136410771Y-70886580D01*
X136696485Y-70886580D02*
X136696485Y-69886580D01*
X136601247Y-70029438D01*
X136506009Y-70124676D01*
X136410771Y-70172295D01*
X137363152Y-69981819D02*
X137410771Y-69934200D01*
X137506009Y-69886580D01*
X137744104Y-69886580D01*
X137839342Y-69934200D01*
X137886961Y-69981819D01*
X137934580Y-70077057D01*
X137934580Y-70172295D01*
X137886961Y-70315152D01*
X137315533Y-70886580D01*
X137934580Y-70886580D01*
X138220295Y-69886580D02*
X138553628Y-70886580D01*
X138886961Y-69886580D01*
X161136142Y-65854228D02*
X161136142Y-65254228D01*
X161336142Y-65682800D01*
X161536142Y-65254228D01*
X161536142Y-65854228D01*
X162164714Y-65797085D02*
X162136142Y-65825657D01*
X162050428Y-65854228D01*
X161993285Y-65854228D01*
X161907571Y-65825657D01*
X161850428Y-65768514D01*
X161821857Y-65711371D01*
X161793285Y-65597085D01*
X161793285Y-65511371D01*
X161821857Y-65397085D01*
X161850428Y-65339942D01*
X161907571Y-65282800D01*
X161993285Y-65254228D01*
X162050428Y-65254228D01*
X162136142Y-65282800D01*
X162164714Y-65311371D01*
X162707571Y-65854228D02*
X162421857Y-65854228D01*
X162421857Y-65254228D01*
X163250428Y-65854228D02*
X163050428Y-65568514D01*
X162907571Y-65854228D02*
X162907571Y-65254228D01*
X163136142Y-65254228D01*
X163193285Y-65282800D01*
X163221857Y-65311371D01*
X163250428Y-65368514D01*
X163250428Y-65454228D01*
X163221857Y-65511371D01*
X163193285Y-65539942D01*
X163136142Y-65568514D01*
X162907571Y-65568514D01*
X120493290Y-80039989D02*
X120540909Y-79992370D01*
X120636147Y-79944750D01*
X120874242Y-79944750D01*
X120969480Y-79992370D01*
X121017099Y-80039989D01*
X121064718Y-80135227D01*
X121064718Y-80230465D01*
X121017099Y-80373322D01*
X120445671Y-80944750D01*
X121064718Y-80944750D01*
X121683766Y-79944750D02*
X121779004Y-79944750D01*
X121874242Y-79992370D01*
X121921861Y-80039989D01*
X121969480Y-80135227D01*
X122017099Y-80325703D01*
X122017099Y-80563798D01*
X121969480Y-80754274D01*
X121921861Y-80849512D01*
X121874242Y-80897131D01*
X121779004Y-80944750D01*
X121683766Y-80944750D01*
X121588528Y-80897131D01*
X121540909Y-80849512D01*
X121493290Y-80754274D01*
X121445671Y-80563798D01*
X121445671Y-80325703D01*
X121493290Y-80135227D01*
X121540909Y-80039989D01*
X121588528Y-79992370D01*
X121683766Y-79944750D01*
X122398052Y-80039989D02*
X122445671Y-79992370D01*
X122540909Y-79944750D01*
X122779004Y-79944750D01*
X122874242Y-79992370D01*
X122921861Y-80039989D01*
X122969480Y-80135227D01*
X122969480Y-80230465D01*
X122921861Y-80373322D01*
X122350433Y-80944750D01*
X122969480Y-80944750D01*
X123350433Y-80039989D02*
X123398052Y-79992370D01*
X123493290Y-79944750D01*
X123731385Y-79944750D01*
X123826623Y-79992370D01*
X123874242Y-80039989D01*
X123921861Y-80135227D01*
X123921861Y-80230465D01*
X123874242Y-80373322D01*
X123302813Y-80944750D01*
X123921861Y-80944750D01*
X124350433Y-80563798D02*
X125112337Y-80563798D01*
X126112337Y-80944750D02*
X125540909Y-80944750D01*
X125826623Y-80944750D02*
X125826623Y-79944750D01*
X125731385Y-80087608D01*
X125636147Y-80182846D01*
X125540909Y-80230465D01*
X126493290Y-80039989D02*
X126540909Y-79992370D01*
X126636147Y-79944750D01*
X126874242Y-79944750D01*
X126969480Y-79992370D01*
X127017099Y-80039989D01*
X127064718Y-80135227D01*
X127064718Y-80230465D01*
X127017099Y-80373322D01*
X126445671Y-80944750D01*
X127064718Y-80944750D01*
X127493290Y-80563798D02*
X128255194Y-80563798D01*
X129255194Y-80944750D02*
X128683766Y-80944750D01*
X128969480Y-80944750D02*
X128969480Y-79944750D01*
X128874242Y-80087608D01*
X128779004Y-80182846D01*
X128683766Y-80230465D01*
X129731385Y-80944750D02*
X129921861Y-80944750D01*
X130017099Y-80897131D01*
X130064718Y-80849512D01*
X130159956Y-80706655D01*
X130207575Y-80516179D01*
X130207575Y-80135227D01*
X130159956Y-80039989D01*
X130112337Y-79992370D01*
X130017099Y-79944750D01*
X129826623Y-79944750D01*
X129731385Y-79992370D01*
X129683766Y-80039989D01*
X129636147Y-80135227D01*
X129636147Y-80373322D01*
X129683766Y-80468560D01*
X129731385Y-80516179D01*
X129826623Y-80563798D01*
X130017099Y-80563798D01*
X130112337Y-80516179D01*
X130159956Y-80468560D01*
X130207575Y-80373322D01*
X125841428Y-66352800D02*
X125746190Y-66305180D01*
X125603333Y-66305180D01*
X125460476Y-66352800D01*
X125365238Y-66448038D01*
X125317619Y-66543276D01*
X125270000Y-66733752D01*
X125270000Y-66876609D01*
X125317619Y-67067085D01*
X125365238Y-67162323D01*
X125460476Y-67257561D01*
X125603333Y-67305180D01*
X125698571Y-67305180D01*
X125841428Y-67257561D01*
X125889047Y-67209942D01*
X125889047Y-66876609D01*
X125698571Y-66876609D01*
X126317619Y-67305180D02*
X126317619Y-66305180D01*
X126889047Y-67305180D01*
X126889047Y-66305180D01*
X127365238Y-67305180D02*
X127365238Y-66305180D01*
X127603333Y-66305180D01*
X127746190Y-66352800D01*
X127841428Y-66448038D01*
X127889047Y-66543276D01*
X127936666Y-66733752D01*
X127936666Y-66876609D01*
X127889047Y-67067085D01*
X127841428Y-67162323D01*
X127746190Y-67257561D01*
X127603333Y-67305180D01*
X127365238Y-67305180D01*
X128984285Y-66305180D02*
X129555714Y-66305180D01*
X129270000Y-67305180D02*
X129270000Y-66305180D01*
X129889047Y-67305180D02*
X129889047Y-66305180D01*
X130270000Y-66305180D01*
X130365238Y-66352800D01*
X130412857Y-66400419D01*
X130460476Y-66495657D01*
X130460476Y-66638514D01*
X130412857Y-66733752D01*
X130365238Y-66781371D01*
X130270000Y-66828990D01*
X129889047Y-66828990D01*
X130841428Y-67257561D02*
X130936666Y-67305180D01*
X131127142Y-67305180D01*
X131222380Y-67257561D01*
X131270000Y-67162323D01*
X131270000Y-67114704D01*
X131222380Y-67019466D01*
X131127142Y-66971847D01*
X130984285Y-66971847D01*
X130889047Y-66924228D01*
X130841428Y-66828990D01*
X130841428Y-66781371D01*
X130889047Y-66686133D01*
X130984285Y-66638514D01*
X131127142Y-66638514D01*
X131222380Y-66686133D01*
X113766657Y-101630200D02*
X113709514Y-101601628D01*
X113623800Y-101601628D01*
X113538085Y-101630200D01*
X113480942Y-101687342D01*
X113452371Y-101744485D01*
X113423800Y-101858771D01*
X113423800Y-101944485D01*
X113452371Y-102058771D01*
X113480942Y-102115914D01*
X113538085Y-102173057D01*
X113623800Y-102201628D01*
X113680942Y-102201628D01*
X113766657Y-102173057D01*
X113795228Y-102144485D01*
X113795228Y-101944485D01*
X113680942Y-101944485D01*
X114052371Y-102201628D02*
X114052371Y-101601628D01*
X114395228Y-102201628D01*
X114395228Y-101601628D01*
X114680942Y-102201628D02*
X114680942Y-101601628D01*
X114823800Y-101601628D01*
X114909514Y-101630200D01*
X114966657Y-101687342D01*
X114995228Y-101744485D01*
X115023800Y-101858771D01*
X115023800Y-101944485D01*
X114995228Y-102058771D01*
X114966657Y-102115914D01*
X114909514Y-102173057D01*
X114823800Y-102201628D01*
X114680942Y-102201628D01*
X133467571Y-133570657D02*
X133924714Y-133570657D01*
X133696142Y-133799228D02*
X133696142Y-133342085D01*
X134496142Y-133199228D02*
X134210428Y-133199228D01*
X134181857Y-133484942D01*
X134210428Y-133456371D01*
X134267571Y-133427800D01*
X134410428Y-133427800D01*
X134467571Y-133456371D01*
X134496142Y-133484942D01*
X134524714Y-133542085D01*
X134524714Y-133684942D01*
X134496142Y-133742085D01*
X134467571Y-133770657D01*
X134410428Y-133799228D01*
X134267571Y-133799228D01*
X134210428Y-133770657D01*
X134181857Y-133742085D01*
X134696142Y-133199228D02*
X134896142Y-133799228D01*
X135096142Y-133199228D01*
X186188428Y-113549085D02*
X186159857Y-113577657D01*
X186074142Y-113606228D01*
X186017000Y-113606228D01*
X185931285Y-113577657D01*
X185874142Y-113520514D01*
X185845571Y-113463371D01*
X185817000Y-113349085D01*
X185817000Y-113263371D01*
X185845571Y-113149085D01*
X185874142Y-113091942D01*
X185931285Y-113034800D01*
X186017000Y-113006228D01*
X186074142Y-113006228D01*
X186159857Y-113034800D01*
X186188428Y-113063371D01*
X186417000Y-113434800D02*
X186702714Y-113434800D01*
X186359857Y-113606228D02*
X186559857Y-113006228D01*
X186759857Y-113606228D01*
X186959857Y-113606228D02*
X186959857Y-113006228D01*
X187302714Y-113606228D01*
X187302714Y-113006228D01*
X187874142Y-113606228D02*
X187588428Y-113606228D01*
X187588428Y-113006228D01*
X189404714Y-123371800D02*
X189309476Y-123324180D01*
X189166619Y-123324180D01*
X189023761Y-123371800D01*
X188928523Y-123467038D01*
X188880904Y-123562276D01*
X188833285Y-123752752D01*
X188833285Y-123895609D01*
X188880904Y-124086085D01*
X188928523Y-124181323D01*
X189023761Y-124276561D01*
X189166619Y-124324180D01*
X189261857Y-124324180D01*
X189404714Y-124276561D01*
X189452333Y-124228942D01*
X189452333Y-123895609D01*
X189261857Y-123895609D01*
X189880904Y-124324180D02*
X189880904Y-123324180D01*
X190261857Y-123324180D01*
X190357095Y-123371800D01*
X190404714Y-123419419D01*
X190452333Y-123514657D01*
X190452333Y-123657514D01*
X190404714Y-123752752D01*
X190357095Y-123800371D01*
X190261857Y-123847990D01*
X189880904Y-123847990D01*
X190833285Y-124276561D02*
X190976142Y-124324180D01*
X191214238Y-124324180D01*
X191309476Y-124276561D01*
X191357095Y-124228942D01*
X191404714Y-124133704D01*
X191404714Y-124038466D01*
X191357095Y-123943228D01*
X191309476Y-123895609D01*
X191214238Y-123847990D01*
X191023761Y-123800371D01*
X190928523Y-123752752D01*
X190880904Y-123705133D01*
X190833285Y-123609895D01*
X190833285Y-123514657D01*
X190880904Y-123419419D01*
X190928523Y-123371800D01*
X191023761Y-123324180D01*
X191261857Y-123324180D01*
X191404714Y-123371800D01*
X172108857Y-65797085D02*
X172080285Y-65825657D01*
X171994571Y-65854228D01*
X171937428Y-65854228D01*
X171851714Y-65825657D01*
X171794571Y-65768514D01*
X171766000Y-65711371D01*
X171737428Y-65597085D01*
X171737428Y-65511371D01*
X171766000Y-65397085D01*
X171794571Y-65339942D01*
X171851714Y-65282800D01*
X171937428Y-65254228D01*
X171994571Y-65254228D01*
X172080285Y-65282800D01*
X172108857Y-65311371D01*
X172651714Y-65854228D02*
X172366000Y-65854228D01*
X172366000Y-65254228D01*
X172851714Y-65854228D02*
X172851714Y-65254228D01*
X173194571Y-65854228D02*
X172937428Y-65511371D01*
X173194571Y-65254228D02*
X172851714Y-65597085D01*
X177591642Y-67051180D02*
X177258309Y-66574990D01*
X177020214Y-67051180D02*
X177020214Y-66051180D01*
X177401166Y-66051180D01*
X177496404Y-66098800D01*
X177544023Y-66146419D01*
X177591642Y-66241657D01*
X177591642Y-66384514D01*
X177544023Y-66479752D01*
X177496404Y-66527371D01*
X177401166Y-66574990D01*
X177020214Y-66574990D01*
X178353547Y-66527371D02*
X178496404Y-66574990D01*
X178544023Y-66622609D01*
X178591642Y-66717847D01*
X178591642Y-66860704D01*
X178544023Y-66955942D01*
X178496404Y-67003561D01*
X178401166Y-67051180D01*
X178020214Y-67051180D01*
X178020214Y-66051180D01*
X178353547Y-66051180D01*
X178448785Y-66098800D01*
X178496404Y-66146419D01*
X178544023Y-66241657D01*
X178544023Y-66336895D01*
X178496404Y-66432133D01*
X178448785Y-66479752D01*
X178353547Y-66527371D01*
X178020214Y-66527371D01*
X179496404Y-66051180D02*
X179020214Y-66051180D01*
X178972595Y-66527371D01*
X179020214Y-66479752D01*
X179115452Y-66432133D01*
X179353547Y-66432133D01*
X179448785Y-66479752D01*
X179496404Y-66527371D01*
X179544023Y-66622609D01*
X179544023Y-66860704D01*
X179496404Y-66955942D01*
X179448785Y-67003561D01*
X179353547Y-67051180D01*
X179115452Y-67051180D01*
X179020214Y-67003561D01*
X178972595Y-66955942D01*
X167817857Y-132973800D02*
X167760714Y-132945228D01*
X167675000Y-132945228D01*
X167589285Y-132973800D01*
X167532142Y-133030942D01*
X167503571Y-133088085D01*
X167475000Y-133202371D01*
X167475000Y-133288085D01*
X167503571Y-133402371D01*
X167532142Y-133459514D01*
X167589285Y-133516657D01*
X167675000Y-133545228D01*
X167732142Y-133545228D01*
X167817857Y-133516657D01*
X167846428Y-133488085D01*
X167846428Y-133288085D01*
X167732142Y-133288085D01*
X168103571Y-133545228D02*
X168103571Y-132945228D01*
X168446428Y-133545228D01*
X168446428Y-132945228D01*
X168732142Y-133545228D02*
X168732142Y-132945228D01*
X168875000Y-132945228D01*
X168960714Y-132973800D01*
X169017857Y-133030942D01*
X169046428Y-133088085D01*
X169075000Y-133202371D01*
X169075000Y-133288085D01*
X169046428Y-133402371D01*
X169017857Y-133459514D01*
X168960714Y-133516657D01*
X168875000Y-133545228D01*
X168732142Y-133545228D01*
X113604771Y-100093457D02*
X114061914Y-100093457D01*
X113833342Y-100322028D02*
X113833342Y-99864885D01*
X114633342Y-99722028D02*
X114347628Y-99722028D01*
X114319057Y-100007742D01*
X114347628Y-99979171D01*
X114404771Y-99950600D01*
X114547628Y-99950600D01*
X114604771Y-99979171D01*
X114633342Y-100007742D01*
X114661914Y-100064885D01*
X114661914Y-100207742D01*
X114633342Y-100264885D01*
X114604771Y-100293457D01*
X114547628Y-100322028D01*
X114404771Y-100322028D01*
X114347628Y-100293457D01*
X114319057Y-100264885D01*
X114833342Y-99722028D02*
X115033342Y-100322028D01*
X115233342Y-99722028D01*
X131749857Y-133227800D02*
X131692714Y-133199228D01*
X131607000Y-133199228D01*
X131521285Y-133227800D01*
X131464142Y-133284942D01*
X131435571Y-133342085D01*
X131407000Y-133456371D01*
X131407000Y-133542085D01*
X131435571Y-133656371D01*
X131464142Y-133713514D01*
X131521285Y-133770657D01*
X131607000Y-133799228D01*
X131664142Y-133799228D01*
X131749857Y-133770657D01*
X131778428Y-133742085D01*
X131778428Y-133542085D01*
X131664142Y-133542085D01*
X132035571Y-133799228D02*
X132035571Y-133199228D01*
X132378428Y-133799228D01*
X132378428Y-133199228D01*
X132664142Y-133799228D02*
X132664142Y-133199228D01*
X132807000Y-133199228D01*
X132892714Y-133227800D01*
X132949857Y-133284942D01*
X132978428Y-133342085D01*
X133007000Y-133456371D01*
X133007000Y-133542085D01*
X132978428Y-133656371D01*
X132949857Y-133713514D01*
X132892714Y-133770657D01*
X132807000Y-133799228D01*
X132664142Y-133799228D01*
X169535571Y-133316657D02*
X169992714Y-133316657D01*
X169764142Y-133545228D02*
X169764142Y-133088085D01*
X170564142Y-132945228D02*
X170278428Y-132945228D01*
X170249857Y-133230942D01*
X170278428Y-133202371D01*
X170335571Y-133173800D01*
X170478428Y-133173800D01*
X170535571Y-133202371D01*
X170564142Y-133230942D01*
X170592714Y-133288085D01*
X170592714Y-133430942D01*
X170564142Y-133488085D01*
X170535571Y-133516657D01*
X170478428Y-133545228D01*
X170335571Y-133545228D01*
X170278428Y-133516657D01*
X170249857Y-133488085D01*
X170764142Y-132945228D02*
X170964142Y-133545228D01*
X171164142Y-132945228D01*
X146531857Y-140877933D02*
X146531857Y-140277933D01*
X146760428Y-140277933D01*
X146817571Y-140306505D01*
X146846142Y-140335076D01*
X146874714Y-140392219D01*
X146874714Y-140477933D01*
X146846142Y-140535076D01*
X146817571Y-140563647D01*
X146760428Y-140592219D01*
X146531857Y-140592219D01*
X147446142Y-140306505D02*
X147389000Y-140277933D01*
X147303285Y-140277933D01*
X147217571Y-140306505D01*
X147160428Y-140363647D01*
X147131857Y-140420790D01*
X147103285Y-140535076D01*
X147103285Y-140620790D01*
X147131857Y-140735076D01*
X147160428Y-140792219D01*
X147217571Y-140849362D01*
X147303285Y-140877933D01*
X147360428Y-140877933D01*
X147446142Y-140849362D01*
X147474714Y-140820790D01*
X147474714Y-140620790D01*
X147360428Y-140620790D01*
X120445766Y-75809131D02*
X120445766Y-73809131D01*
X121588623Y-75809131D02*
X120731480Y-74666274D01*
X121588623Y-73809131D02*
X120445766Y-74951989D01*
X122826718Y-74856750D02*
X122826718Y-75809131D01*
X122160052Y-73809131D02*
X122826718Y-74856750D01*
X123493385Y-73809131D01*
X125112433Y-75809131D02*
X124160052Y-75809131D01*
X124160052Y-73809131D01*
X125779099Y-74761512D02*
X126445766Y-74761512D01*
X126731480Y-75809131D02*
X125779099Y-75809131D01*
X125779099Y-73809131D01*
X126731480Y-73809131D01*
X128826718Y-73809131D02*
X129493385Y-75809131D01*
X130160052Y-73809131D01*
X131874337Y-75809131D02*
X130731480Y-75809131D01*
X131302909Y-75809131D02*
X131302909Y-73809131D01*
X131112433Y-74094846D01*
X130921956Y-74285322D01*
X130731480Y-74380560D01*
X124720600Y-107742028D02*
X125482504Y-107742028D01*
X125101552Y-108122980D02*
X125101552Y-107361076D01*
X126387266Y-107456314D02*
X126387266Y-108122980D01*
X126149171Y-107075361D02*
X125911076Y-107789647D01*
X126530123Y-107789647D01*
X126911076Y-108027742D02*
X126958695Y-108075361D01*
X126911076Y-108122980D01*
X126863457Y-108075361D01*
X126911076Y-108027742D01*
X126911076Y-108122980D01*
X127863457Y-107122980D02*
X127387266Y-107122980D01*
X127339647Y-107599171D01*
X127387266Y-107551552D01*
X127482504Y-107503933D01*
X127720600Y-107503933D01*
X127815838Y-107551552D01*
X127863457Y-107599171D01*
X127911076Y-107694409D01*
X127911076Y-107932504D01*
X127863457Y-108027742D01*
X127815838Y-108075361D01*
X127720600Y-108122980D01*
X127482504Y-108122980D01*
X127387266Y-108075361D01*
X127339647Y-108027742D01*
X128196790Y-107122980D02*
X128530123Y-108122980D01*
X128863457Y-107122980D01*
X166703285Y-103443228D02*
X167465190Y-103443228D01*
X167084238Y-103824180D02*
X167084238Y-103062276D01*
X168417571Y-102824180D02*
X167941380Y-102824180D01*
X167893761Y-103300371D01*
X167941380Y-103252752D01*
X168036619Y-103205133D01*
X168274714Y-103205133D01*
X168369952Y-103252752D01*
X168417571Y-103300371D01*
X168465190Y-103395609D01*
X168465190Y-103633704D01*
X168417571Y-103728942D01*
X168369952Y-103776561D01*
X168274714Y-103824180D01*
X168036619Y-103824180D01*
X167941380Y-103776561D01*
X167893761Y-103728942D01*
X168750904Y-102824180D02*
X169084238Y-103824180D01*
X169417571Y-102824180D01*
X171639000Y-138822085D02*
X171610428Y-138850657D01*
X171524714Y-138879228D01*
X171467571Y-138879228D01*
X171381857Y-138850657D01*
X171324714Y-138793514D01*
X171296142Y-138736371D01*
X171267571Y-138622085D01*
X171267571Y-138536371D01*
X171296142Y-138422085D01*
X171324714Y-138364942D01*
X171381857Y-138307800D01*
X171467571Y-138279228D01*
X171524714Y-138279228D01*
X171610428Y-138307800D01*
X171639000Y-138336371D01*
X171867571Y-138707800D02*
X172153285Y-138707800D01*
X171810428Y-138879228D02*
X172010428Y-138279228D01*
X172210428Y-138879228D01*
X172410428Y-138879228D02*
X172410428Y-138279228D01*
X172753285Y-138879228D01*
X172753285Y-138279228D01*
X173039000Y-138879228D02*
X173039000Y-138279228D01*
X173039000Y-138564942D02*
X173381857Y-138564942D01*
X173381857Y-138879228D02*
X173381857Y-138279228D01*
X120953385Y-77642750D02*
X120620052Y-77166560D01*
X120381956Y-77642750D02*
X120381956Y-76642750D01*
X120762909Y-76642750D01*
X120858147Y-76690370D01*
X120905766Y-76737989D01*
X120953385Y-76833227D01*
X120953385Y-76976084D01*
X120905766Y-77071322D01*
X120858147Y-77118941D01*
X120762909Y-77166560D01*
X120381956Y-77166560D01*
X121381956Y-77547512D02*
X121429575Y-77595131D01*
X121381956Y-77642750D01*
X121334337Y-77595131D01*
X121381956Y-77547512D01*
X121381956Y-77642750D01*
X122620052Y-77642750D02*
X122620052Y-76642750D01*
X122858147Y-76642750D01*
X123001004Y-76690370D01*
X123096242Y-76785608D01*
X123143861Y-76880846D01*
X123191480Y-77071322D01*
X123191480Y-77214179D01*
X123143861Y-77404655D01*
X123096242Y-77499893D01*
X123001004Y-77595131D01*
X122858147Y-77642750D01*
X122620052Y-77642750D01*
X124048623Y-77642750D02*
X124048623Y-77118941D01*
X124001004Y-77023703D01*
X123905766Y-76976084D01*
X123715290Y-76976084D01*
X123620052Y-77023703D01*
X124048623Y-77595131D02*
X123953385Y-77642750D01*
X123715290Y-77642750D01*
X123620052Y-77595131D01*
X123572433Y-77499893D01*
X123572433Y-77404655D01*
X123620052Y-77309417D01*
X123715290Y-77261798D01*
X123953385Y-77261798D01*
X124048623Y-77214179D01*
X124524813Y-77642750D02*
X124524813Y-76642750D01*
X124620052Y-77261798D02*
X124905766Y-77642750D01*
X124905766Y-76976084D02*
X124524813Y-77357036D01*
X125334337Y-77642750D02*
X125334337Y-76642750D01*
X125762909Y-77642750D02*
X125762909Y-77118941D01*
X125715290Y-77023703D01*
X125620052Y-76976084D01*
X125477194Y-76976084D01*
X125381956Y-77023703D01*
X125334337Y-77071322D01*
X126239099Y-77642750D02*
X126239099Y-76976084D01*
X126239099Y-76642750D02*
X126191480Y-76690370D01*
X126239099Y-76737989D01*
X126286718Y-76690370D01*
X126239099Y-76642750D01*
X126239099Y-76737989D01*
X126858147Y-77642750D02*
X126762909Y-77595131D01*
X126715290Y-77499893D01*
X126715290Y-76642750D01*
X144918371Y-97988428D02*
X145680276Y-97988428D01*
X145299323Y-98369380D02*
X145299323Y-97607476D01*
X146489800Y-97845571D02*
X146632657Y-97893190D01*
X146680276Y-97940809D01*
X146727895Y-98036047D01*
X146727895Y-98178904D01*
X146680276Y-98274142D01*
X146632657Y-98321761D01*
X146537419Y-98369380D01*
X146156466Y-98369380D01*
X146156466Y-97369380D01*
X146489800Y-97369380D01*
X146585038Y-97417000D01*
X146632657Y-97464619D01*
X146680276Y-97559857D01*
X146680276Y-97655095D01*
X146632657Y-97750333D01*
X146585038Y-97797952D01*
X146489800Y-97845571D01*
X146156466Y-97845571D01*
X147108847Y-98083666D02*
X147585038Y-98083666D01*
X147013609Y-98369380D02*
X147346942Y-97369380D01*
X147680276Y-98369380D01*
X147870752Y-97369380D02*
X148442180Y-97369380D01*
X148156466Y-98369380D02*
X148156466Y-97369380D01*
X148632657Y-97369380D02*
X149204085Y-97369380D01*
X148918371Y-98369380D02*
X148918371Y-97369380D01*
X133102428Y-139076085D02*
X133073857Y-139104657D01*
X132988142Y-139133228D01*
X132931000Y-139133228D01*
X132845285Y-139104657D01*
X132788142Y-139047514D01*
X132759571Y-138990371D01*
X132731000Y-138876085D01*
X132731000Y-138790371D01*
X132759571Y-138676085D01*
X132788142Y-138618942D01*
X132845285Y-138561800D01*
X132931000Y-138533228D01*
X132988142Y-138533228D01*
X133073857Y-138561800D01*
X133102428Y-138590371D01*
X133331000Y-138961800D02*
X133616714Y-138961800D01*
X133273857Y-139133228D02*
X133473857Y-138533228D01*
X133673857Y-139133228D01*
X133873857Y-139133228D02*
X133873857Y-138533228D01*
X134216714Y-139133228D01*
X134216714Y-138533228D01*
X134788142Y-139133228D02*
X134502428Y-139133228D01*
X134502428Y-138533228D01*
%TO.C,R29*%
X192524142Y-133218180D02*
X192190809Y-132741990D01*
X191952714Y-133218180D02*
X191952714Y-132218180D01*
X192333666Y-132218180D01*
X192428904Y-132265800D01*
X192476523Y-132313419D01*
X192524142Y-132408657D01*
X192524142Y-132551514D01*
X192476523Y-132646752D01*
X192428904Y-132694371D01*
X192333666Y-132741990D01*
X191952714Y-132741990D01*
X192905095Y-132313419D02*
X192952714Y-132265800D01*
X193047952Y-132218180D01*
X193286047Y-132218180D01*
X193381285Y-132265800D01*
X193428904Y-132313419D01*
X193476523Y-132408657D01*
X193476523Y-132503895D01*
X193428904Y-132646752D01*
X192857476Y-133218180D01*
X193476523Y-133218180D01*
X193952714Y-133218180D02*
X194143190Y-133218180D01*
X194238428Y-133170561D01*
X194286047Y-133122942D01*
X194381285Y-132980085D01*
X194428904Y-132789609D01*
X194428904Y-132408657D01*
X194381285Y-132313419D01*
X194333666Y-132265800D01*
X194238428Y-132218180D01*
X194047952Y-132218180D01*
X193952714Y-132265800D01*
X193905095Y-132313419D01*
X193857476Y-132408657D01*
X193857476Y-132646752D01*
X193905095Y-132741990D01*
X193952714Y-132789609D01*
X194047952Y-132837228D01*
X194238428Y-132837228D01*
X194333666Y-132789609D01*
X194381285Y-132741990D01*
X194428904Y-132646752D01*
%TO.C,C18*%
X150146142Y-69928942D02*
X150098523Y-69976561D01*
X149955666Y-70024180D01*
X149860428Y-70024180D01*
X149717571Y-69976561D01*
X149622333Y-69881323D01*
X149574714Y-69786085D01*
X149527095Y-69595609D01*
X149527095Y-69452752D01*
X149574714Y-69262276D01*
X149622333Y-69167038D01*
X149717571Y-69071800D01*
X149860428Y-69024180D01*
X149955666Y-69024180D01*
X150098523Y-69071800D01*
X150146142Y-69119419D01*
X151098523Y-70024180D02*
X150527095Y-70024180D01*
X150812809Y-70024180D02*
X150812809Y-69024180D01*
X150717571Y-69167038D01*
X150622333Y-69262276D01*
X150527095Y-69309895D01*
X151669952Y-69452752D02*
X151574714Y-69405133D01*
X151527095Y-69357514D01*
X151479476Y-69262276D01*
X151479476Y-69214657D01*
X151527095Y-69119419D01*
X151574714Y-69071800D01*
X151669952Y-69024180D01*
X151860428Y-69024180D01*
X151955666Y-69071800D01*
X152003285Y-69119419D01*
X152050904Y-69214657D01*
X152050904Y-69262276D01*
X152003285Y-69357514D01*
X151955666Y-69405133D01*
X151860428Y-69452752D01*
X151669952Y-69452752D01*
X151574714Y-69500371D01*
X151527095Y-69547990D01*
X151479476Y-69643228D01*
X151479476Y-69833704D01*
X151527095Y-69928942D01*
X151574714Y-69976561D01*
X151669952Y-70024180D01*
X151860428Y-70024180D01*
X151955666Y-69976561D01*
X152003285Y-69928942D01*
X152050904Y-69833704D01*
X152050904Y-69643228D01*
X152003285Y-69547990D01*
X151955666Y-69500371D01*
X151860428Y-69452752D01*
%TO.C,J4*%
X143107066Y-135485380D02*
X143107066Y-136199666D01*
X143059447Y-136342523D01*
X142964209Y-136437761D01*
X142821352Y-136485380D01*
X142726114Y-136485380D01*
X144011828Y-135818714D02*
X144011828Y-136485380D01*
X143773733Y-135437761D02*
X143535638Y-136152047D01*
X144154685Y-136152047D01*
%TO.C,J11*%
X127206476Y-61225180D02*
X127206476Y-61939466D01*
X127158857Y-62082323D01*
X127063619Y-62177561D01*
X126920761Y-62225180D01*
X126825523Y-62225180D01*
X128206476Y-62225180D02*
X127635047Y-62225180D01*
X127920761Y-62225180D02*
X127920761Y-61225180D01*
X127825523Y-61368038D01*
X127730285Y-61463276D01*
X127635047Y-61510895D01*
X129158857Y-62225180D02*
X128587428Y-62225180D01*
X128873142Y-62225180D02*
X128873142Y-61225180D01*
X128777904Y-61368038D01*
X128682666Y-61463276D01*
X128587428Y-61510895D01*
%TO.C,U7*%
X179204595Y-88530180D02*
X179204595Y-89339704D01*
X179252214Y-89434942D01*
X179299833Y-89482561D01*
X179395071Y-89530180D01*
X179585547Y-89530180D01*
X179680785Y-89482561D01*
X179728404Y-89434942D01*
X179776023Y-89339704D01*
X179776023Y-88530180D01*
X180156976Y-88530180D02*
X180823642Y-88530180D01*
X180395071Y-89530180D01*
%TO.C,C19*%
X168976142Y-74078942D02*
X168928523Y-74126561D01*
X168785666Y-74174180D01*
X168690428Y-74174180D01*
X168547571Y-74126561D01*
X168452333Y-74031323D01*
X168404714Y-73936085D01*
X168357095Y-73745609D01*
X168357095Y-73602752D01*
X168404714Y-73412276D01*
X168452333Y-73317038D01*
X168547571Y-73221800D01*
X168690428Y-73174180D01*
X168785666Y-73174180D01*
X168928523Y-73221800D01*
X168976142Y-73269419D01*
X169928523Y-74174180D02*
X169357095Y-74174180D01*
X169642809Y-74174180D02*
X169642809Y-73174180D01*
X169547571Y-73317038D01*
X169452333Y-73412276D01*
X169357095Y-73459895D01*
X170404714Y-74174180D02*
X170595190Y-74174180D01*
X170690428Y-74126561D01*
X170738047Y-74078942D01*
X170833285Y-73936085D01*
X170880904Y-73745609D01*
X170880904Y-73364657D01*
X170833285Y-73269419D01*
X170785666Y-73221800D01*
X170690428Y-73174180D01*
X170499952Y-73174180D01*
X170404714Y-73221800D01*
X170357095Y-73269419D01*
X170309476Y-73364657D01*
X170309476Y-73602752D01*
X170357095Y-73697990D01*
X170404714Y-73745609D01*
X170499952Y-73793228D01*
X170690428Y-73793228D01*
X170785666Y-73745609D01*
X170833285Y-73697990D01*
X170880904Y-73602752D01*
%TO.C,H2*%
X121810512Y-88499279D02*
X121810512Y-87499279D01*
X121810512Y-87975470D02*
X122381940Y-87975470D01*
X122381940Y-88499279D02*
X122381940Y-87499279D01*
X122810512Y-87594518D02*
X122858131Y-87546899D01*
X122953369Y-87499279D01*
X123191464Y-87499279D01*
X123286702Y-87546899D01*
X123334321Y-87594518D01*
X123381940Y-87689756D01*
X123381940Y-87784994D01*
X123334321Y-87927851D01*
X122762893Y-88499279D01*
X123381940Y-88499279D01*
%TO.C,D8*%
X146200904Y-134446480D02*
X146200904Y-133446480D01*
X146439000Y-133446480D01*
X146581857Y-133494100D01*
X146677095Y-133589338D01*
X146724714Y-133684576D01*
X146772333Y-133875052D01*
X146772333Y-134017909D01*
X146724714Y-134208385D01*
X146677095Y-134303623D01*
X146581857Y-134398861D01*
X146439000Y-134446480D01*
X146200904Y-134446480D01*
X147343761Y-133875052D02*
X147248523Y-133827433D01*
X147200904Y-133779814D01*
X147153285Y-133684576D01*
X147153285Y-133636957D01*
X147200904Y-133541719D01*
X147248523Y-133494100D01*
X147343761Y-133446480D01*
X147534238Y-133446480D01*
X147629476Y-133494100D01*
X147677095Y-133541719D01*
X147724714Y-133636957D01*
X147724714Y-133684576D01*
X147677095Y-133779814D01*
X147629476Y-133827433D01*
X147534238Y-133875052D01*
X147343761Y-133875052D01*
X147248523Y-133922671D01*
X147200904Y-133970290D01*
X147153285Y-134065528D01*
X147153285Y-134256004D01*
X147200904Y-134351242D01*
X147248523Y-134398861D01*
X147343761Y-134446480D01*
X147534238Y-134446480D01*
X147629476Y-134398861D01*
X147677095Y-134351242D01*
X147724714Y-134256004D01*
X147724714Y-134065528D01*
X147677095Y-133970290D01*
X147629476Y-133922671D01*
X147534238Y-133875052D01*
%TO.C,R6*%
X149497333Y-128483980D02*
X149164000Y-128007790D01*
X148925904Y-128483980D02*
X148925904Y-127483980D01*
X149306857Y-127483980D01*
X149402095Y-127531600D01*
X149449714Y-127579219D01*
X149497333Y-127674457D01*
X149497333Y-127817314D01*
X149449714Y-127912552D01*
X149402095Y-127960171D01*
X149306857Y-128007790D01*
X148925904Y-128007790D01*
X150354476Y-127483980D02*
X150164000Y-127483980D01*
X150068761Y-127531600D01*
X150021142Y-127579219D01*
X149925904Y-127722076D01*
X149878285Y-127912552D01*
X149878285Y-128293504D01*
X149925904Y-128388742D01*
X149973523Y-128436361D01*
X150068761Y-128483980D01*
X150259238Y-128483980D01*
X150354476Y-128436361D01*
X150402095Y-128388742D01*
X150449714Y-128293504D01*
X150449714Y-128055409D01*
X150402095Y-127960171D01*
X150354476Y-127912552D01*
X150259238Y-127864933D01*
X150068761Y-127864933D01*
X149973523Y-127912552D01*
X149925904Y-127960171D01*
X149878285Y-128055409D01*
%TO.C,R13*%
X186682142Y-77028180D02*
X186348809Y-76551990D01*
X186110714Y-77028180D02*
X186110714Y-76028180D01*
X186491666Y-76028180D01*
X186586904Y-76075800D01*
X186634523Y-76123419D01*
X186682142Y-76218657D01*
X186682142Y-76361514D01*
X186634523Y-76456752D01*
X186586904Y-76504371D01*
X186491666Y-76551990D01*
X186110714Y-76551990D01*
X187634523Y-77028180D02*
X187063095Y-77028180D01*
X187348809Y-77028180D02*
X187348809Y-76028180D01*
X187253571Y-76171038D01*
X187158333Y-76266276D01*
X187063095Y-76313895D01*
X187967857Y-76028180D02*
X188586904Y-76028180D01*
X188253571Y-76409133D01*
X188396428Y-76409133D01*
X188491666Y-76456752D01*
X188539285Y-76504371D01*
X188586904Y-76599609D01*
X188586904Y-76837704D01*
X188539285Y-76932942D01*
X188491666Y-76980561D01*
X188396428Y-77028180D01*
X188110714Y-77028180D01*
X188015476Y-76980561D01*
X187967857Y-76932942D01*
%TO.C,U9*%
X162244095Y-68564180D02*
X162244095Y-69373704D01*
X162291714Y-69468942D01*
X162339333Y-69516561D01*
X162434571Y-69564180D01*
X162625047Y-69564180D01*
X162720285Y-69516561D01*
X162767904Y-69468942D01*
X162815523Y-69373704D01*
X162815523Y-68564180D01*
X163339333Y-69564180D02*
X163529809Y-69564180D01*
X163625047Y-69516561D01*
X163672666Y-69468942D01*
X163767904Y-69326085D01*
X163815523Y-69135609D01*
X163815523Y-68754657D01*
X163767904Y-68659419D01*
X163720285Y-68611800D01*
X163625047Y-68564180D01*
X163434571Y-68564180D01*
X163339333Y-68611800D01*
X163291714Y-68659419D01*
X163244095Y-68754657D01*
X163244095Y-68992752D01*
X163291714Y-69087990D01*
X163339333Y-69135609D01*
X163434571Y-69183228D01*
X163625047Y-69183228D01*
X163720285Y-69135609D01*
X163767904Y-69087990D01*
X163815523Y-68992752D01*
%TO.C,D3*%
X191666904Y-76824180D02*
X191666904Y-75824180D01*
X191905000Y-75824180D01*
X192047857Y-75871800D01*
X192143095Y-75967038D01*
X192190714Y-76062276D01*
X192238333Y-76252752D01*
X192238333Y-76395609D01*
X192190714Y-76586085D01*
X192143095Y-76681323D01*
X192047857Y-76776561D01*
X191905000Y-76824180D01*
X191666904Y-76824180D01*
X192571666Y-75824180D02*
X193190714Y-75824180D01*
X192857380Y-76205133D01*
X193000238Y-76205133D01*
X193095476Y-76252752D01*
X193143095Y-76300371D01*
X193190714Y-76395609D01*
X193190714Y-76633704D01*
X193143095Y-76728942D01*
X193095476Y-76776561D01*
X193000238Y-76824180D01*
X192714523Y-76824180D01*
X192619285Y-76776561D01*
X192571666Y-76728942D01*
%TO.C,D5*%
X191666904Y-69324180D02*
X191666904Y-68324180D01*
X191905000Y-68324180D01*
X192047857Y-68371800D01*
X192143095Y-68467038D01*
X192190714Y-68562276D01*
X192238333Y-68752752D01*
X192238333Y-68895609D01*
X192190714Y-69086085D01*
X192143095Y-69181323D01*
X192047857Y-69276561D01*
X191905000Y-69324180D01*
X191666904Y-69324180D01*
X193143095Y-68324180D02*
X192666904Y-68324180D01*
X192619285Y-68800371D01*
X192666904Y-68752752D01*
X192762142Y-68705133D01*
X193000238Y-68705133D01*
X193095476Y-68752752D01*
X193143095Y-68800371D01*
X193190714Y-68895609D01*
X193190714Y-69133704D01*
X193143095Y-69228942D01*
X193095476Y-69276561D01*
X193000238Y-69324180D01*
X192762142Y-69324180D01*
X192666904Y-69276561D01*
X192619285Y-69228942D01*
%TO.C,D7*%
X153150904Y-134183980D02*
X153150904Y-133183980D01*
X153389000Y-133183980D01*
X153531857Y-133231600D01*
X153627095Y-133326838D01*
X153674714Y-133422076D01*
X153722333Y-133612552D01*
X153722333Y-133755409D01*
X153674714Y-133945885D01*
X153627095Y-134041123D01*
X153531857Y-134136361D01*
X153389000Y-134183980D01*
X153150904Y-134183980D01*
X154055666Y-133183980D02*
X154722333Y-133183980D01*
X154293761Y-134183980D01*
%TO.C,C23*%
X171061142Y-71654942D02*
X171013523Y-71702561D01*
X170870666Y-71750180D01*
X170775428Y-71750180D01*
X170632571Y-71702561D01*
X170537333Y-71607323D01*
X170489714Y-71512085D01*
X170442095Y-71321609D01*
X170442095Y-71178752D01*
X170489714Y-70988276D01*
X170537333Y-70893038D01*
X170632571Y-70797800D01*
X170775428Y-70750180D01*
X170870666Y-70750180D01*
X171013523Y-70797800D01*
X171061142Y-70845419D01*
X171442095Y-70845419D02*
X171489714Y-70797800D01*
X171584952Y-70750180D01*
X171823047Y-70750180D01*
X171918285Y-70797800D01*
X171965904Y-70845419D01*
X172013523Y-70940657D01*
X172013523Y-71035895D01*
X171965904Y-71178752D01*
X171394476Y-71750180D01*
X172013523Y-71750180D01*
X172346857Y-70750180D02*
X172965904Y-70750180D01*
X172632571Y-71131133D01*
X172775428Y-71131133D01*
X172870666Y-71178752D01*
X172918285Y-71226371D01*
X172965904Y-71321609D01*
X172965904Y-71559704D01*
X172918285Y-71654942D01*
X172870666Y-71702561D01*
X172775428Y-71750180D01*
X172489714Y-71750180D01*
X172394476Y-71702561D01*
X172346857Y-71654942D01*
%TO.C,R11*%
X158234142Y-64892180D02*
X157900809Y-64415990D01*
X157662714Y-64892180D02*
X157662714Y-63892180D01*
X158043666Y-63892180D01*
X158138904Y-63939800D01*
X158186523Y-63987419D01*
X158234142Y-64082657D01*
X158234142Y-64225514D01*
X158186523Y-64320752D01*
X158138904Y-64368371D01*
X158043666Y-64415990D01*
X157662714Y-64415990D01*
X159186523Y-64892180D02*
X158615095Y-64892180D01*
X158900809Y-64892180D02*
X158900809Y-63892180D01*
X158805571Y-64035038D01*
X158710333Y-64130276D01*
X158615095Y-64177895D01*
X160138904Y-64892180D02*
X159567476Y-64892180D01*
X159853190Y-64892180D02*
X159853190Y-63892180D01*
X159757952Y-64035038D01*
X159662714Y-64130276D01*
X159567476Y-64177895D01*
%TO.C,R15*%
X186682142Y-69718180D02*
X186348809Y-69241990D01*
X186110714Y-69718180D02*
X186110714Y-68718180D01*
X186491666Y-68718180D01*
X186586904Y-68765800D01*
X186634523Y-68813419D01*
X186682142Y-68908657D01*
X186682142Y-69051514D01*
X186634523Y-69146752D01*
X186586904Y-69194371D01*
X186491666Y-69241990D01*
X186110714Y-69241990D01*
X187634523Y-69718180D02*
X187063095Y-69718180D01*
X187348809Y-69718180D02*
X187348809Y-68718180D01*
X187253571Y-68861038D01*
X187158333Y-68956276D01*
X187063095Y-69003895D01*
X188539285Y-68718180D02*
X188063095Y-68718180D01*
X188015476Y-69194371D01*
X188063095Y-69146752D01*
X188158333Y-69099133D01*
X188396428Y-69099133D01*
X188491666Y-69146752D01*
X188539285Y-69194371D01*
X188586904Y-69289609D01*
X188586904Y-69527704D01*
X188539285Y-69622942D01*
X188491666Y-69670561D01*
X188396428Y-69718180D01*
X188158333Y-69718180D01*
X188063095Y-69670561D01*
X188015476Y-69622942D01*
%TO.C,D1*%
X181957904Y-62046180D02*
X181957904Y-61046180D01*
X182196000Y-61046180D01*
X182338857Y-61093800D01*
X182434095Y-61189038D01*
X182481714Y-61284276D01*
X182529333Y-61474752D01*
X182529333Y-61617609D01*
X182481714Y-61808085D01*
X182434095Y-61903323D01*
X182338857Y-61998561D01*
X182196000Y-62046180D01*
X181957904Y-62046180D01*
X183481714Y-62046180D02*
X182910285Y-62046180D01*
X183196000Y-62046180D02*
X183196000Y-61046180D01*
X183100761Y-61189038D01*
X183005523Y-61284276D01*
X182910285Y-61331895D01*
%TO.C,R14*%
X186719642Y-73359180D02*
X186386309Y-72882990D01*
X186148214Y-73359180D02*
X186148214Y-72359180D01*
X186529166Y-72359180D01*
X186624404Y-72406800D01*
X186672023Y-72454419D01*
X186719642Y-72549657D01*
X186719642Y-72692514D01*
X186672023Y-72787752D01*
X186624404Y-72835371D01*
X186529166Y-72882990D01*
X186148214Y-72882990D01*
X187672023Y-73359180D02*
X187100595Y-73359180D01*
X187386309Y-73359180D02*
X187386309Y-72359180D01*
X187291071Y-72502038D01*
X187195833Y-72597276D01*
X187100595Y-72644895D01*
X188529166Y-72692514D02*
X188529166Y-73359180D01*
X188291071Y-72311561D02*
X188052976Y-73025847D01*
X188672023Y-73025847D01*
%TO.C,R21*%
X145521142Y-128445480D02*
X145187809Y-127969290D01*
X144949714Y-128445480D02*
X144949714Y-127445480D01*
X145330666Y-127445480D01*
X145425904Y-127493100D01*
X145473523Y-127540719D01*
X145521142Y-127635957D01*
X145521142Y-127778814D01*
X145473523Y-127874052D01*
X145425904Y-127921671D01*
X145330666Y-127969290D01*
X144949714Y-127969290D01*
X145902095Y-127540719D02*
X145949714Y-127493100D01*
X146044952Y-127445480D01*
X146283047Y-127445480D01*
X146378285Y-127493100D01*
X146425904Y-127540719D01*
X146473523Y-127635957D01*
X146473523Y-127731195D01*
X146425904Y-127874052D01*
X145854476Y-128445480D01*
X146473523Y-128445480D01*
X147425904Y-128445480D02*
X146854476Y-128445480D01*
X147140190Y-128445480D02*
X147140190Y-127445480D01*
X147044952Y-127588338D01*
X146949714Y-127683576D01*
X146854476Y-127731195D01*
%TO.C,J6*%
X159536539Y-62176329D02*
X159536539Y-62890615D01*
X159488920Y-63033472D01*
X159393682Y-63128710D01*
X159250825Y-63176329D01*
X159155587Y-63176329D01*
X160441301Y-62176329D02*
X160250825Y-62176329D01*
X160155587Y-62223949D01*
X160107968Y-62271568D01*
X160012730Y-62414425D01*
X159965111Y-62604901D01*
X159965111Y-62985853D01*
X160012730Y-63081091D01*
X160060349Y-63128710D01*
X160155587Y-63176329D01*
X160346063Y-63176329D01*
X160441301Y-63128710D01*
X160488920Y-63081091D01*
X160536539Y-62985853D01*
X160536539Y-62747758D01*
X160488920Y-62652520D01*
X160441301Y-62604901D01*
X160346063Y-62557282D01*
X160155587Y-62557282D01*
X160060349Y-62604901D01*
X160012730Y-62652520D01*
X159965111Y-62747758D01*
%TO.C,H5*%
X157988095Y-122414180D02*
X157988095Y-121414180D01*
X157988095Y-121890371D02*
X158559523Y-121890371D01*
X158559523Y-122414180D02*
X158559523Y-121414180D01*
X159511904Y-121414180D02*
X159035714Y-121414180D01*
X158988095Y-121890371D01*
X159035714Y-121842752D01*
X159130952Y-121795133D01*
X159369047Y-121795133D01*
X159464285Y-121842752D01*
X159511904Y-121890371D01*
X159559523Y-121985609D01*
X159559523Y-122223704D01*
X159511904Y-122318942D01*
X159464285Y-122366561D01*
X159369047Y-122414180D01*
X159130952Y-122414180D01*
X159035714Y-122366561D01*
X158988095Y-122318942D01*
%TO.C,J8*%
X185416866Y-134758180D02*
X185416866Y-135472466D01*
X185369247Y-135615323D01*
X185274009Y-135710561D01*
X185131152Y-135758180D01*
X185035914Y-135758180D01*
X186035914Y-135186752D02*
X185940676Y-135139133D01*
X185893057Y-135091514D01*
X185845438Y-134996276D01*
X185845438Y-134948657D01*
X185893057Y-134853419D01*
X185940676Y-134805800D01*
X186035914Y-134758180D01*
X186226390Y-134758180D01*
X186321628Y-134805800D01*
X186369247Y-134853419D01*
X186416866Y-134948657D01*
X186416866Y-134996276D01*
X186369247Y-135091514D01*
X186321628Y-135139133D01*
X186226390Y-135186752D01*
X186035914Y-135186752D01*
X185940676Y-135234371D01*
X185893057Y-135281990D01*
X185845438Y-135377228D01*
X185845438Y-135567704D01*
X185893057Y-135662942D01*
X185940676Y-135710561D01*
X186035914Y-135758180D01*
X186226390Y-135758180D01*
X186321628Y-135710561D01*
X186369247Y-135662942D01*
X186416866Y-135567704D01*
X186416866Y-135377228D01*
X186369247Y-135281990D01*
X186321628Y-135234371D01*
X186226390Y-135186752D01*
%TO.C,Y1*%
X154133609Y-76607990D02*
X154133609Y-77084180D01*
X153800276Y-76084180D02*
X154133609Y-76607990D01*
X154466942Y-76084180D01*
X155324085Y-77084180D02*
X154752657Y-77084180D01*
X155038371Y-77084180D02*
X155038371Y-76084180D01*
X154943133Y-76227038D01*
X154847895Y-76322276D01*
X154752657Y-76369895D01*
%TO.C,C22*%
X184650142Y-83338942D02*
X184602523Y-83386561D01*
X184459666Y-83434180D01*
X184364428Y-83434180D01*
X184221571Y-83386561D01*
X184126333Y-83291323D01*
X184078714Y-83196085D01*
X184031095Y-83005609D01*
X184031095Y-82862752D01*
X184078714Y-82672276D01*
X184126333Y-82577038D01*
X184221571Y-82481800D01*
X184364428Y-82434180D01*
X184459666Y-82434180D01*
X184602523Y-82481800D01*
X184650142Y-82529419D01*
X185031095Y-82529419D02*
X185078714Y-82481800D01*
X185173952Y-82434180D01*
X185412047Y-82434180D01*
X185507285Y-82481800D01*
X185554904Y-82529419D01*
X185602523Y-82624657D01*
X185602523Y-82719895D01*
X185554904Y-82862752D01*
X184983476Y-83434180D01*
X185602523Y-83434180D01*
X185983476Y-82529419D02*
X186031095Y-82481800D01*
X186126333Y-82434180D01*
X186364428Y-82434180D01*
X186459666Y-82481800D01*
X186507285Y-82529419D01*
X186554904Y-82624657D01*
X186554904Y-82719895D01*
X186507285Y-82862752D01*
X185935857Y-83434180D01*
X186554904Y-83434180D01*
%TO.C,J5*%
X116655666Y-108324180D02*
X116655666Y-109038466D01*
X116608047Y-109181323D01*
X116512809Y-109276561D01*
X116369952Y-109324180D01*
X116274714Y-109324180D01*
X117608047Y-108324180D02*
X117131857Y-108324180D01*
X117084238Y-108800371D01*
X117131857Y-108752752D01*
X117227095Y-108705133D01*
X117465190Y-108705133D01*
X117560428Y-108752752D01*
X117608047Y-108800371D01*
X117655666Y-108895609D01*
X117655666Y-109133704D01*
X117608047Y-109228942D01*
X117560428Y-109276561D01*
X117465190Y-109324180D01*
X117227095Y-109324180D01*
X117131857Y-109276561D01*
X117084238Y-109228942D01*
%TO.C,C16*%
X142642306Y-74508960D02*
X142594687Y-74556579D01*
X142451830Y-74604198D01*
X142356592Y-74604198D01*
X142213735Y-74556579D01*
X142118497Y-74461341D01*
X142070878Y-74366103D01*
X142023259Y-74175627D01*
X142023259Y-74032770D01*
X142070878Y-73842294D01*
X142118497Y-73747056D01*
X142213735Y-73651818D01*
X142356592Y-73604198D01*
X142451830Y-73604198D01*
X142594687Y-73651818D01*
X142642306Y-73699437D01*
X143594687Y-74604198D02*
X143023259Y-74604198D01*
X143308973Y-74604198D02*
X143308973Y-73604198D01*
X143213735Y-73747056D01*
X143118497Y-73842294D01*
X143023259Y-73889913D01*
X144451830Y-73604198D02*
X144261354Y-73604198D01*
X144166116Y-73651818D01*
X144118497Y-73699437D01*
X144023259Y-73842294D01*
X143975640Y-74032770D01*
X143975640Y-74413722D01*
X144023259Y-74508960D01*
X144070878Y-74556579D01*
X144166116Y-74604198D01*
X144356592Y-74604198D01*
X144451830Y-74556579D01*
X144499449Y-74508960D01*
X144547068Y-74413722D01*
X144547068Y-74175627D01*
X144499449Y-74080389D01*
X144451830Y-74032770D01*
X144356592Y-73985151D01*
X144166116Y-73985151D01*
X144070878Y-74032770D01*
X144023259Y-74080389D01*
X143975640Y-74175627D01*
%TO.C,J3*%
X189928666Y-121824180D02*
X189928666Y-122538466D01*
X189881047Y-122681323D01*
X189785809Y-122776561D01*
X189642952Y-122824180D01*
X189547714Y-122824180D01*
X190309619Y-121824180D02*
X190928666Y-121824180D01*
X190595333Y-122205133D01*
X190738190Y-122205133D01*
X190833428Y-122252752D01*
X190881047Y-122300371D01*
X190928666Y-122395609D01*
X190928666Y-122633704D01*
X190881047Y-122728942D01*
X190833428Y-122776561D01*
X190738190Y-122824180D01*
X190452476Y-122824180D01*
X190357238Y-122776561D01*
X190309619Y-122728942D01*
%TO.C,U8*%
X178689095Y-68874180D02*
X178689095Y-69683704D01*
X178736714Y-69778942D01*
X178784333Y-69826561D01*
X178879571Y-69874180D01*
X179070047Y-69874180D01*
X179165285Y-69826561D01*
X179212904Y-69778942D01*
X179260523Y-69683704D01*
X179260523Y-68874180D01*
X179879571Y-69302752D02*
X179784333Y-69255133D01*
X179736714Y-69207514D01*
X179689095Y-69112276D01*
X179689095Y-69064657D01*
X179736714Y-68969419D01*
X179784333Y-68921800D01*
X179879571Y-68874180D01*
X180070047Y-68874180D01*
X180165285Y-68921800D01*
X180212904Y-68969419D01*
X180260523Y-69064657D01*
X180260523Y-69112276D01*
X180212904Y-69207514D01*
X180165285Y-69255133D01*
X180070047Y-69302752D01*
X179879571Y-69302752D01*
X179784333Y-69350371D01*
X179736714Y-69397990D01*
X179689095Y-69493228D01*
X179689095Y-69683704D01*
X179736714Y-69778942D01*
X179784333Y-69826561D01*
X179879571Y-69874180D01*
X180070047Y-69874180D01*
X180165285Y-69826561D01*
X180212904Y-69778942D01*
X180260523Y-69683704D01*
X180260523Y-69493228D01*
X180212904Y-69397990D01*
X180165285Y-69350371D01*
X180070047Y-69302752D01*
%TO.C,H4*%
X189865095Y-93324180D02*
X189865095Y-92324180D01*
X189865095Y-92800371D02*
X190436523Y-92800371D01*
X190436523Y-93324180D02*
X190436523Y-92324180D01*
X191341285Y-92657514D02*
X191341285Y-93324180D01*
X191103190Y-92276561D02*
X190865095Y-92990847D01*
X191484142Y-92990847D01*
%TO.C,D4*%
X191676461Y-73185136D02*
X191676461Y-72185136D01*
X191914557Y-72185136D01*
X192057414Y-72232756D01*
X192152652Y-72327994D01*
X192200271Y-72423232D01*
X192247890Y-72613708D01*
X192247890Y-72756565D01*
X192200271Y-72947041D01*
X192152652Y-73042279D01*
X192057414Y-73137517D01*
X191914557Y-73185136D01*
X191676461Y-73185136D01*
X193105033Y-72518470D02*
X193105033Y-73185136D01*
X192866937Y-72137517D02*
X192628842Y-72851803D01*
X193247890Y-72851803D01*
%TO.C,R12*%
X158234142Y-68194180D02*
X157900809Y-67717990D01*
X157662714Y-68194180D02*
X157662714Y-67194180D01*
X158043666Y-67194180D01*
X158138904Y-67241800D01*
X158186523Y-67289419D01*
X158234142Y-67384657D01*
X158234142Y-67527514D01*
X158186523Y-67622752D01*
X158138904Y-67670371D01*
X158043666Y-67717990D01*
X157662714Y-67717990D01*
X159186523Y-68194180D02*
X158615095Y-68194180D01*
X158900809Y-68194180D02*
X158900809Y-67194180D01*
X158805571Y-67337038D01*
X158710333Y-67432276D01*
X158615095Y-67479895D01*
X159567476Y-67289419D02*
X159615095Y-67241800D01*
X159710333Y-67194180D01*
X159948428Y-67194180D01*
X160043666Y-67241800D01*
X160091285Y-67289419D01*
X160138904Y-67384657D01*
X160138904Y-67479895D01*
X160091285Y-67622752D01*
X159519857Y-68194180D01*
X160138904Y-68194180D01*
%TO.C,R3*%
X177152933Y-62046180D02*
X176819600Y-61569990D01*
X176581504Y-62046180D02*
X176581504Y-61046180D01*
X176962457Y-61046180D01*
X177057695Y-61093800D01*
X177105314Y-61141419D01*
X177152933Y-61236657D01*
X177152933Y-61379514D01*
X177105314Y-61474752D01*
X177057695Y-61522371D01*
X176962457Y-61569990D01*
X176581504Y-61569990D01*
X177486266Y-61046180D02*
X178105314Y-61046180D01*
X177771980Y-61427133D01*
X177914838Y-61427133D01*
X178010076Y-61474752D01*
X178057695Y-61522371D01*
X178105314Y-61617609D01*
X178105314Y-61855704D01*
X178057695Y-61950942D01*
X178010076Y-61998561D01*
X177914838Y-62046180D01*
X177629123Y-62046180D01*
X177533885Y-61998561D01*
X177486266Y-61950942D01*
%TO.C,H1*%
X138112095Y-119848780D02*
X138112095Y-118848780D01*
X138112095Y-119324971D02*
X138683523Y-119324971D01*
X138683523Y-119848780D02*
X138683523Y-118848780D01*
X139683523Y-119848780D02*
X139112095Y-119848780D01*
X139397809Y-119848780D02*
X139397809Y-118848780D01*
X139302571Y-118991638D01*
X139207333Y-119086876D01*
X139112095Y-119134495D01*
%TO.C,D6*%
X149750904Y-134308980D02*
X149750904Y-133308980D01*
X149989000Y-133308980D01*
X150131857Y-133356600D01*
X150227095Y-133451838D01*
X150274714Y-133547076D01*
X150322333Y-133737552D01*
X150322333Y-133880409D01*
X150274714Y-134070885D01*
X150227095Y-134166123D01*
X150131857Y-134261361D01*
X149989000Y-134308980D01*
X149750904Y-134308980D01*
X151179476Y-133308980D02*
X150989000Y-133308980D01*
X150893761Y-133356600D01*
X150846142Y-133404219D01*
X150750904Y-133547076D01*
X150703285Y-133737552D01*
X150703285Y-134118504D01*
X150750904Y-134213742D01*
X150798523Y-134261361D01*
X150893761Y-134308980D01*
X151084238Y-134308980D01*
X151179476Y-134261361D01*
X151227095Y-134213742D01*
X151274714Y-134118504D01*
X151274714Y-133880409D01*
X151227095Y-133785171D01*
X151179476Y-133737552D01*
X151084238Y-133689933D01*
X150893761Y-133689933D01*
X150798523Y-133737552D01*
X150750904Y-133785171D01*
X150703285Y-133880409D01*
%TO.C,J7*%
X160380466Y-135579580D02*
X160380466Y-136293866D01*
X160332847Y-136436723D01*
X160237609Y-136531961D01*
X160094752Y-136579580D01*
X159999514Y-136579580D01*
X160761419Y-135579580D02*
X161428085Y-135579580D01*
X160999514Y-136579580D01*
%TO.C,C17*%
X142564102Y-79420168D02*
X142516483Y-79467787D01*
X142373626Y-79515406D01*
X142278388Y-79515406D01*
X142135531Y-79467787D01*
X142040293Y-79372549D01*
X141992674Y-79277311D01*
X141945055Y-79086835D01*
X141945055Y-78943978D01*
X141992674Y-78753502D01*
X142040293Y-78658264D01*
X142135531Y-78563026D01*
X142278388Y-78515406D01*
X142373626Y-78515406D01*
X142516483Y-78563026D01*
X142564102Y-78610645D01*
X143516483Y-79515406D02*
X142945055Y-79515406D01*
X143230769Y-79515406D02*
X143230769Y-78515406D01*
X143135531Y-78658264D01*
X143040293Y-78753502D01*
X142945055Y-78801121D01*
X143849817Y-78515406D02*
X144516483Y-78515406D01*
X144087912Y-79515406D01*
%TO.C,R20*%
X152284414Y-128464937D02*
X151951081Y-127988747D01*
X151712986Y-128464937D02*
X151712986Y-127464937D01*
X152093938Y-127464937D01*
X152189176Y-127512557D01*
X152236795Y-127560176D01*
X152284414Y-127655414D01*
X152284414Y-127798271D01*
X152236795Y-127893509D01*
X152189176Y-127941128D01*
X152093938Y-127988747D01*
X151712986Y-127988747D01*
X152665367Y-127560176D02*
X152712986Y-127512557D01*
X152808224Y-127464937D01*
X153046319Y-127464937D01*
X153141557Y-127512557D01*
X153189176Y-127560176D01*
X153236795Y-127655414D01*
X153236795Y-127750652D01*
X153189176Y-127893509D01*
X152617748Y-128464937D01*
X153236795Y-128464937D01*
X153855843Y-127464937D02*
X153951081Y-127464937D01*
X154046319Y-127512557D01*
X154093938Y-127560176D01*
X154141557Y-127655414D01*
X154189176Y-127845890D01*
X154189176Y-128083985D01*
X154141557Y-128274461D01*
X154093938Y-128369699D01*
X154046319Y-128417318D01*
X153951081Y-128464937D01*
X153855843Y-128464937D01*
X153760605Y-128417318D01*
X153712986Y-128369699D01*
X153665367Y-128274461D01*
X153617748Y-128083985D01*
X153617748Y-127845890D01*
X153665367Y-127655414D01*
X153712986Y-127560176D01*
X153760605Y-127512557D01*
X153855843Y-127464937D01*
D11*
%TO.C,R29*%
X189637936Y-132030800D02*
X190092064Y-132030800D01*
X189637936Y-133500800D02*
X190092064Y-133500800D01*
%TO.C,C18*%
X154224000Y-68110548D02*
X154224000Y-68633052D01*
X152754000Y-68110548D02*
X152754000Y-68633052D01*
D10*
%TO.C,J4*%
X142271000Y-138083800D02*
X142271000Y-134083800D01*
X135271000Y-134083800D02*
X135271000Y-134383800D01*
X142271000Y-134083800D02*
X135271000Y-134083800D01*
X133271000Y-134383800D02*
X133271000Y-134083800D01*
X133271000Y-134083800D02*
X126271000Y-134083800D01*
X126271000Y-134083800D02*
X126271000Y-138083800D01*
X135271000Y-134383800D02*
X133271000Y-134383800D01*
X126271000Y-138083800D02*
X142271000Y-138083800D01*
D11*
%TO.C,J11*%
X125419000Y-65576800D02*
X133099000Y-65576800D01*
X133099000Y-65576800D02*
X133099000Y-62916800D01*
X125419000Y-62916800D02*
X133099000Y-62916800D01*
X122819000Y-65576800D02*
X122819000Y-64246800D01*
X125419000Y-65576800D02*
X125419000Y-62916800D01*
X124149000Y-65576800D02*
X122819000Y-65576800D01*
%TO.C,U7*%
X179966500Y-88232800D02*
X181916500Y-88232800D01*
X179966500Y-83112800D02*
X181916500Y-83112800D01*
X179966500Y-88232800D02*
X178016500Y-88232800D01*
X179966500Y-83112800D02*
X176516500Y-83112800D01*
%TO.C,C19*%
X170224000Y-76110548D02*
X170224000Y-76633052D01*
X168754000Y-76110548D02*
X168754000Y-76633052D01*
%TO.C,D8*%
X145804000Y-134934100D02*
X145804000Y-138994100D01*
X148074000Y-134934100D02*
X145804000Y-134934100D01*
X148074000Y-138994100D02*
X148074000Y-134934100D01*
%TO.C,R6*%
X149754000Y-130983664D02*
X149754000Y-130529536D01*
X151224000Y-130983664D02*
X151224000Y-130529536D01*
%TO.C,R13*%
X187113936Y-77386800D02*
X187568064Y-77386800D01*
X187113936Y-78856800D02*
X187568064Y-78856800D01*
D10*
%TO.C,U9*%
X165881000Y-70036800D02*
X165881000Y-70686800D01*
X160131000Y-80686800D02*
X160131000Y-80036800D01*
X160131000Y-80686800D02*
X165881000Y-80686800D01*
X160131000Y-70036800D02*
X160131000Y-70611800D01*
X165881000Y-80686800D02*
X165881000Y-80036800D01*
X160131000Y-70611800D02*
X158531000Y-70611800D01*
X160131000Y-70036800D02*
X165881000Y-70036800D01*
D11*
%TO.C,D3*%
X194736500Y-76986800D02*
X190676500Y-76986800D01*
X194736500Y-79256800D02*
X194736500Y-76986800D01*
X190676500Y-79256800D02*
X194736500Y-79256800D01*
%TO.C,D5*%
X194811500Y-72031800D02*
X194811500Y-69761800D01*
X194811500Y-69761800D02*
X190751500Y-69761800D01*
X190751500Y-72031800D02*
X194811500Y-72031800D01*
%TO.C,D7*%
X152754800Y-134881700D02*
X152754800Y-138941700D01*
X155024800Y-138941700D02*
X155024800Y-134881700D01*
X155024800Y-134881700D02*
X152754800Y-134881700D01*
%TO.C,C23*%
X173304000Y-72570552D02*
X173304000Y-72048048D01*
X174774000Y-72570552D02*
X174774000Y-72048048D01*
%TO.C,R11*%
X155261936Y-63636800D02*
X155716064Y-63636800D01*
X155261936Y-65106800D02*
X155716064Y-65106800D01*
%TO.C,R15*%
X187081936Y-70181800D02*
X187536064Y-70181800D01*
X187081936Y-71651800D02*
X187536064Y-71651800D01*
%TO.C,D1*%
X185150100Y-62236800D02*
X181090100Y-62236800D01*
X181090100Y-64506800D02*
X185150100Y-64506800D01*
X185150100Y-64506800D02*
X185150100Y-62236800D01*
%TO.C,R14*%
X187081936Y-73717800D02*
X187536064Y-73717800D01*
X187081936Y-75187800D02*
X187536064Y-75187800D01*
%TO.C,R21*%
X147649000Y-130983664D02*
X147649000Y-130529536D01*
X146179000Y-130983664D02*
X146179000Y-130529536D01*
%TO.C,J6*%
X172526000Y-61966800D02*
X173856000Y-61966800D01*
X171256000Y-64626800D02*
X161036000Y-64626800D01*
X171256000Y-61966800D02*
X161036000Y-61966800D01*
X161036000Y-61966800D02*
X161036000Y-64626800D01*
X171256000Y-61966800D02*
X171256000Y-64626800D01*
X173856000Y-61966800D02*
X173856000Y-63296800D01*
%TO.C,J8*%
X179376000Y-131435800D02*
X179376000Y-134095800D01*
X184516000Y-134095800D02*
X179376000Y-134095800D01*
X185786000Y-131435800D02*
X187116000Y-131435800D01*
X187116000Y-131435800D02*
X187116000Y-132765800D01*
X184516000Y-131435800D02*
X184516000Y-134095800D01*
X184516000Y-131435800D02*
X179376000Y-131435800D01*
%TO.C,Y1*%
X148224000Y-73421800D02*
X148224000Y-79821800D01*
X153274000Y-73421800D02*
X153274000Y-79821800D01*
X148224000Y-79821800D02*
G75*
G03*
X153274000Y-79821800I2525000J0D01*
G01*
X153274000Y-73421800D02*
G75*
G03*
X148224000Y-73421800I-2525000J0D01*
G01*
%TO.C,C22*%
X185724000Y-85995552D02*
X185724000Y-85473048D01*
X184254000Y-85995552D02*
X184254000Y-85473048D01*
D10*
%TO.C,J5*%
X119165559Y-91991413D02*
X115165559Y-91991413D01*
X115165559Y-100991413D02*
X115165559Y-107991413D01*
X115165559Y-98991413D02*
X115465559Y-98991413D01*
X115165559Y-107991413D02*
X119165559Y-107991413D01*
X115465559Y-100991413D02*
X115165559Y-100991413D01*
X115165559Y-91991413D02*
X115165559Y-98991413D01*
X115465559Y-98991413D02*
X115465559Y-100991413D01*
X119165559Y-107991413D02*
X119165559Y-91991413D01*
D11*
%TO.C,C16*%
X146664073Y-74443052D02*
X146664073Y-73920548D01*
X145194073Y-74443052D02*
X145194073Y-73920548D01*
D10*
%TO.C,J3*%
X192262000Y-112239800D02*
X192262000Y-105239800D01*
X192262000Y-105239800D02*
X188262000Y-105239800D01*
X192262000Y-114239800D02*
X191962000Y-114239800D01*
X192262000Y-121239800D02*
X192262000Y-114239800D01*
X188262000Y-121239800D02*
X192262000Y-121239800D01*
X191962000Y-112239800D02*
X192262000Y-112239800D01*
X191962000Y-114239800D02*
X191962000Y-112239800D01*
X188262000Y-105239800D02*
X188262000Y-121239800D01*
D11*
%TO.C,U8*%
X179451000Y-75381800D02*
X177501000Y-75381800D01*
X179451000Y-70261800D02*
X176001000Y-70261800D01*
X179451000Y-75381800D02*
X181401000Y-75381800D01*
X179451000Y-70261800D02*
X181401000Y-70261800D01*
%TO.C,D4*%
X190768500Y-75587800D02*
X194828500Y-75587800D01*
X194828500Y-75587800D02*
X194828500Y-73317800D01*
X194828500Y-73317800D02*
X190768500Y-73317800D01*
%TO.C,R12*%
X157224000Y-68644736D02*
X157224000Y-69098864D01*
X155754000Y-68644736D02*
X155754000Y-69098864D01*
%TO.C,R3*%
X177716064Y-64106800D02*
X177261936Y-64106800D01*
X177716064Y-62636800D02*
X177261936Y-62636800D01*
%TO.C,D6*%
X151624000Y-138984300D02*
X151624000Y-134924300D01*
X151624000Y-134924300D02*
X149354000Y-134924300D01*
X149354000Y-134924300D02*
X149354000Y-138984300D01*
D10*
%TO.C,J7*%
X169053000Y-134367800D02*
X169053000Y-134067800D01*
X178053000Y-134067800D02*
X171053000Y-134067800D01*
X169053000Y-134067800D02*
X162053000Y-134067800D01*
X171053000Y-134067800D02*
X171053000Y-134367800D01*
X162053000Y-134067800D02*
X162053000Y-138067800D01*
X178053000Y-138067800D02*
X178053000Y-134067800D01*
X171053000Y-134367800D02*
X169053000Y-134367800D01*
X162053000Y-138067800D02*
X178053000Y-138067800D01*
%TO.C,G\u002A\u002A\u002A*%
G36*
X131727826Y-76378309D02*
G01*
X131766499Y-76385169D01*
X131827137Y-76396430D01*
X131907071Y-76411580D01*
X132003631Y-76430112D01*
X132114150Y-76451514D01*
X132235957Y-76475279D01*
X132366384Y-76500896D01*
X132368621Y-76501337D01*
X132529787Y-76533317D01*
X132665383Y-76560733D01*
X132777225Y-76584000D01*
X132867128Y-76603529D01*
X132936911Y-76619735D01*
X132988389Y-76633030D01*
X133023380Y-76643827D01*
X133043698Y-76652539D01*
X133048637Y-76655978D01*
X133073580Y-76682823D01*
X133111885Y-76729681D01*
X133161326Y-76793502D01*
X133219680Y-76871236D01*
X133284721Y-76959833D01*
X133354225Y-77056244D01*
X133425966Y-77157418D01*
X133497721Y-77260307D01*
X133567263Y-77361860D01*
X133610979Y-77426837D01*
X133817516Y-77745038D01*
X134019870Y-78073922D01*
X134215741Y-78409228D01*
X134402830Y-78746695D01*
X134578836Y-79082064D01*
X134741459Y-79411073D01*
X134888401Y-79729462D01*
X135015996Y-80029603D01*
X135048165Y-80111630D01*
X135083132Y-80205245D01*
X135119254Y-80305606D01*
X135154893Y-80407868D01*
X135188406Y-80507187D01*
X135218153Y-80598722D01*
X135242493Y-80677628D01*
X135259785Y-80739061D01*
X135267210Y-80771114D01*
X135275726Y-80804400D01*
X135284673Y-80822059D01*
X135286586Y-80822918D01*
X135299941Y-80812838D01*
X135328577Y-80784654D01*
X135369724Y-80741451D01*
X135420609Y-80686316D01*
X135478464Y-80622332D01*
X135540517Y-80552586D01*
X135603997Y-80480163D01*
X135666135Y-80408148D01*
X135724160Y-80339626D01*
X135766531Y-80288449D01*
X135896295Y-80124650D01*
X136015792Y-79962615D01*
X136129267Y-79795994D01*
X136240968Y-79618439D01*
X136355140Y-79423599D01*
X136408056Y-79329312D01*
X136447459Y-79259883D01*
X136482764Y-79200702D01*
X136511673Y-79155380D01*
X136531888Y-79127528D01*
X136540951Y-79120545D01*
X136551485Y-79136662D01*
X136572118Y-79172065D01*
X136599843Y-79221482D01*
X136630789Y-79278042D01*
X136784610Y-79549802D01*
X136940926Y-79799989D01*
X137103853Y-80034820D01*
X137277507Y-80260509D01*
X137299107Y-80287083D01*
X137351994Y-80350791D01*
X137411201Y-80420450D01*
X137473966Y-80492981D01*
X137537523Y-80565306D01*
X137599111Y-80634347D01*
X137655965Y-80697027D01*
X137705322Y-80750266D01*
X137744417Y-80790988D01*
X137770488Y-80816113D01*
X137780198Y-80822918D01*
X137788690Y-80810731D01*
X137797652Y-80780507D01*
X137799574Y-80771114D01*
X137810404Y-80726221D01*
X137829530Y-80660170D01*
X137855312Y-80577804D01*
X137886109Y-80483967D01*
X137920280Y-80383503D01*
X137956184Y-80281256D01*
X137992179Y-80182067D01*
X138026626Y-80090782D01*
X138050788Y-80029603D01*
X138177417Y-79731772D01*
X138321750Y-79418891D01*
X138481468Y-79095253D01*
X138654256Y-78765149D01*
X138837798Y-78432871D01*
X139029777Y-78102712D01*
X139227877Y-77778962D01*
X139429782Y-77465913D01*
X139454423Y-77428871D01*
X139521188Y-77330014D01*
X139591655Y-77227758D01*
X139663602Y-77125148D01*
X139734809Y-77025229D01*
X139803057Y-76931048D01*
X139866123Y-76845648D01*
X139921789Y-76772077D01*
X139967833Y-76713378D01*
X140002036Y-76672598D01*
X140017539Y-76656528D01*
X140032245Y-76648591D01*
X140062014Y-76638502D01*
X140108546Y-76625874D01*
X140173536Y-76610323D01*
X140258681Y-76591464D01*
X140365680Y-76568911D01*
X140496228Y-76542279D01*
X140652023Y-76511183D01*
X140697555Y-76502186D01*
X140828165Y-76476497D01*
X140950200Y-76452643D01*
X141060995Y-76431133D01*
X141157880Y-76412480D01*
X141238188Y-76397194D01*
X141299251Y-76385785D01*
X141338403Y-76378765D01*
X141352974Y-76376644D01*
X141352996Y-76376656D01*
X141350174Y-76390056D01*
X141341147Y-76427661D01*
X141326616Y-76486712D01*
X141307280Y-76564447D01*
X141283840Y-76658108D01*
X141256997Y-76764933D01*
X141227450Y-76882164D01*
X141195899Y-77007038D01*
X141163046Y-77136797D01*
X141129590Y-77268680D01*
X141096231Y-77399927D01*
X141063670Y-77527777D01*
X141032607Y-77649472D01*
X141003743Y-77762250D01*
X140977777Y-77863351D01*
X140955409Y-77950015D01*
X140937341Y-78019483D01*
X140924272Y-78068993D01*
X140916902Y-78095786D01*
X140916584Y-78096851D01*
X140919963Y-78107452D01*
X140936568Y-78123565D01*
X140968550Y-78146602D01*
X141018063Y-78177977D01*
X141087259Y-78219102D01*
X141178291Y-78271391D01*
X141209363Y-78289003D01*
X141291822Y-78336050D01*
X141365601Y-78378940D01*
X141427421Y-78415701D01*
X141474005Y-78444364D01*
X141502074Y-78462958D01*
X141509008Y-78469169D01*
X141497582Y-78477992D01*
X141464251Y-78501064D01*
X141410438Y-78537445D01*
X141337566Y-78586196D01*
X141247056Y-78646377D01*
X141140332Y-78717050D01*
X141018816Y-78797274D01*
X140883930Y-78886110D01*
X140737096Y-78982619D01*
X140579738Y-79085862D01*
X140413278Y-79194898D01*
X140239137Y-79308789D01*
X140103471Y-79397400D01*
X139924451Y-79514374D01*
X139752033Y-79627252D01*
X139587643Y-79735090D01*
X139432704Y-79836945D01*
X139288638Y-79931874D01*
X139156869Y-80018934D01*
X139038820Y-80097183D01*
X138935914Y-80165677D01*
X138849576Y-80223472D01*
X138781228Y-80269627D01*
X138732293Y-80303198D01*
X138704195Y-80323242D01*
X138697651Y-80328836D01*
X138701666Y-80344740D01*
X138713243Y-80384266D01*
X138731487Y-80444515D01*
X138755506Y-80522588D01*
X138784406Y-80615588D01*
X138817293Y-80720615D01*
X138853274Y-80834770D01*
X138866230Y-80875704D01*
X138902806Y-80992053D01*
X138936214Y-81100085D01*
X138965609Y-81196938D01*
X138990149Y-81279752D01*
X139008990Y-81345667D01*
X139021289Y-81391822D01*
X139026203Y-81415357D01*
X139026012Y-81417732D01*
X139011164Y-81417444D01*
X138970655Y-81414003D01*
X138906456Y-81407632D01*
X138820537Y-81398550D01*
X138714866Y-81386979D01*
X138591415Y-81373139D01*
X138452154Y-81357252D01*
X138299051Y-81339537D01*
X138134078Y-81320217D01*
X137959204Y-81299512D01*
X137776399Y-81277643D01*
X137775162Y-81277494D01*
X136533392Y-81128178D01*
X135317069Y-81274781D01*
X135135474Y-81296624D01*
X134961350Y-81317484D01*
X134796741Y-81337118D01*
X134643688Y-81355289D01*
X134504236Y-81371757D01*
X134380427Y-81386281D01*
X134274303Y-81398621D01*
X134187909Y-81408539D01*
X134123287Y-81415793D01*
X134082480Y-81420145D01*
X134067945Y-81421384D01*
X134042747Y-81417207D01*
X134035145Y-81409833D01*
X134039221Y-81394446D01*
X134050849Y-81355438D01*
X134069129Y-81295708D01*
X134093160Y-81218158D01*
X134122044Y-81125686D01*
X134154879Y-81021194D01*
X134190767Y-80907580D01*
X134202159Y-80871631D01*
X134238818Y-80755657D01*
X134272690Y-80647778D01*
X134302874Y-80550916D01*
X134328468Y-80467997D01*
X134348572Y-80401945D01*
X134362284Y-80355686D01*
X134368703Y-80332143D01*
X134369072Y-80329949D01*
X134357630Y-80320572D01*
X134324279Y-80296960D01*
X134270440Y-80260058D01*
X134197539Y-80210809D01*
X134106998Y-80150157D01*
X134000239Y-80079049D01*
X133878686Y-79998426D01*
X133743762Y-79909235D01*
X133596890Y-79812419D01*
X133439493Y-79708922D01*
X133272995Y-79599689D01*
X133098817Y-79485665D01*
X132963374Y-79397160D01*
X132784382Y-79280205D01*
X132611995Y-79167401D01*
X132447636Y-79059685D01*
X132292728Y-78957997D01*
X132148692Y-78863277D01*
X132016950Y-78776464D01*
X131898925Y-78698497D01*
X131796039Y-78630314D01*
X131709715Y-78572857D01*
X131641374Y-78527062D01*
X131592439Y-78493871D01*
X131564332Y-78474222D01*
X131557776Y-78468929D01*
X131569384Y-78459482D01*
X131602026Y-78438444D01*
X131652422Y-78407784D01*
X131717296Y-78369469D01*
X131793369Y-78325467D01*
X131857421Y-78289003D01*
X131955248Y-78233182D01*
X132030610Y-78188937D01*
X132085659Y-78154856D01*
X132122547Y-78129525D01*
X132143427Y-78111533D01*
X132150453Y-78099465D01*
X132150200Y-78096851D01*
X132143265Y-78071817D01*
X132130580Y-78023861D01*
X132112846Y-77955744D01*
X132090763Y-77870225D01*
X132065031Y-77770067D01*
X132036351Y-77658028D01*
X132005422Y-77536870D01*
X131972945Y-77409353D01*
X131939619Y-77278238D01*
X131906146Y-77146284D01*
X131873225Y-77016252D01*
X131841557Y-76890904D01*
X131811842Y-76772998D01*
X131784779Y-76665296D01*
X131761070Y-76570558D01*
X131741414Y-76491545D01*
X131726512Y-76431017D01*
X131717063Y-76391734D01*
X131713768Y-76376457D01*
X131713787Y-76376357D01*
X131727826Y-76378309D01*
G37*
D12*
X131727826Y-76378309D02*
X131766499Y-76385169D01*
X131827137Y-76396430D01*
X131907071Y-76411580D01*
X132003631Y-76430112D01*
X132114150Y-76451514D01*
X132235957Y-76475279D01*
X132366384Y-76500896D01*
X132368621Y-76501337D01*
X132529787Y-76533317D01*
X132665383Y-76560733D01*
X132777225Y-76584000D01*
X132867128Y-76603529D01*
X132936911Y-76619735D01*
X132988389Y-76633030D01*
X133023380Y-76643827D01*
X133043698Y-76652539D01*
X133048637Y-76655978D01*
X133073580Y-76682823D01*
X133111885Y-76729681D01*
X133161326Y-76793502D01*
X133219680Y-76871236D01*
X133284721Y-76959833D01*
X133354225Y-77056244D01*
X133425966Y-77157418D01*
X133497721Y-77260307D01*
X133567263Y-77361860D01*
X133610979Y-77426837D01*
X133817516Y-77745038D01*
X134019870Y-78073922D01*
X134215741Y-78409228D01*
X134402830Y-78746695D01*
X134578836Y-79082064D01*
X134741459Y-79411073D01*
X134888401Y-79729462D01*
X135015996Y-80029603D01*
X135048165Y-80111630D01*
X135083132Y-80205245D01*
X135119254Y-80305606D01*
X135154893Y-80407868D01*
X135188406Y-80507187D01*
X135218153Y-80598722D01*
X135242493Y-80677628D01*
X135259785Y-80739061D01*
X135267210Y-80771114D01*
X135275726Y-80804400D01*
X135284673Y-80822059D01*
X135286586Y-80822918D01*
X135299941Y-80812838D01*
X135328577Y-80784654D01*
X135369724Y-80741451D01*
X135420609Y-80686316D01*
X135478464Y-80622332D01*
X135540517Y-80552586D01*
X135603997Y-80480163D01*
X135666135Y-80408148D01*
X135724160Y-80339626D01*
X135766531Y-80288449D01*
X135896295Y-80124650D01*
X136015792Y-79962615D01*
X136129267Y-79795994D01*
X136240968Y-79618439D01*
X136355140Y-79423599D01*
X136408056Y-79329312D01*
X136447459Y-79259883D01*
X136482764Y-79200702D01*
X136511673Y-79155380D01*
X136531888Y-79127528D01*
X136540951Y-79120545D01*
X136551485Y-79136662D01*
X136572118Y-79172065D01*
X136599843Y-79221482D01*
X136630789Y-79278042D01*
X136784610Y-79549802D01*
X136940926Y-79799989D01*
X137103853Y-80034820D01*
X137277507Y-80260509D01*
X137299107Y-80287083D01*
X137351994Y-80350791D01*
X137411201Y-80420450D01*
X137473966Y-80492981D01*
X137537523Y-80565306D01*
X137599111Y-80634347D01*
X137655965Y-80697027D01*
X137705322Y-80750266D01*
X137744417Y-80790988D01*
X137770488Y-80816113D01*
X137780198Y-80822918D01*
X137788690Y-80810731D01*
X137797652Y-80780507D01*
X137799574Y-80771114D01*
X137810404Y-80726221D01*
X137829530Y-80660170D01*
X137855312Y-80577804D01*
X137886109Y-80483967D01*
X137920280Y-80383503D01*
X137956184Y-80281256D01*
X137992179Y-80182067D01*
X138026626Y-80090782D01*
X138050788Y-80029603D01*
X138177417Y-79731772D01*
X138321750Y-79418891D01*
X138481468Y-79095253D01*
X138654256Y-78765149D01*
X138837798Y-78432871D01*
X139029777Y-78102712D01*
X139227877Y-77778962D01*
X139429782Y-77465913D01*
X139454423Y-77428871D01*
X139521188Y-77330014D01*
X139591655Y-77227758D01*
X139663602Y-77125148D01*
X139734809Y-77025229D01*
X139803057Y-76931048D01*
X139866123Y-76845648D01*
X139921789Y-76772077D01*
X139967833Y-76713378D01*
X140002036Y-76672598D01*
X140017539Y-76656528D01*
X140032245Y-76648591D01*
X140062014Y-76638502D01*
X140108546Y-76625874D01*
X140173536Y-76610323D01*
X140258681Y-76591464D01*
X140365680Y-76568911D01*
X140496228Y-76542279D01*
X140652023Y-76511183D01*
X140697555Y-76502186D01*
X140828165Y-76476497D01*
X140950200Y-76452643D01*
X141060995Y-76431133D01*
X141157880Y-76412480D01*
X141238188Y-76397194D01*
X141299251Y-76385785D01*
X141338403Y-76378765D01*
X141352974Y-76376644D01*
X141352996Y-76376656D01*
X141350174Y-76390056D01*
X141341147Y-76427661D01*
X141326616Y-76486712D01*
X141307280Y-76564447D01*
X141283840Y-76658108D01*
X141256997Y-76764933D01*
X141227450Y-76882164D01*
X141195899Y-77007038D01*
X141163046Y-77136797D01*
X141129590Y-77268680D01*
X141096231Y-77399927D01*
X141063670Y-77527777D01*
X141032607Y-77649472D01*
X141003743Y-77762250D01*
X140977777Y-77863351D01*
X140955409Y-77950015D01*
X140937341Y-78019483D01*
X140924272Y-78068993D01*
X140916902Y-78095786D01*
X140916584Y-78096851D01*
X140919963Y-78107452D01*
X140936568Y-78123565D01*
X140968550Y-78146602D01*
X141018063Y-78177977D01*
X141087259Y-78219102D01*
X141178291Y-78271391D01*
X141209363Y-78289003D01*
X141291822Y-78336050D01*
X141365601Y-78378940D01*
X141427421Y-78415701D01*
X141474005Y-78444364D01*
X141502074Y-78462958D01*
X141509008Y-78469169D01*
X141497582Y-78477992D01*
X141464251Y-78501064D01*
X141410438Y-78537445D01*
X141337566Y-78586196D01*
X141247056Y-78646377D01*
X141140332Y-78717050D01*
X141018816Y-78797274D01*
X140883930Y-78886110D01*
X140737096Y-78982619D01*
X140579738Y-79085862D01*
X140413278Y-79194898D01*
X140239137Y-79308789D01*
X140103471Y-79397400D01*
X139924451Y-79514374D01*
X139752033Y-79627252D01*
X139587643Y-79735090D01*
X139432704Y-79836945D01*
X139288638Y-79931874D01*
X139156869Y-80018934D01*
X139038820Y-80097183D01*
X138935914Y-80165677D01*
X138849576Y-80223472D01*
X138781228Y-80269627D01*
X138732293Y-80303198D01*
X138704195Y-80323242D01*
X138697651Y-80328836D01*
X138701666Y-80344740D01*
X138713243Y-80384266D01*
X138731487Y-80444515D01*
X138755506Y-80522588D01*
X138784406Y-80615588D01*
X138817293Y-80720615D01*
X138853274Y-80834770D01*
X138866230Y-80875704D01*
X138902806Y-80992053D01*
X138936214Y-81100085D01*
X138965609Y-81196938D01*
X138990149Y-81279752D01*
X139008990Y-81345667D01*
X139021289Y-81391822D01*
X139026203Y-81415357D01*
X139026012Y-81417732D01*
X139011164Y-81417444D01*
X138970655Y-81414003D01*
X138906456Y-81407632D01*
X138820537Y-81398550D01*
X138714866Y-81386979D01*
X138591415Y-81373139D01*
X138452154Y-81357252D01*
X138299051Y-81339537D01*
X138134078Y-81320217D01*
X137959204Y-81299512D01*
X137776399Y-81277643D01*
X137775162Y-81277494D01*
X136533392Y-81128178D01*
X135317069Y-81274781D01*
X135135474Y-81296624D01*
X134961350Y-81317484D01*
X134796741Y-81337118D01*
X134643688Y-81355289D01*
X134504236Y-81371757D01*
X134380427Y-81386281D01*
X134274303Y-81398621D01*
X134187909Y-81408539D01*
X134123287Y-81415793D01*
X134082480Y-81420145D01*
X134067945Y-81421384D01*
X134042747Y-81417207D01*
X134035145Y-81409833D01*
X134039221Y-81394446D01*
X134050849Y-81355438D01*
X134069129Y-81295708D01*
X134093160Y-81218158D01*
X134122044Y-81125686D01*
X134154879Y-81021194D01*
X134190767Y-80907580D01*
X134202159Y-80871631D01*
X134238818Y-80755657D01*
X134272690Y-80647778D01*
X134302874Y-80550916D01*
X134328468Y-80467997D01*
X134348572Y-80401945D01*
X134362284Y-80355686D01*
X134368703Y-80332143D01*
X134369072Y-80329949D01*
X134357630Y-80320572D01*
X134324279Y-80296960D01*
X134270440Y-80260058D01*
X134197539Y-80210809D01*
X134106998Y-80150157D01*
X134000239Y-80079049D01*
X133878686Y-79998426D01*
X133743762Y-79909235D01*
X133596890Y-79812419D01*
X133439493Y-79708922D01*
X133272995Y-79599689D01*
X133098817Y-79485665D01*
X132963374Y-79397160D01*
X132784382Y-79280205D01*
X132611995Y-79167401D01*
X132447636Y-79059685D01*
X132292728Y-78957997D01*
X132148692Y-78863277D01*
X132016950Y-78776464D01*
X131898925Y-78698497D01*
X131796039Y-78630314D01*
X131709715Y-78572857D01*
X131641374Y-78527062D01*
X131592439Y-78493871D01*
X131564332Y-78474222D01*
X131557776Y-78468929D01*
X131569384Y-78459482D01*
X131602026Y-78438444D01*
X131652422Y-78407784D01*
X131717296Y-78369469D01*
X131793369Y-78325467D01*
X131857421Y-78289003D01*
X131955248Y-78233182D01*
X132030610Y-78188937D01*
X132085659Y-78154856D01*
X132122547Y-78129525D01*
X132143427Y-78111533D01*
X132150453Y-78099465D01*
X132150200Y-78096851D01*
X132143265Y-78071817D01*
X132130580Y-78023861D01*
X132112846Y-77955744D01*
X132090763Y-77870225D01*
X132065031Y-77770067D01*
X132036351Y-77658028D01*
X132005422Y-77536870D01*
X131972945Y-77409353D01*
X131939619Y-77278238D01*
X131906146Y-77146284D01*
X131873225Y-77016252D01*
X131841557Y-76890904D01*
X131811842Y-76772998D01*
X131784779Y-76665296D01*
X131761070Y-76570558D01*
X131741414Y-76491545D01*
X131726512Y-76431017D01*
X131717063Y-76391734D01*
X131713768Y-76376457D01*
X131713787Y-76376357D01*
X131727826Y-76378309D01*
G36*
X134695139Y-75646596D02*
G01*
X134677396Y-75460632D01*
X134660608Y-75282590D01*
X134644947Y-75114415D01*
X134630585Y-74958055D01*
X134617695Y-74815456D01*
X134606449Y-74688565D01*
X134597019Y-74579328D01*
X134589577Y-74489692D01*
X134584295Y-74421603D01*
X134581346Y-74377009D01*
X134580902Y-74357854D01*
X134581079Y-74357277D01*
X134595404Y-74360626D01*
X134632308Y-74374033D01*
X134688905Y-74396318D01*
X134762308Y-74426302D01*
X134849630Y-74462805D01*
X134947983Y-74504647D01*
X135054481Y-74550648D01*
X135056682Y-74551606D01*
X135163204Y-74597910D01*
X135261444Y-74640508D01*
X135348538Y-74678167D01*
X135421625Y-74709654D01*
X135477843Y-74733736D01*
X135514330Y-74749179D01*
X135528223Y-74754752D01*
X135528251Y-74754754D01*
X135535602Y-74742891D01*
X135555352Y-74708576D01*
X135586437Y-74653714D01*
X135627787Y-74580213D01*
X135678337Y-74489982D01*
X135737019Y-74384927D01*
X135802766Y-74266956D01*
X135874512Y-74137977D01*
X135951188Y-73999896D01*
X136026255Y-73864502D01*
X136106730Y-73719582D01*
X136183496Y-73581992D01*
X136255465Y-73453641D01*
X136321549Y-73336442D01*
X136380659Y-73232303D01*
X136431708Y-73143134D01*
X136473607Y-73070846D01*
X136505268Y-73017348D01*
X136525602Y-72984552D01*
X136533392Y-72974303D01*
X136542261Y-72986180D01*
X136563464Y-73020508D01*
X136595899Y-73075358D01*
X136638467Y-73148800D01*
X136690067Y-73238907D01*
X136749599Y-73343750D01*
X136815963Y-73461399D01*
X136888059Y-73589926D01*
X136964785Y-73727403D01*
X137031327Y-73847157D01*
X137111171Y-73991103D01*
X137187228Y-74128159D01*
X137258398Y-74256346D01*
X137323580Y-74373681D01*
X137381671Y-74478186D01*
X137431571Y-74567879D01*
X137472178Y-74640780D01*
X137502392Y-74694909D01*
X137521111Y-74728286D01*
X137527100Y-74738764D01*
X137535547Y-74741571D01*
X137555252Y-74738270D01*
X137588259Y-74728072D01*
X137636613Y-74710187D01*
X137702356Y-74683826D01*
X137787535Y-74648201D01*
X137894193Y-74602522D01*
X138007998Y-74553140D01*
X138114891Y-74506889D01*
X138213698Y-74464766D01*
X138301542Y-74427950D01*
X138375546Y-74397620D01*
X138432831Y-74374955D01*
X138470519Y-74361133D01*
X138485734Y-74357334D01*
X138485832Y-74357404D01*
X138485793Y-74372216D01*
X138483223Y-74412786D01*
X138478292Y-74477168D01*
X138471175Y-74563414D01*
X138462043Y-74669579D01*
X138451068Y-74793716D01*
X138438423Y-74933879D01*
X138424281Y-75088121D01*
X138408813Y-75254497D01*
X138392193Y-75431060D01*
X138374592Y-75615863D01*
X138371645Y-75646596D01*
X138353874Y-75832485D01*
X138336997Y-76010397D01*
X138321191Y-76178390D01*
X138306631Y-76334524D01*
X138293496Y-76476858D01*
X138281961Y-76603452D01*
X138272202Y-76712365D01*
X138264398Y-76801655D01*
X138258724Y-76869383D01*
X138255356Y-76913608D01*
X138254473Y-76932389D01*
X138254578Y-76932908D01*
X138265736Y-76924991D01*
X138295808Y-76900143D01*
X138342946Y-76859975D01*
X138405300Y-76806096D01*
X138481024Y-76740115D01*
X138568268Y-76663642D01*
X138665184Y-76578288D01*
X138769923Y-76485661D01*
X138862555Y-76403449D01*
X138972649Y-76305757D01*
X139076632Y-76213816D01*
X139172633Y-76129260D01*
X139258781Y-76053722D01*
X139333202Y-75988835D01*
X139394027Y-75936231D01*
X139439382Y-75897544D01*
X139467397Y-75874405D01*
X139476139Y-75868179D01*
X139480388Y-75871295D01*
X139486917Y-75882186D01*
X139496631Y-75903165D01*
X139510435Y-75936547D01*
X139529234Y-75984646D01*
X139553934Y-76049774D01*
X139585439Y-76134247D01*
X139624655Y-76240377D01*
X139669939Y-76363536D01*
X139711286Y-76476154D01*
X139592685Y-76612974D01*
X139439665Y-76793981D01*
X139279166Y-76992160D01*
X139113440Y-77204290D01*
X138944739Y-77427152D01*
X138775312Y-77657526D01*
X138607412Y-77892191D01*
X138443290Y-78127928D01*
X138285197Y-78361516D01*
X138135385Y-78589736D01*
X137996105Y-78809367D01*
X137869607Y-79017189D01*
X137758144Y-79209983D01*
X137690817Y-79333243D01*
X137615234Y-79475615D01*
X137569322Y-79408885D01*
X137481800Y-79272160D01*
X137391110Y-79112814D01*
X137299432Y-78935544D01*
X137208947Y-78745044D01*
X137121837Y-78546012D01*
X137040282Y-78343144D01*
X136966464Y-78141135D01*
X136930048Y-78032398D01*
X136864382Y-77818330D01*
X136798655Y-77583164D01*
X136734522Y-77333581D01*
X136673642Y-77076266D01*
X136617670Y-76817901D01*
X136574125Y-76596764D01*
X136534691Y-76385897D01*
X136463040Y-76742901D01*
X136383859Y-77114674D01*
X136300447Y-77460950D01*
X136212053Y-77783846D01*
X136117927Y-78085482D01*
X136017318Y-78367976D01*
X135909476Y-78633447D01*
X135793651Y-78884014D01*
X135669093Y-79121797D01*
X135546970Y-79329747D01*
X135513720Y-79382578D01*
X135485296Y-79426081D01*
X135465147Y-79455081D01*
X135457325Y-79464348D01*
X135446994Y-79455648D01*
X135427764Y-79427049D01*
X135402906Y-79383688D01*
X135388358Y-79356067D01*
X135307463Y-79205338D01*
X135210215Y-79036492D01*
X135098591Y-78852360D01*
X134974565Y-78655773D01*
X134840114Y-78449564D01*
X134697214Y-78236563D01*
X134547841Y-78019602D01*
X134393971Y-77801514D01*
X134237580Y-77585128D01*
X134080644Y-77373278D01*
X133925139Y-77168795D01*
X133773041Y-76974509D01*
X133626326Y-76793254D01*
X133486970Y-76627859D01*
X133474099Y-76612974D01*
X133355498Y-76476154D01*
X133396845Y-76363536D01*
X133444241Y-76234641D01*
X133483064Y-76129606D01*
X133514216Y-76046118D01*
X133538602Y-75981865D01*
X133557126Y-75934534D01*
X133570692Y-75901813D01*
X133580204Y-75881390D01*
X133586566Y-75870952D01*
X133590497Y-75868179D01*
X133602677Y-75877171D01*
X133633760Y-75903059D01*
X133681872Y-75944211D01*
X133745143Y-75998996D01*
X133821700Y-76065781D01*
X133909672Y-76142935D01*
X134007188Y-76228825D01*
X134112375Y-76321821D01*
X134204235Y-76403294D01*
X134314160Y-76500751D01*
X134417806Y-76592294D01*
X134513325Y-76676315D01*
X134598869Y-76751205D01*
X134672589Y-76815353D01*
X134732637Y-76867150D01*
X134777165Y-76904988D01*
X134804323Y-76927257D01*
X134812361Y-76932753D01*
X134811882Y-76918388D01*
X134808892Y-76878257D01*
X134803566Y-76814302D01*
X134796083Y-76728463D01*
X134786619Y-76622679D01*
X134775350Y-76498892D01*
X134762454Y-76359042D01*
X134748108Y-76205069D01*
X134732487Y-76038913D01*
X134715770Y-75862516D01*
X134713610Y-75839887D01*
X136027672Y-75839887D01*
X136032758Y-75841372D01*
X136053209Y-75826310D01*
X136084768Y-75797897D01*
X136088852Y-75793981D01*
X136138088Y-75752996D01*
X136199269Y-75710985D01*
X136255036Y-75679227D01*
X136379257Y-75632057D01*
X136505355Y-75611918D01*
X136630579Y-75618390D01*
X136752176Y-75651055D01*
X136867394Y-75709495D01*
X136967337Y-75787476D01*
X137002956Y-75819208D01*
X137028240Y-75838618D01*
X137039016Y-75842617D01*
X137038794Y-75840343D01*
X137033426Y-75823604D01*
X137020526Y-75782672D01*
X137000840Y-75719932D01*
X136975114Y-75637766D01*
X136944092Y-75538561D01*
X136908521Y-75424698D01*
X136869146Y-75298563D01*
X136826713Y-75162539D01*
X136784192Y-75026151D01*
X136739727Y-74883570D01*
X136697748Y-74749112D01*
X136658979Y-74625092D01*
X136624146Y-74513826D01*
X136593975Y-74417626D01*
X136569193Y-74338808D01*
X136550524Y-74279686D01*
X136538695Y-74242575D01*
X136534441Y-74229794D01*
X136529972Y-74242145D01*
X136517963Y-74278790D01*
X136499136Y-74337442D01*
X136474215Y-74415814D01*
X136443922Y-74511618D01*
X136408981Y-74622569D01*
X136370115Y-74746379D01*
X136328047Y-74880761D01*
X136283599Y-75023109D01*
X136238835Y-75166587D01*
X136196414Y-75302434D01*
X136157080Y-75428271D01*
X136121579Y-75541723D01*
X136090656Y-75640412D01*
X136065055Y-75721960D01*
X136045520Y-75783991D01*
X136032798Y-75824127D01*
X136027672Y-75839887D01*
X134713610Y-75839887D01*
X134698133Y-75677817D01*
X134695139Y-75646596D01*
G37*
X134695139Y-75646596D02*
X134677396Y-75460632D01*
X134660608Y-75282590D01*
X134644947Y-75114415D01*
X134630585Y-74958055D01*
X134617695Y-74815456D01*
X134606449Y-74688565D01*
X134597019Y-74579328D01*
X134589577Y-74489692D01*
X134584295Y-74421603D01*
X134581346Y-74377009D01*
X134580902Y-74357854D01*
X134581079Y-74357277D01*
X134595404Y-74360626D01*
X134632308Y-74374033D01*
X134688905Y-74396318D01*
X134762308Y-74426302D01*
X134849630Y-74462805D01*
X134947983Y-74504647D01*
X135054481Y-74550648D01*
X135056682Y-74551606D01*
X135163204Y-74597910D01*
X135261444Y-74640508D01*
X135348538Y-74678167D01*
X135421625Y-74709654D01*
X135477843Y-74733736D01*
X135514330Y-74749179D01*
X135528223Y-74754752D01*
X135528251Y-74754754D01*
X135535602Y-74742891D01*
X135555352Y-74708576D01*
X135586437Y-74653714D01*
X135627787Y-74580213D01*
X135678337Y-74489982D01*
X135737019Y-74384927D01*
X135802766Y-74266956D01*
X135874512Y-74137977D01*
X135951188Y-73999896D01*
X136026255Y-73864502D01*
X136106730Y-73719582D01*
X136183496Y-73581992D01*
X136255465Y-73453641D01*
X136321549Y-73336442D01*
X136380659Y-73232303D01*
X136431708Y-73143134D01*
X136473607Y-73070846D01*
X136505268Y-73017348D01*
X136525602Y-72984552D01*
X136533392Y-72974303D01*
X136542261Y-72986180D01*
X136563464Y-73020508D01*
X136595899Y-73075358D01*
X136638467Y-73148800D01*
X136690067Y-73238907D01*
X136749599Y-73343750D01*
X136815963Y-73461399D01*
X136888059Y-73589926D01*
X136964785Y-73727403D01*
X137031327Y-73847157D01*
X137111171Y-73991103D01*
X137187228Y-74128159D01*
X137258398Y-74256346D01*
X137323580Y-74373681D01*
X137381671Y-74478186D01*
X137431571Y-74567879D01*
X137472178Y-74640780D01*
X137502392Y-74694909D01*
X137521111Y-74728286D01*
X137527100Y-74738764D01*
X137535547Y-74741571D01*
X137555252Y-74738270D01*
X137588259Y-74728072D01*
X137636613Y-74710187D01*
X137702356Y-74683826D01*
X137787535Y-74648201D01*
X137894193Y-74602522D01*
X138007998Y-74553140D01*
X138114891Y-74506889D01*
X138213698Y-74464766D01*
X138301542Y-74427950D01*
X138375546Y-74397620D01*
X138432831Y-74374955D01*
X138470519Y-74361133D01*
X138485734Y-74357334D01*
X138485832Y-74357404D01*
X138485793Y-74372216D01*
X138483223Y-74412786D01*
X138478292Y-74477168D01*
X138471175Y-74563414D01*
X138462043Y-74669579D01*
X138451068Y-74793716D01*
X138438423Y-74933879D01*
X138424281Y-75088121D01*
X138408813Y-75254497D01*
X138392193Y-75431060D01*
X138374592Y-75615863D01*
X138371645Y-75646596D01*
X138353874Y-75832485D01*
X138336997Y-76010397D01*
X138321191Y-76178390D01*
X138306631Y-76334524D01*
X138293496Y-76476858D01*
X138281961Y-76603452D01*
X138272202Y-76712365D01*
X138264398Y-76801655D01*
X138258724Y-76869383D01*
X138255356Y-76913608D01*
X138254473Y-76932389D01*
X138254578Y-76932908D01*
X138265736Y-76924991D01*
X138295808Y-76900143D01*
X138342946Y-76859975D01*
X138405300Y-76806096D01*
X138481024Y-76740115D01*
X138568268Y-76663642D01*
X138665184Y-76578288D01*
X138769923Y-76485661D01*
X138862555Y-76403449D01*
X138972649Y-76305757D01*
X139076632Y-76213816D01*
X139172633Y-76129260D01*
X139258781Y-76053722D01*
X139333202Y-75988835D01*
X139394027Y-75936231D01*
X139439382Y-75897544D01*
X139467397Y-75874405D01*
X139476139Y-75868179D01*
X139480388Y-75871295D01*
X139486917Y-75882186D01*
X139496631Y-75903165D01*
X139510435Y-75936547D01*
X139529234Y-75984646D01*
X139553934Y-76049774D01*
X139585439Y-76134247D01*
X139624655Y-76240377D01*
X139669939Y-76363536D01*
X139711286Y-76476154D01*
X139592685Y-76612974D01*
X139439665Y-76793981D01*
X139279166Y-76992160D01*
X139113440Y-77204290D01*
X138944739Y-77427152D01*
X138775312Y-77657526D01*
X138607412Y-77892191D01*
X138443290Y-78127928D01*
X138285197Y-78361516D01*
X138135385Y-78589736D01*
X137996105Y-78809367D01*
X137869607Y-79017189D01*
X137758144Y-79209983D01*
X137690817Y-79333243D01*
X137615234Y-79475615D01*
X137569322Y-79408885D01*
X137481800Y-79272160D01*
X137391110Y-79112814D01*
X137299432Y-78935544D01*
X137208947Y-78745044D01*
X137121837Y-78546012D01*
X137040282Y-78343144D01*
X136966464Y-78141135D01*
X136930048Y-78032398D01*
X136864382Y-77818330D01*
X136798655Y-77583164D01*
X136734522Y-77333581D01*
X136673642Y-77076266D01*
X136617670Y-76817901D01*
X136574125Y-76596764D01*
X136534691Y-76385897D01*
X136463040Y-76742901D01*
X136383859Y-77114674D01*
X136300447Y-77460950D01*
X136212053Y-77783846D01*
X136117927Y-78085482D01*
X136017318Y-78367976D01*
X135909476Y-78633447D01*
X135793651Y-78884014D01*
X135669093Y-79121797D01*
X135546970Y-79329747D01*
X135513720Y-79382578D01*
X135485296Y-79426081D01*
X135465147Y-79455081D01*
X135457325Y-79464348D01*
X135446994Y-79455648D01*
X135427764Y-79427049D01*
X135402906Y-79383688D01*
X135388358Y-79356067D01*
X135307463Y-79205338D01*
X135210215Y-79036492D01*
X135098591Y-78852360D01*
X134974565Y-78655773D01*
X134840114Y-78449564D01*
X134697214Y-78236563D01*
X134547841Y-78019602D01*
X134393971Y-77801514D01*
X134237580Y-77585128D01*
X134080644Y-77373278D01*
X133925139Y-77168795D01*
X133773041Y-76974509D01*
X133626326Y-76793254D01*
X133486970Y-76627859D01*
X133474099Y-76612974D01*
X133355498Y-76476154D01*
X133396845Y-76363536D01*
X133444241Y-76234641D01*
X133483064Y-76129606D01*
X133514216Y-76046118D01*
X133538602Y-75981865D01*
X133557126Y-75934534D01*
X133570692Y-75901813D01*
X133580204Y-75881390D01*
X133586566Y-75870952D01*
X133590497Y-75868179D01*
X133602677Y-75877171D01*
X133633760Y-75903059D01*
X133681872Y-75944211D01*
X133745143Y-75998996D01*
X133821700Y-76065781D01*
X133909672Y-76142935D01*
X134007188Y-76228825D01*
X134112375Y-76321821D01*
X134204235Y-76403294D01*
X134314160Y-76500751D01*
X134417806Y-76592294D01*
X134513325Y-76676315D01*
X134598869Y-76751205D01*
X134672589Y-76815353D01*
X134732637Y-76867150D01*
X134777165Y-76904988D01*
X134804323Y-76927257D01*
X134812361Y-76932753D01*
X134811882Y-76918388D01*
X134808892Y-76878257D01*
X134803566Y-76814302D01*
X134796083Y-76728463D01*
X134786619Y-76622679D01*
X134775350Y-76498892D01*
X134762454Y-76359042D01*
X134748108Y-76205069D01*
X134732487Y-76038913D01*
X134715770Y-75862516D01*
X134713610Y-75839887D01*
X136027672Y-75839887D01*
X136032758Y-75841372D01*
X136053209Y-75826310D01*
X136084768Y-75797897D01*
X136088852Y-75793981D01*
X136138088Y-75752996D01*
X136199269Y-75710985D01*
X136255036Y-75679227D01*
X136379257Y-75632057D01*
X136505355Y-75611918D01*
X136630579Y-75618390D01*
X136752176Y-75651055D01*
X136867394Y-75709495D01*
X136967337Y-75787476D01*
X137002956Y-75819208D01*
X137028240Y-75838618D01*
X137039016Y-75842617D01*
X137038794Y-75840343D01*
X137033426Y-75823604D01*
X137020526Y-75782672D01*
X137000840Y-75719932D01*
X136975114Y-75637766D01*
X136944092Y-75538561D01*
X136908521Y-75424698D01*
X136869146Y-75298563D01*
X136826713Y-75162539D01*
X136784192Y-75026151D01*
X136739727Y-74883570D01*
X136697748Y-74749112D01*
X136658979Y-74625092D01*
X136624146Y-74513826D01*
X136593975Y-74417626D01*
X136569193Y-74338808D01*
X136550524Y-74279686D01*
X136538695Y-74242575D01*
X136534441Y-74229794D01*
X136529972Y-74242145D01*
X136517963Y-74278790D01*
X136499136Y-74337442D01*
X136474215Y-74415814D01*
X136443922Y-74511618D01*
X136408981Y-74622569D01*
X136370115Y-74746379D01*
X136328047Y-74880761D01*
X136283599Y-75023109D01*
X136238835Y-75166587D01*
X136196414Y-75302434D01*
X136157080Y-75428271D01*
X136121579Y-75541723D01*
X136090656Y-75640412D01*
X136065055Y-75721960D01*
X136045520Y-75783991D01*
X136032798Y-75824127D01*
X136027672Y-75839887D01*
X134713610Y-75839887D01*
X134698133Y-75677817D01*
X134695139Y-75646596D01*
D11*
%TO.C,C17*%
X146630995Y-78798777D02*
X146630995Y-79321281D01*
X145160995Y-78798777D02*
X145160995Y-79321281D01*
%TO.C,R20*%
X153104000Y-130429536D02*
X153104000Y-130883664D01*
X154574000Y-130429536D02*
X154574000Y-130883664D01*
%TD*%
M02*
