M48
; DRILL file {KiCad (6.0.9-0)} date Saturday, December 17, 2022 at 09:57:25 am
; FORMAT={-:-/ absolute / inch / decimal}
; #@! TF.CreationDate,2022-12-17T09:57:25-08:00
; #@! TF.GenerationSoftware,Kicad,Pcbnew,(6.0.9-0)
; #@! TF.FileFunction,Plated,1,4,PTH
FMAT,2
INCH
; #@! TA.AperFunction,Plated,PTH,ViaDrill
T1C0.0157
; #@! TA.AperFunction,Plated,PTH,ComponentDrill
T2C0.0197
; #@! TA.AperFunction,Plated,PTH,ComponentDrill
T3C0.0268
; #@! TA.AperFunction,Plated,PTH,ComponentDrill
T4C0.0295
; #@! TA.AperFunction,Plated,PTH,ComponentDrill
T5C0.0315
; #@! TA.AperFunction,Plated,PTH,ComponentDrill
T6C0.0394
; #@! TA.AperFunction,Plated,PTH,ComponentDrill
T7C0.1260
; #@! TA.AperFunction,Plated,PTH,ComponentDrill
T8C0.1378
%
G90
G05
T1
X5.1482Y-4.3909
X5.161Y-3.1977
X5.1763Y-5.0915
X5.2055Y-5.0622
X5.2248Y-3.2851
X5.23Y-4.267
X5.2838Y-2.8922
X5.3706Y-3.3404
X5.4799Y-4.3139
X5.5263Y-3.497
X5.5755Y-3.6946
X5.615Y-2.447
X5.6423Y-2.802
X5.6511Y-4.2804
X5.6637Y-2.8513
X5.672Y-3.6484
X5.6859Y-4.6795
X5.71Y-4.012
X5.7428Y-3.258
X5.7433Y-3.2087
X5.7456Y-2.8229
X5.7732Y-4.8522
X5.7794Y-2.787
X5.7841Y-3.258
X5.8019Y-2.7134
X5.825Y-2.787
X5.825Y-3.257
X5.8549Y-5.4678
X5.8618Y-4.4595
X5.8643Y-4.5556
X5.865Y-2.787
X5.865Y-3.257
X5.8716Y-4.6042
X5.905Y-2.787
X5.905Y-3.257
X5.9277Y-4.3965
X5.945Y-2.787
X5.945Y-3.257
X5.9769Y-4.5776
X5.9769Y-4.6219
X5.985Y-2.787
X5.985Y-3.257
X5.9937Y-5.4678
X6.0015Y-4.4398
X6.0015Y-4.8188
X6.025Y-2.787
X6.025Y-3.257
X6.0291Y-3.2989
X6.0291Y-4.5796
X6.0301Y-4.6239
X6.0419Y-4.4831
X6.0507Y-4.054
X6.0666Y-2.8817
X6.0822Y-2.4753
X6.098Y-2.9414
X6.1Y-3.5776
X6.1027Y-4.5036
X6.1137Y-4.8119
X6.1512Y-3.7511
X6.1525Y-2.9542
X6.1698Y-2.9133
X6.1748Y-4.077
X6.1962Y-2.8489
X6.2062Y-3.1259
X6.2417Y-4.241
X6.285Y-3.6948
X6.3319Y-5.2137
X6.3319Y-5.255
X6.3421Y-4.244
X6.3527Y-2.9803
X6.3765Y-4.5973
X6.4297Y-2.9566
X6.4572Y-2.8266
X6.475Y-2.8916
X6.4809Y-3.1003
X6.4927Y-2.9566
X6.5193Y-4.1131
X6.5193Y-4.1642
X6.5202Y-4.2184
X6.5626Y-3.8877
X6.5931Y-3.2056
X6.6049Y-3.3562
X6.6324Y-3.2912
X6.6334Y-2.74
X6.67Y-4.002
X6.7322Y-3.0186
X6.7323Y-2.9472
X6.7515Y-2.8444
X6.787Y-4.1534
X6.7899Y-3.9989
X6.8141Y-4.6647
X6.815Y-4.7041
X6.8332Y-3.9989
X6.8516Y-2.7597
X6.855Y-4.867
X6.8613Y-4.6637
X6.8613Y-4.7041
X6.8696Y-3.4201
X6.8756Y-3.9989
X6.8915Y-2.7722
X6.9061Y-3.3434
X6.9139Y-3.2184
X6.9179Y-3.4172
X6.9208Y-3.9979
X6.9277Y-3.1692
X6.9283Y-4.5198
X6.9287Y-3.1091
X6.9484Y-2.554
X6.9671Y-3.9979
X6.9677Y-4.0839
X6.9878Y-3.243
X7.0527Y-3.239
X7.0685Y-4.7548
X7.0814Y-2.9424
X7.0817Y-2.8463
X7.0817Y-2.8877
X7.0981Y-3.3523
X7.0981Y-3.3936
X7.1019Y-3.994
X7.1132Y-4.375
X7.1244Y-3.8446
X7.125Y-4.867
X7.163Y-2.7459
X7.1689Y-4.5511
X7.196Y-4.3067
X7.2252Y-4.3359
X7.2267Y-3.5501
X7.2503Y-2.4186
X7.2712Y-4.715
X7.3277Y-4.4095
X7.347Y-3.3355
X7.349Y-3.3867
X7.3691Y-4.4095
X7.4317Y-3.2371
X7.515Y-5.162
T2
X4.5141Y-2.5293
X4.5147Y-5.4425
X4.5444Y-2.4562
X4.5444Y-2.6023
X4.5449Y-5.3694
X4.5449Y-5.5156
X4.6175Y-2.4259
X4.6175Y-2.6326
X4.618Y-5.3392
X4.618Y-5.5459
X4.6906Y-2.4562
X4.6906Y-2.6023
X4.6911Y-5.3694
X4.6911Y-5.5156
X4.7208Y-2.5293
X4.7214Y-5.4425
X7.4281Y-2.5293
X7.4281Y-5.4425
X7.4584Y-2.4562
X7.4584Y-2.6023
X7.4584Y-5.3694
X7.4584Y-5.5156
X7.5315Y-2.4259
X7.5315Y-2.6326
X7.5315Y-5.3392
X7.5315Y-5.5459
X7.6045Y-2.4562
X7.6045Y-2.6023
X7.6045Y-5.3694
X7.6045Y-5.5156
X7.6348Y-2.5293
X7.6348Y-5.4425
T3
X4.5734Y-3.8579
X4.5734Y-3.9367
X4.5734Y-4.0154
X4.6522Y-3.8579
X4.6522Y-3.9367
X4.6522Y-4.0154
X5.2075Y-5.3183
X5.2075Y-5.397
X5.2863Y-5.3183
X5.2863Y-5.397
X5.365Y-5.3183
X5.365Y-5.397
X5.5763Y-2.5776
X5.5763Y-2.6564
X5.655Y-2.5776
X5.655Y-2.6564
X5.7337Y-2.5776
X5.7337Y-2.6564
X6.6163Y-5.3176
X6.6163Y-5.3964
X6.695Y-5.3176
X6.695Y-5.3964
X6.7737Y-5.3176
X6.7737Y-5.3964
X7.4513Y-4.3795
X7.4513Y-4.4583
X7.4513Y-4.537
X7.53Y-4.3795
X7.53Y-4.4583
X7.53Y-4.537
T4
X6.5468Y-4.8326
X6.6256Y-4.8326
T5
X5.935Y-2.9205
X5.935Y-3.1127
T6
X4.8878Y-2.5294
X4.9878Y-2.5294
X5.0Y-4.3296
X5.0878Y-2.5294
X5.1878Y-2.5294
X5.5311Y-2.7902
X5.8027Y-3.9379
X6.3924Y-2.492
X6.4924Y-2.492
X6.5924Y-2.492
X6.605Y-4.157
X6.6924Y-2.492
X6.7924Y-2.492
X7.1144Y-5.227
X7.1377Y-2.617
X7.2144Y-5.227
X7.3144Y-5.227
T7
X4.6175Y-3.466
X5.4675Y-4.866
X6.25Y-4.967
X7.5Y-3.467
T8
X4.6175Y-2.5293
X4.618Y-5.4425
X7.5315Y-2.5293
X7.5315Y-5.4425
T0
M30
