%TF.GenerationSoftware,KiCad,Pcbnew,(6.0.5)*%
%TF.CreationDate,2022-12-19T19:55:07-05:00*%
%TF.ProjectId,GrandPapa_Board,4772616e-6450-4617-9061-5f426f617264,rev?*%
%TF.SameCoordinates,Original*%
%TF.FileFunction,Legend,Bot*%
%TF.FilePolarity,Positive*%
%FSLAX46Y46*%
G04 Gerber Fmt 4.6, Leading zero omitted, Abs format (unit mm)*
G04 Created by KiCad (PCBNEW (6.0.5)) date 2022-12-19 19:55:07*
%MOMM*%
%LPD*%
G01*
G04 APERTURE LIST*
%ADD10C,0.150000*%
%ADD11C,0.120000*%
G04 APERTURE END LIST*
D10*
X146623000Y-64146085D02*
X146651571Y-64174657D01*
X146737285Y-64203228D01*
X146794428Y-64203228D01*
X146880142Y-64174657D01*
X146937285Y-64117514D01*
X146965857Y-64060371D01*
X146994428Y-63946085D01*
X146994428Y-63860371D01*
X146965857Y-63746085D01*
X146937285Y-63688942D01*
X146880142Y-63631800D01*
X146794428Y-63603228D01*
X146737285Y-63603228D01*
X146651571Y-63631800D01*
X146623000Y-63660371D01*
X146394428Y-64031800D02*
X146108714Y-64031800D01*
X146451571Y-64203228D02*
X146251571Y-63603228D01*
X146051571Y-64203228D01*
X145851571Y-64203228D02*
X145851571Y-63603228D01*
X145508714Y-64203228D01*
X145508714Y-63603228D01*
X145223000Y-64203228D02*
X145223000Y-63603228D01*
X145223000Y-63888942D02*
X144880142Y-63888942D01*
X144880142Y-64203228D02*
X144880142Y-63603228D01*
X185061119Y-66924180D02*
X185394452Y-66447990D01*
X185632547Y-66924180D02*
X185632547Y-65924180D01*
X185251595Y-65924180D01*
X185156357Y-65971800D01*
X185108738Y-66019419D01*
X185061119Y-66114657D01*
X185061119Y-66257514D01*
X185108738Y-66352752D01*
X185156357Y-66400371D01*
X185251595Y-66447990D01*
X185632547Y-66447990D01*
X184299214Y-66400371D02*
X184156357Y-66447990D01*
X184108738Y-66495609D01*
X184061119Y-66590847D01*
X184061119Y-66733704D01*
X184108738Y-66828942D01*
X184156357Y-66876561D01*
X184251595Y-66924180D01*
X184632547Y-66924180D01*
X184632547Y-65924180D01*
X184299214Y-65924180D01*
X184203976Y-65971800D01*
X184156357Y-66019419D01*
X184108738Y-66114657D01*
X184108738Y-66209895D01*
X184156357Y-66305133D01*
X184203976Y-66352752D01*
X184299214Y-66400371D01*
X184632547Y-66400371D01*
X183156357Y-65924180D02*
X183632547Y-65924180D01*
X183680166Y-66400371D01*
X183632547Y-66352752D01*
X183537309Y-66305133D01*
X183299214Y-66305133D01*
X183203976Y-66352752D01*
X183156357Y-66400371D01*
X183108738Y-66495609D01*
X183108738Y-66733704D01*
X183156357Y-66828942D01*
X183203976Y-66876561D01*
X183299214Y-66924180D01*
X183537309Y-66924180D01*
X183632547Y-66876561D01*
X183680166Y-66828942D01*
X139048904Y-71115228D02*
X138287000Y-71115228D01*
X138667952Y-71496180D02*
X138667952Y-70734276D01*
X137287000Y-71496180D02*
X137858428Y-71496180D01*
X137572714Y-71496180D02*
X137572714Y-70496180D01*
X137667952Y-70639038D01*
X137763190Y-70734276D01*
X137858428Y-70781895D01*
X136906047Y-70591419D02*
X136858428Y-70543800D01*
X136763190Y-70496180D01*
X136525095Y-70496180D01*
X136429857Y-70543800D01*
X136382238Y-70591419D01*
X136334619Y-70686657D01*
X136334619Y-70781895D01*
X136382238Y-70924752D01*
X136953666Y-71496180D01*
X136334619Y-71496180D01*
X136048904Y-70496180D02*
X135715571Y-71496180D01*
X135382238Y-70496180D01*
X182009598Y-130275895D02*
X181666740Y-130275895D01*
X181838169Y-130875895D02*
X181838169Y-130275895D01*
X181466740Y-130875895D02*
X181466740Y-130275895D01*
X181466740Y-130561609D02*
X181123883Y-130561609D01*
X181123883Y-130875895D02*
X181123883Y-130275895D01*
X180838169Y-130561609D02*
X180638169Y-130561609D01*
X180552455Y-130875895D02*
X180838169Y-130875895D01*
X180838169Y-130275895D01*
X180552455Y-130275895D01*
X179952455Y-130875895D02*
X180152455Y-130590181D01*
X180295312Y-130875895D02*
X180295312Y-130275895D01*
X180066740Y-130275895D01*
X180009598Y-130304467D01*
X179981026Y-130333038D01*
X179952455Y-130390181D01*
X179952455Y-130475895D01*
X179981026Y-130533038D01*
X180009598Y-130561609D01*
X180066740Y-130590181D01*
X180295312Y-130590181D01*
X179695312Y-130875895D02*
X179695312Y-130275895D01*
X179495312Y-130704467D01*
X179295312Y-130275895D01*
X179295312Y-130875895D01*
X141808142Y-68711800D02*
X141865285Y-68683228D01*
X141951000Y-68683228D01*
X142036714Y-68711800D01*
X142093857Y-68768942D01*
X142122428Y-68826085D01*
X142151000Y-68940371D01*
X142151000Y-69026085D01*
X142122428Y-69140371D01*
X142093857Y-69197514D01*
X142036714Y-69254657D01*
X141951000Y-69283228D01*
X141893857Y-69283228D01*
X141808142Y-69254657D01*
X141779571Y-69226085D01*
X141779571Y-69026085D01*
X141893857Y-69026085D01*
X141522428Y-69283228D02*
X141522428Y-68683228D01*
X141179571Y-69283228D01*
X141179571Y-68683228D01*
X140893857Y-69283228D02*
X140893857Y-68683228D01*
X140751000Y-68683228D01*
X140665285Y-68711800D01*
X140608142Y-68768942D01*
X140579571Y-68826085D01*
X140551000Y-68940371D01*
X140551000Y-69026085D01*
X140579571Y-69140371D01*
X140608142Y-69197514D01*
X140665285Y-69254657D01*
X140751000Y-69283228D01*
X140893857Y-69283228D01*
X146726142Y-69054657D02*
X146269000Y-69054657D01*
X146497571Y-69283228D02*
X146497571Y-68826085D01*
X145669000Y-69283228D02*
X146011857Y-69283228D01*
X145840428Y-69283228D02*
X145840428Y-68683228D01*
X145897571Y-68768942D01*
X145954714Y-68826085D01*
X146011857Y-68854657D01*
X145440428Y-68740371D02*
X145411857Y-68711800D01*
X145354714Y-68683228D01*
X145211857Y-68683228D01*
X145154714Y-68711800D01*
X145126142Y-68740371D01*
X145097571Y-68797514D01*
X145097571Y-68854657D01*
X145126142Y-68940371D01*
X145469000Y-69283228D01*
X145097571Y-69283228D01*
X144926142Y-68683228D02*
X144726142Y-69283228D01*
X144526142Y-68683228D01*
X169179714Y-109215228D02*
X168417809Y-109215228D01*
X168798761Y-109596180D02*
X168798761Y-108834276D01*
X167465428Y-108596180D02*
X167941619Y-108596180D01*
X167989238Y-109072371D01*
X167941619Y-109024752D01*
X167846380Y-108977133D01*
X167608285Y-108977133D01*
X167513047Y-109024752D01*
X167465428Y-109072371D01*
X167417809Y-109167609D01*
X167417809Y-109405704D01*
X167465428Y-109500942D01*
X167513047Y-109548561D01*
X167608285Y-109596180D01*
X167846380Y-109596180D01*
X167941619Y-109548561D01*
X167989238Y-109500942D01*
X167132095Y-108596180D02*
X166798761Y-109596180D01*
X166465428Y-108596180D01*
X129076200Y-107742028D02*
X128314295Y-107742028D01*
X128695247Y-108122980D02*
X128695247Y-107361076D01*
X127409533Y-107456314D02*
X127409533Y-108122980D01*
X127647628Y-107075361D02*
X127885723Y-107789647D01*
X127266676Y-107789647D01*
X126885723Y-108027742D02*
X126838104Y-108075361D01*
X126885723Y-108122980D01*
X126933342Y-108075361D01*
X126885723Y-108027742D01*
X126885723Y-108122980D01*
X125933342Y-107122980D02*
X126409533Y-107122980D01*
X126457152Y-107599171D01*
X126409533Y-107551552D01*
X126314295Y-107503933D01*
X126076200Y-107503933D01*
X125980961Y-107551552D01*
X125933342Y-107599171D01*
X125885723Y-107694409D01*
X125885723Y-107932504D01*
X125933342Y-108027742D01*
X125980961Y-108075361D01*
X126076200Y-108122980D01*
X126314295Y-108122980D01*
X126409533Y-108075361D01*
X126457152Y-108027742D01*
X125600009Y-107122980D02*
X125266676Y-108122980D01*
X124933342Y-107122980D01*
X130317571Y-61399800D02*
X130412809Y-61352180D01*
X130555666Y-61352180D01*
X130698523Y-61399800D01*
X130793761Y-61495038D01*
X130841380Y-61590276D01*
X130889000Y-61780752D01*
X130889000Y-61923609D01*
X130841380Y-62114085D01*
X130793761Y-62209323D01*
X130698523Y-62304561D01*
X130555666Y-62352180D01*
X130460428Y-62352180D01*
X130317571Y-62304561D01*
X130269952Y-62256942D01*
X130269952Y-61923609D01*
X130460428Y-61923609D01*
X129841380Y-62352180D02*
X129841380Y-61352180D01*
X129269952Y-62352180D01*
X129269952Y-61352180D01*
X128793761Y-62352180D02*
X128793761Y-61352180D01*
X128555666Y-61352180D01*
X128412809Y-61399800D01*
X128317571Y-61495038D01*
X128269952Y-61590276D01*
X128222333Y-61780752D01*
X128222333Y-61923609D01*
X128269952Y-62114085D01*
X128317571Y-62209323D01*
X128412809Y-62304561D01*
X128555666Y-62352180D01*
X128793761Y-62352180D01*
X127174714Y-61352180D02*
X126603285Y-61352180D01*
X126889000Y-62352180D02*
X126889000Y-61352180D01*
X126269952Y-62352180D02*
X126269952Y-61352180D01*
X125889000Y-61352180D01*
X125793761Y-61399800D01*
X125746142Y-61447419D01*
X125698523Y-61542657D01*
X125698523Y-61685514D01*
X125746142Y-61780752D01*
X125793761Y-61828371D01*
X125889000Y-61875990D01*
X126269952Y-61875990D01*
X125317571Y-62304561D02*
X125222333Y-62352180D01*
X125031857Y-62352180D01*
X124936619Y-62304561D01*
X124889000Y-62209323D01*
X124889000Y-62161704D01*
X124936619Y-62066466D01*
X125031857Y-62018847D01*
X125174714Y-62018847D01*
X125269952Y-61971228D01*
X125317571Y-61875990D01*
X125317571Y-61828371D01*
X125269952Y-61733133D01*
X125174714Y-61685514D01*
X125031857Y-61685514D01*
X124936619Y-61733133D01*
X143757571Y-64146085D02*
X143786142Y-64174657D01*
X143871857Y-64203228D01*
X143929000Y-64203228D01*
X144014714Y-64174657D01*
X144071857Y-64117514D01*
X144100428Y-64060371D01*
X144129000Y-63946085D01*
X144129000Y-63860371D01*
X144100428Y-63746085D01*
X144071857Y-63688942D01*
X144014714Y-63631800D01*
X143929000Y-63603228D01*
X143871857Y-63603228D01*
X143786142Y-63631800D01*
X143757571Y-63660371D01*
X143529000Y-64031800D02*
X143243285Y-64031800D01*
X143586142Y-64203228D02*
X143386142Y-63603228D01*
X143186142Y-64203228D01*
X142986142Y-64203228D02*
X142986142Y-63603228D01*
X142643285Y-64203228D01*
X142643285Y-63603228D01*
X142071857Y-64203228D02*
X142357571Y-64203228D01*
X142357571Y-63603228D01*
X141041000Y-64130180D02*
X141374333Y-63653990D01*
X141612428Y-64130180D02*
X141612428Y-63130180D01*
X141231476Y-63130180D01*
X141136238Y-63177800D01*
X141088619Y-63225419D01*
X141041000Y-63320657D01*
X141041000Y-63463514D01*
X141088619Y-63558752D01*
X141136238Y-63606371D01*
X141231476Y-63653990D01*
X141612428Y-63653990D01*
X140421952Y-63130180D02*
X140231476Y-63130180D01*
X140136238Y-63177800D01*
X140041000Y-63273038D01*
X139993380Y-63463514D01*
X139993380Y-63796847D01*
X140041000Y-63987323D01*
X140136238Y-64082561D01*
X140231476Y-64130180D01*
X140421952Y-64130180D01*
X140517190Y-64082561D01*
X140612428Y-63987323D01*
X140660047Y-63796847D01*
X140660047Y-63463514D01*
X140612428Y-63273038D01*
X140517190Y-63177800D01*
X140421952Y-63130180D01*
X138993380Y-64034942D02*
X139041000Y-64082561D01*
X139183857Y-64130180D01*
X139279095Y-64130180D01*
X139421952Y-64082561D01*
X139517190Y-63987323D01*
X139564809Y-63892085D01*
X139612428Y-63701609D01*
X139612428Y-63558752D01*
X139564809Y-63368276D01*
X139517190Y-63273038D01*
X139421952Y-63177800D01*
X139279095Y-63130180D01*
X139183857Y-63130180D01*
X139041000Y-63177800D01*
X138993380Y-63225419D01*
X138564809Y-64130180D02*
X138564809Y-63130180D01*
X137993380Y-64130180D02*
X138421952Y-63558752D01*
X137993380Y-63130180D02*
X138564809Y-63701609D01*
X137564809Y-63606371D02*
X137231476Y-63606371D01*
X137088619Y-64130180D02*
X137564809Y-64130180D01*
X137564809Y-63130180D01*
X137088619Y-63130180D01*
X136802904Y-63130180D02*
X136231476Y-63130180D01*
X136517190Y-64130180D02*
X136517190Y-63130180D01*
X135326714Y-64034942D02*
X135374333Y-64082561D01*
X135517190Y-64130180D01*
X135612428Y-64130180D01*
X135755285Y-64082561D01*
X135850523Y-63987323D01*
X135898142Y-63892085D01*
X135945761Y-63701609D01*
X135945761Y-63558752D01*
X135898142Y-63368276D01*
X135850523Y-63273038D01*
X135755285Y-63177800D01*
X135612428Y-63130180D01*
X135517190Y-63130180D01*
X135374333Y-63177800D01*
X135326714Y-63225419D01*
X134945761Y-63844466D02*
X134469571Y-63844466D01*
X135041000Y-64130180D02*
X134707666Y-63130180D01*
X134374333Y-64130180D01*
X134041000Y-64130180D02*
X134041000Y-63130180D01*
X133469571Y-64130180D01*
X133469571Y-63130180D01*
X149518428Y-97531228D02*
X148756523Y-97531228D01*
X149137476Y-97912180D02*
X149137476Y-97150276D01*
X147947000Y-97388371D02*
X147804142Y-97435990D01*
X147756523Y-97483609D01*
X147708904Y-97578847D01*
X147708904Y-97721704D01*
X147756523Y-97816942D01*
X147804142Y-97864561D01*
X147899380Y-97912180D01*
X148280333Y-97912180D01*
X148280333Y-96912180D01*
X147947000Y-96912180D01*
X147851761Y-96959800D01*
X147804142Y-97007419D01*
X147756523Y-97102657D01*
X147756523Y-97197895D01*
X147804142Y-97293133D01*
X147851761Y-97340752D01*
X147947000Y-97388371D01*
X148280333Y-97388371D01*
X147327952Y-97626466D02*
X146851761Y-97626466D01*
X147423190Y-97912180D02*
X147089857Y-96912180D01*
X146756523Y-97912180D01*
X146566047Y-96912180D02*
X145994619Y-96912180D01*
X146280333Y-97912180D02*
X146280333Y-96912180D01*
X145804142Y-96912180D02*
X145232714Y-96912180D01*
X145518428Y-97912180D02*
X145518428Y-96912180D01*
%TO.C,C2*%
X180633666Y-100610942D02*
X180681285Y-100658561D01*
X180824142Y-100706180D01*
X180919380Y-100706180D01*
X181062238Y-100658561D01*
X181157476Y-100563323D01*
X181205095Y-100468085D01*
X181252714Y-100277609D01*
X181252714Y-100134752D01*
X181205095Y-99944276D01*
X181157476Y-99849038D01*
X181062238Y-99753800D01*
X180919380Y-99706180D01*
X180824142Y-99706180D01*
X180681285Y-99753800D01*
X180633666Y-99801419D01*
X180252714Y-99801419D02*
X180205095Y-99753800D01*
X180109857Y-99706180D01*
X179871761Y-99706180D01*
X179776523Y-99753800D01*
X179728904Y-99801419D01*
X179681285Y-99896657D01*
X179681285Y-99991895D01*
X179728904Y-100134752D01*
X180300333Y-100706180D01*
X179681285Y-100706180D01*
%TO.C,R16*%
X137106857Y-107524180D02*
X137440190Y-107047990D01*
X137678285Y-107524180D02*
X137678285Y-106524180D01*
X137297333Y-106524180D01*
X137202095Y-106571800D01*
X137154476Y-106619419D01*
X137106857Y-106714657D01*
X137106857Y-106857514D01*
X137154476Y-106952752D01*
X137202095Y-107000371D01*
X137297333Y-107047990D01*
X137678285Y-107047990D01*
X136154476Y-107524180D02*
X136725904Y-107524180D01*
X136440190Y-107524180D02*
X136440190Y-106524180D01*
X136535428Y-106667038D01*
X136630666Y-106762276D01*
X136725904Y-106809895D01*
X135297333Y-106524180D02*
X135487809Y-106524180D01*
X135583047Y-106571800D01*
X135630666Y-106619419D01*
X135725904Y-106762276D01*
X135773523Y-106952752D01*
X135773523Y-107333704D01*
X135725904Y-107428942D01*
X135678285Y-107476561D01*
X135583047Y-107524180D01*
X135392571Y-107524180D01*
X135297333Y-107476561D01*
X135249714Y-107428942D01*
X135202095Y-107333704D01*
X135202095Y-107095609D01*
X135249714Y-107000371D01*
X135297333Y-106952752D01*
X135392571Y-106905133D01*
X135583047Y-106905133D01*
X135678285Y-106952752D01*
X135725904Y-107000371D01*
X135773523Y-107095609D01*
%TO.C,U3*%
X157098904Y-116343180D02*
X157098904Y-117152704D01*
X157051285Y-117247942D01*
X157003666Y-117295561D01*
X156908428Y-117343180D01*
X156717952Y-117343180D01*
X156622714Y-117295561D01*
X156575095Y-117247942D01*
X156527476Y-117152704D01*
X156527476Y-116343180D01*
X156146523Y-116343180D02*
X155527476Y-116343180D01*
X155860809Y-116724133D01*
X155717952Y-116724133D01*
X155622714Y-116771752D01*
X155575095Y-116819371D01*
X155527476Y-116914609D01*
X155527476Y-117152704D01*
X155575095Y-117247942D01*
X155622714Y-117295561D01*
X155717952Y-117343180D01*
X156003666Y-117343180D01*
X156098904Y-117295561D01*
X156146523Y-117247942D01*
%TO.C,C8*%
X145330666Y-109203942D02*
X145378285Y-109251561D01*
X145521142Y-109299180D01*
X145616380Y-109299180D01*
X145759238Y-109251561D01*
X145854476Y-109156323D01*
X145902095Y-109061085D01*
X145949714Y-108870609D01*
X145949714Y-108727752D01*
X145902095Y-108537276D01*
X145854476Y-108442038D01*
X145759238Y-108346800D01*
X145616380Y-108299180D01*
X145521142Y-108299180D01*
X145378285Y-108346800D01*
X145330666Y-108394419D01*
X144759238Y-108727752D02*
X144854476Y-108680133D01*
X144902095Y-108632514D01*
X144949714Y-108537276D01*
X144949714Y-108489657D01*
X144902095Y-108394419D01*
X144854476Y-108346800D01*
X144759238Y-108299180D01*
X144568761Y-108299180D01*
X144473523Y-108346800D01*
X144425904Y-108394419D01*
X144378285Y-108489657D01*
X144378285Y-108537276D01*
X144425904Y-108632514D01*
X144473523Y-108680133D01*
X144568761Y-108727752D01*
X144759238Y-108727752D01*
X144854476Y-108775371D01*
X144902095Y-108822990D01*
X144949714Y-108918228D01*
X144949714Y-109108704D01*
X144902095Y-109203942D01*
X144854476Y-109251561D01*
X144759238Y-109299180D01*
X144568761Y-109299180D01*
X144473523Y-109251561D01*
X144425904Y-109203942D01*
X144378285Y-109108704D01*
X144378285Y-108918228D01*
X144425904Y-108822990D01*
X144473523Y-108775371D01*
X144568761Y-108727752D01*
%TO.C,R18*%
X166631857Y-72766180D02*
X166965190Y-72289990D01*
X167203285Y-72766180D02*
X167203285Y-71766180D01*
X166822333Y-71766180D01*
X166727095Y-71813800D01*
X166679476Y-71861419D01*
X166631857Y-71956657D01*
X166631857Y-72099514D01*
X166679476Y-72194752D01*
X166727095Y-72242371D01*
X166822333Y-72289990D01*
X167203285Y-72289990D01*
X165679476Y-72766180D02*
X166250904Y-72766180D01*
X165965190Y-72766180D02*
X165965190Y-71766180D01*
X166060428Y-71909038D01*
X166155666Y-72004276D01*
X166250904Y-72051895D01*
X165108047Y-72194752D02*
X165203285Y-72147133D01*
X165250904Y-72099514D01*
X165298523Y-72004276D01*
X165298523Y-71956657D01*
X165250904Y-71861419D01*
X165203285Y-71813800D01*
X165108047Y-71766180D01*
X164917571Y-71766180D01*
X164822333Y-71813800D01*
X164774714Y-71861419D01*
X164727095Y-71956657D01*
X164727095Y-72004276D01*
X164774714Y-72099514D01*
X164822333Y-72147133D01*
X164917571Y-72194752D01*
X165108047Y-72194752D01*
X165203285Y-72242371D01*
X165250904Y-72289990D01*
X165298523Y-72385228D01*
X165298523Y-72575704D01*
X165250904Y-72670942D01*
X165203285Y-72718561D01*
X165108047Y-72766180D01*
X164917571Y-72766180D01*
X164822333Y-72718561D01*
X164774714Y-72670942D01*
X164727095Y-72575704D01*
X164727095Y-72385228D01*
X164774714Y-72289990D01*
X164822333Y-72242371D01*
X164917571Y-72194752D01*
%TO.C,U1*%
X172592904Y-99198180D02*
X172592904Y-100007704D01*
X172545285Y-100102942D01*
X172497666Y-100150561D01*
X172402428Y-100198180D01*
X172211952Y-100198180D01*
X172116714Y-100150561D01*
X172069095Y-100102942D01*
X172021476Y-100007704D01*
X172021476Y-99198180D01*
X171021476Y-100198180D02*
X171592904Y-100198180D01*
X171307190Y-100198180D02*
X171307190Y-99198180D01*
X171402428Y-99341038D01*
X171497666Y-99436276D01*
X171592904Y-99483895D01*
%TO.C,R1*%
X130849666Y-76362380D02*
X131183000Y-75886190D01*
X131421095Y-76362380D02*
X131421095Y-75362380D01*
X131040142Y-75362380D01*
X130944904Y-75410000D01*
X130897285Y-75457619D01*
X130849666Y-75552857D01*
X130849666Y-75695714D01*
X130897285Y-75790952D01*
X130944904Y-75838571D01*
X131040142Y-75886190D01*
X131421095Y-75886190D01*
X129897285Y-76362380D02*
X130468714Y-76362380D01*
X130183000Y-76362380D02*
X130183000Y-75362380D01*
X130278238Y-75505238D01*
X130373476Y-75600476D01*
X130468714Y-75648095D01*
%TO.C,TP1*%
X128261904Y-111644180D02*
X127690476Y-111644180D01*
X127976190Y-112644180D02*
X127976190Y-111644180D01*
X127357142Y-112644180D02*
X127357142Y-111644180D01*
X126976190Y-111644180D01*
X126880952Y-111691800D01*
X126833333Y-111739419D01*
X126785714Y-111834657D01*
X126785714Y-111977514D01*
X126833333Y-112072752D01*
X126880952Y-112120371D01*
X126976190Y-112167990D01*
X127357142Y-112167990D01*
X125833333Y-112644180D02*
X126404761Y-112644180D01*
X126119047Y-112644180D02*
X126119047Y-111644180D01*
X126214285Y-111787038D01*
X126309523Y-111882276D01*
X126404761Y-111929895D01*
%TO.C,R8*%
X146223366Y-91672580D02*
X146556700Y-91196390D01*
X146794795Y-91672580D02*
X146794795Y-90672580D01*
X146413842Y-90672580D01*
X146318604Y-90720200D01*
X146270985Y-90767819D01*
X146223366Y-90863057D01*
X146223366Y-91005914D01*
X146270985Y-91101152D01*
X146318604Y-91148771D01*
X146413842Y-91196390D01*
X146794795Y-91196390D01*
X145651938Y-91101152D02*
X145747176Y-91053533D01*
X145794795Y-91005914D01*
X145842414Y-90910676D01*
X145842414Y-90863057D01*
X145794795Y-90767819D01*
X145747176Y-90720200D01*
X145651938Y-90672580D01*
X145461461Y-90672580D01*
X145366223Y-90720200D01*
X145318604Y-90767819D01*
X145270985Y-90863057D01*
X145270985Y-90910676D01*
X145318604Y-91005914D01*
X145366223Y-91053533D01*
X145461461Y-91101152D01*
X145651938Y-91101152D01*
X145747176Y-91148771D01*
X145794795Y-91196390D01*
X145842414Y-91291628D01*
X145842414Y-91482104D01*
X145794795Y-91577342D01*
X145747176Y-91624961D01*
X145651938Y-91672580D01*
X145461461Y-91672580D01*
X145366223Y-91624961D01*
X145318604Y-91577342D01*
X145270985Y-91482104D01*
X145270985Y-91291628D01*
X145318604Y-91196390D01*
X145366223Y-91148771D01*
X145461461Y-91101152D01*
%TO.C,TP2*%
X148454904Y-101738180D02*
X147883476Y-101738180D01*
X148169190Y-102738180D02*
X148169190Y-101738180D01*
X147550142Y-102738180D02*
X147550142Y-101738180D01*
X147169190Y-101738180D01*
X147073952Y-101785800D01*
X147026333Y-101833419D01*
X146978714Y-101928657D01*
X146978714Y-102071514D01*
X147026333Y-102166752D01*
X147073952Y-102214371D01*
X147169190Y-102261990D01*
X147550142Y-102261990D01*
X146597761Y-101833419D02*
X146550142Y-101785800D01*
X146454904Y-101738180D01*
X146216809Y-101738180D01*
X146121571Y-101785800D01*
X146073952Y-101833419D01*
X146026333Y-101928657D01*
X146026333Y-102023895D01*
X146073952Y-102166752D01*
X146645380Y-102738180D01*
X146026333Y-102738180D01*
%TO.C,C12*%
X162567857Y-95628942D02*
X162615476Y-95676561D01*
X162758333Y-95724180D01*
X162853571Y-95724180D01*
X162996428Y-95676561D01*
X163091666Y-95581323D01*
X163139285Y-95486085D01*
X163186904Y-95295609D01*
X163186904Y-95152752D01*
X163139285Y-94962276D01*
X163091666Y-94867038D01*
X162996428Y-94771800D01*
X162853571Y-94724180D01*
X162758333Y-94724180D01*
X162615476Y-94771800D01*
X162567857Y-94819419D01*
X161615476Y-95724180D02*
X162186904Y-95724180D01*
X161901190Y-95724180D02*
X161901190Y-94724180D01*
X161996428Y-94867038D01*
X162091666Y-94962276D01*
X162186904Y-95009895D01*
X161234523Y-94819419D02*
X161186904Y-94771800D01*
X161091666Y-94724180D01*
X160853571Y-94724180D01*
X160758333Y-94771800D01*
X160710714Y-94819419D01*
X160663095Y-94914657D01*
X160663095Y-95009895D01*
X160710714Y-95152752D01*
X161282142Y-95724180D01*
X160663095Y-95724180D01*
%TO.C,C11*%
X159928374Y-115408678D02*
X159975993Y-115456297D01*
X160118850Y-115503916D01*
X160214088Y-115503916D01*
X160356945Y-115456297D01*
X160452183Y-115361059D01*
X160499802Y-115265821D01*
X160547421Y-115075345D01*
X160547421Y-114932488D01*
X160499802Y-114742012D01*
X160452183Y-114646774D01*
X160356945Y-114551536D01*
X160214088Y-114503916D01*
X160118850Y-114503916D01*
X159975993Y-114551536D01*
X159928374Y-114599155D01*
X158975993Y-115503916D02*
X159547421Y-115503916D01*
X159261707Y-115503916D02*
X159261707Y-114503916D01*
X159356945Y-114646774D01*
X159452183Y-114742012D01*
X159547421Y-114789631D01*
X158023612Y-115503916D02*
X158595040Y-115503916D01*
X158309326Y-115503916D02*
X158309326Y-114503916D01*
X158404564Y-114646774D01*
X158499802Y-114742012D01*
X158595040Y-114789631D01*
%TO.C,U2*%
X143323604Y-95949180D02*
X143323604Y-96758704D01*
X143275985Y-96853942D01*
X143228366Y-96901561D01*
X143133128Y-96949180D01*
X142942652Y-96949180D01*
X142847414Y-96901561D01*
X142799795Y-96853942D01*
X142752176Y-96758704D01*
X142752176Y-95949180D01*
X142323604Y-96044419D02*
X142275985Y-95996800D01*
X142180747Y-95949180D01*
X141942652Y-95949180D01*
X141847414Y-95996800D01*
X141799795Y-96044419D01*
X141752176Y-96139657D01*
X141752176Y-96234895D01*
X141799795Y-96377752D01*
X142371223Y-96949180D01*
X141752176Y-96949180D01*
%TO.C,C6*%
X132349866Y-98578942D02*
X132397485Y-98626561D01*
X132540342Y-98674180D01*
X132635580Y-98674180D01*
X132778438Y-98626561D01*
X132873676Y-98531323D01*
X132921295Y-98436085D01*
X132968914Y-98245609D01*
X132968914Y-98102752D01*
X132921295Y-97912276D01*
X132873676Y-97817038D01*
X132778438Y-97721800D01*
X132635580Y-97674180D01*
X132540342Y-97674180D01*
X132397485Y-97721800D01*
X132349866Y-97769419D01*
X131492723Y-97674180D02*
X131683200Y-97674180D01*
X131778438Y-97721800D01*
X131826057Y-97769419D01*
X131921295Y-97912276D01*
X131968914Y-98102752D01*
X131968914Y-98483704D01*
X131921295Y-98578942D01*
X131873676Y-98626561D01*
X131778438Y-98674180D01*
X131587961Y-98674180D01*
X131492723Y-98626561D01*
X131445104Y-98578942D01*
X131397485Y-98483704D01*
X131397485Y-98245609D01*
X131445104Y-98150371D01*
X131492723Y-98102752D01*
X131587961Y-98055133D01*
X131778438Y-98055133D01*
X131873676Y-98102752D01*
X131921295Y-98150371D01*
X131968914Y-98245609D01*
%TO.C,R24*%
X151899857Y-94649180D02*
X152233190Y-94172990D01*
X152471285Y-94649180D02*
X152471285Y-93649180D01*
X152090333Y-93649180D01*
X151995095Y-93696800D01*
X151947476Y-93744419D01*
X151899857Y-93839657D01*
X151899857Y-93982514D01*
X151947476Y-94077752D01*
X151995095Y-94125371D01*
X152090333Y-94172990D01*
X152471285Y-94172990D01*
X151518904Y-93744419D02*
X151471285Y-93696800D01*
X151376047Y-93649180D01*
X151137952Y-93649180D01*
X151042714Y-93696800D01*
X150995095Y-93744419D01*
X150947476Y-93839657D01*
X150947476Y-93934895D01*
X150995095Y-94077752D01*
X151566523Y-94649180D01*
X150947476Y-94649180D01*
X150090333Y-93982514D02*
X150090333Y-94649180D01*
X150328428Y-93601561D02*
X150566523Y-94315847D01*
X149947476Y-94315847D01*
%TO.C,C4*%
X137199666Y-103306010D02*
X137247285Y-103353629D01*
X137390142Y-103401248D01*
X137485380Y-103401248D01*
X137628238Y-103353629D01*
X137723476Y-103258391D01*
X137771095Y-103163153D01*
X137818714Y-102972677D01*
X137818714Y-102829820D01*
X137771095Y-102639344D01*
X137723476Y-102544106D01*
X137628238Y-102448868D01*
X137485380Y-102401248D01*
X137390142Y-102401248D01*
X137247285Y-102448868D01*
X137199666Y-102496487D01*
X136342523Y-102734582D02*
X136342523Y-103401248D01*
X136580619Y-102353629D02*
X136818714Y-103067915D01*
X136199666Y-103067915D01*
%TO.C,F1*%
X127267571Y-71038466D02*
X127267571Y-70705133D01*
X127791380Y-70705133D02*
X126791380Y-70705133D01*
X126791380Y-71181323D01*
X127791380Y-72086085D02*
X127791380Y-71514657D01*
X127791380Y-71800371D02*
X126791380Y-71800371D01*
X126934238Y-71705133D01*
X127029476Y-71609895D01*
X127077095Y-71514657D01*
%TO.C,F2*%
X183872333Y-97900371D02*
X184205666Y-97900371D01*
X184205666Y-98424180D02*
X184205666Y-97424180D01*
X183729476Y-97424180D01*
X183396142Y-97519419D02*
X183348523Y-97471800D01*
X183253285Y-97424180D01*
X183015190Y-97424180D01*
X182919952Y-97471800D01*
X182872333Y-97519419D01*
X182824714Y-97614657D01*
X182824714Y-97709895D01*
X182872333Y-97852752D01*
X183443761Y-98424180D01*
X182824714Y-98424180D01*
%TO.C,C1*%
X134839962Y-89173103D02*
X134887581Y-89220722D01*
X135030438Y-89268341D01*
X135125676Y-89268341D01*
X135268534Y-89220722D01*
X135363772Y-89125484D01*
X135411391Y-89030246D01*
X135459010Y-88839770D01*
X135459010Y-88696913D01*
X135411391Y-88506437D01*
X135363772Y-88411199D01*
X135268534Y-88315961D01*
X135125676Y-88268341D01*
X135030438Y-88268341D01*
X134887581Y-88315961D01*
X134839962Y-88363580D01*
X133887581Y-89268341D02*
X134459010Y-89268341D01*
X134173296Y-89268341D02*
X134173296Y-88268341D01*
X134268534Y-88411199D01*
X134363772Y-88506437D01*
X134459010Y-88554056D01*
%TO.C,R10*%
X171457857Y-111628180D02*
X171791190Y-111151990D01*
X172029285Y-111628180D02*
X172029285Y-110628180D01*
X171648333Y-110628180D01*
X171553095Y-110675800D01*
X171505476Y-110723419D01*
X171457857Y-110818657D01*
X171457857Y-110961514D01*
X171505476Y-111056752D01*
X171553095Y-111104371D01*
X171648333Y-111151990D01*
X172029285Y-111151990D01*
X170505476Y-111628180D02*
X171076904Y-111628180D01*
X170791190Y-111628180D02*
X170791190Y-110628180D01*
X170886428Y-110771038D01*
X170981666Y-110866276D01*
X171076904Y-110913895D01*
X169886428Y-110628180D02*
X169791190Y-110628180D01*
X169695952Y-110675800D01*
X169648333Y-110723419D01*
X169600714Y-110818657D01*
X169553095Y-111009133D01*
X169553095Y-111247228D01*
X169600714Y-111437704D01*
X169648333Y-111532942D01*
X169695952Y-111580561D01*
X169791190Y-111628180D01*
X169886428Y-111628180D01*
X169981666Y-111580561D01*
X170029285Y-111532942D01*
X170076904Y-111437704D01*
X170124523Y-111247228D01*
X170124523Y-111009133D01*
X170076904Y-110818657D01*
X170029285Y-110723419D01*
X169981666Y-110675800D01*
X169886428Y-110628180D01*
%TO.C,R5*%
X156705666Y-110799180D02*
X157039000Y-110322990D01*
X157277095Y-110799180D02*
X157277095Y-109799180D01*
X156896142Y-109799180D01*
X156800904Y-109846800D01*
X156753285Y-109894419D01*
X156705666Y-109989657D01*
X156705666Y-110132514D01*
X156753285Y-110227752D01*
X156800904Y-110275371D01*
X156896142Y-110322990D01*
X157277095Y-110322990D01*
X155800904Y-109799180D02*
X156277095Y-109799180D01*
X156324714Y-110275371D01*
X156277095Y-110227752D01*
X156181857Y-110180133D01*
X155943761Y-110180133D01*
X155848523Y-110227752D01*
X155800904Y-110275371D01*
X155753285Y-110370609D01*
X155753285Y-110608704D01*
X155800904Y-110703942D01*
X155848523Y-110751561D01*
X155943761Y-110799180D01*
X156181857Y-110799180D01*
X156277095Y-110751561D01*
X156324714Y-110703942D01*
%TO.C,R28*%
X177299857Y-122550180D02*
X177633190Y-122073990D01*
X177871285Y-122550180D02*
X177871285Y-121550180D01*
X177490333Y-121550180D01*
X177395095Y-121597800D01*
X177347476Y-121645419D01*
X177299857Y-121740657D01*
X177299857Y-121883514D01*
X177347476Y-121978752D01*
X177395095Y-122026371D01*
X177490333Y-122073990D01*
X177871285Y-122073990D01*
X176918904Y-121645419D02*
X176871285Y-121597800D01*
X176776047Y-121550180D01*
X176537952Y-121550180D01*
X176442714Y-121597800D01*
X176395095Y-121645419D01*
X176347476Y-121740657D01*
X176347476Y-121835895D01*
X176395095Y-121978752D01*
X176966523Y-122550180D01*
X176347476Y-122550180D01*
X175776047Y-121978752D02*
X175871285Y-121931133D01*
X175918904Y-121883514D01*
X175966523Y-121788276D01*
X175966523Y-121740657D01*
X175918904Y-121645419D01*
X175871285Y-121597800D01*
X175776047Y-121550180D01*
X175585571Y-121550180D01*
X175490333Y-121597800D01*
X175442714Y-121645419D01*
X175395095Y-121740657D01*
X175395095Y-121788276D01*
X175442714Y-121883514D01*
X175490333Y-121931133D01*
X175585571Y-121978752D01*
X175776047Y-121978752D01*
X175871285Y-122026371D01*
X175918904Y-122073990D01*
X175966523Y-122169228D01*
X175966523Y-122359704D01*
X175918904Y-122454942D01*
X175871285Y-122502561D01*
X175776047Y-122550180D01*
X175585571Y-122550180D01*
X175490333Y-122502561D01*
X175442714Y-122454942D01*
X175395095Y-122359704D01*
X175395095Y-122169228D01*
X175442714Y-122073990D01*
X175490333Y-122026371D01*
X175585571Y-121978752D01*
%TO.C,L2*%
X175975666Y-90654180D02*
X176451857Y-90654180D01*
X176451857Y-89654180D01*
X175689952Y-89749419D02*
X175642333Y-89701800D01*
X175547095Y-89654180D01*
X175309000Y-89654180D01*
X175213761Y-89701800D01*
X175166142Y-89749419D01*
X175118523Y-89844657D01*
X175118523Y-89939895D01*
X175166142Y-90082752D01*
X175737571Y-90654180D01*
X175118523Y-90654180D01*
%TO.C,L1*%
X129761666Y-100510180D02*
X130237857Y-100510180D01*
X130237857Y-99510180D01*
X128904523Y-100510180D02*
X129475952Y-100510180D01*
X129190238Y-100510180D02*
X129190238Y-99510180D01*
X129285476Y-99653038D01*
X129380714Y-99748276D01*
X129475952Y-99795895D01*
%TO.C,U5*%
X180325904Y-119574180D02*
X180325904Y-120383704D01*
X180278285Y-120478942D01*
X180230666Y-120526561D01*
X180135428Y-120574180D01*
X179944952Y-120574180D01*
X179849714Y-120526561D01*
X179802095Y-120478942D01*
X179754476Y-120383704D01*
X179754476Y-119574180D01*
X178802095Y-119574180D02*
X179278285Y-119574180D01*
X179325904Y-120050371D01*
X179278285Y-120002752D01*
X179183047Y-119955133D01*
X178944952Y-119955133D01*
X178849714Y-120002752D01*
X178802095Y-120050371D01*
X178754476Y-120145609D01*
X178754476Y-120383704D01*
X178802095Y-120478942D01*
X178849714Y-120526561D01*
X178944952Y-120574180D01*
X179183047Y-120574180D01*
X179278285Y-120526561D01*
X179325904Y-120478942D01*
%TO.C,C14*%
X139453857Y-83846942D02*
X139501476Y-83894561D01*
X139644333Y-83942180D01*
X139739571Y-83942180D01*
X139882428Y-83894561D01*
X139977666Y-83799323D01*
X140025285Y-83704085D01*
X140072904Y-83513609D01*
X140072904Y-83370752D01*
X140025285Y-83180276D01*
X139977666Y-83085038D01*
X139882428Y-82989800D01*
X139739571Y-82942180D01*
X139644333Y-82942180D01*
X139501476Y-82989800D01*
X139453857Y-83037419D01*
X138501476Y-83942180D02*
X139072904Y-83942180D01*
X138787190Y-83942180D02*
X138787190Y-82942180D01*
X138882428Y-83085038D01*
X138977666Y-83180276D01*
X139072904Y-83227895D01*
X137644333Y-83275514D02*
X137644333Y-83942180D01*
X137882428Y-82894561D02*
X138120523Y-83608847D01*
X137501476Y-83608847D01*
%TO.C,C3*%
X134913666Y-91720942D02*
X134961285Y-91768561D01*
X135104142Y-91816180D01*
X135199380Y-91816180D01*
X135342238Y-91768561D01*
X135437476Y-91673323D01*
X135485095Y-91578085D01*
X135532714Y-91387609D01*
X135532714Y-91244752D01*
X135485095Y-91054276D01*
X135437476Y-90959038D01*
X135342238Y-90863800D01*
X135199380Y-90816180D01*
X135104142Y-90816180D01*
X134961285Y-90863800D01*
X134913666Y-90911419D01*
X134580333Y-90816180D02*
X133961285Y-90816180D01*
X134294619Y-91197133D01*
X134151761Y-91197133D01*
X134056523Y-91244752D01*
X134008904Y-91292371D01*
X133961285Y-91387609D01*
X133961285Y-91625704D01*
X134008904Y-91720942D01*
X134056523Y-91768561D01*
X134151761Y-91816180D01*
X134437476Y-91816180D01*
X134532714Y-91768561D01*
X134580333Y-91720942D01*
%TO.C,R9*%
X142498666Y-76320180D02*
X142832000Y-75843990D01*
X143070095Y-76320180D02*
X143070095Y-75320180D01*
X142689142Y-75320180D01*
X142593904Y-75367800D01*
X142546285Y-75415419D01*
X142498666Y-75510657D01*
X142498666Y-75653514D01*
X142546285Y-75748752D01*
X142593904Y-75796371D01*
X142689142Y-75843990D01*
X143070095Y-75843990D01*
X142022476Y-76320180D02*
X141832000Y-76320180D01*
X141736761Y-76272561D01*
X141689142Y-76224942D01*
X141593904Y-76082085D01*
X141546285Y-75891609D01*
X141546285Y-75510657D01*
X141593904Y-75415419D01*
X141641523Y-75367800D01*
X141736761Y-75320180D01*
X141927238Y-75320180D01*
X142022476Y-75367800D01*
X142070095Y-75415419D01*
X142117714Y-75510657D01*
X142117714Y-75748752D01*
X142070095Y-75843990D01*
X142022476Y-75891609D01*
X141927238Y-75939228D01*
X141736761Y-75939228D01*
X141641523Y-75891609D01*
X141593904Y-75843990D01*
X141546285Y-75748752D01*
%TO.C,C9*%
X153963666Y-122835942D02*
X154011285Y-122883561D01*
X154154142Y-122931180D01*
X154249380Y-122931180D01*
X154392238Y-122883561D01*
X154487476Y-122788323D01*
X154535095Y-122693085D01*
X154582714Y-122502609D01*
X154582714Y-122359752D01*
X154535095Y-122169276D01*
X154487476Y-122074038D01*
X154392238Y-121978800D01*
X154249380Y-121931180D01*
X154154142Y-121931180D01*
X154011285Y-121978800D01*
X153963666Y-122026419D01*
X153487476Y-122931180D02*
X153297000Y-122931180D01*
X153201761Y-122883561D01*
X153154142Y-122835942D01*
X153058904Y-122693085D01*
X153011285Y-122502609D01*
X153011285Y-122121657D01*
X153058904Y-122026419D01*
X153106523Y-121978800D01*
X153201761Y-121931180D01*
X153392238Y-121931180D01*
X153487476Y-121978800D01*
X153535095Y-122026419D01*
X153582714Y-122121657D01*
X153582714Y-122359752D01*
X153535095Y-122454990D01*
X153487476Y-122502609D01*
X153392238Y-122550228D01*
X153201761Y-122550228D01*
X153106523Y-122502609D01*
X153058904Y-122454990D01*
X153011285Y-122359752D01*
%TO.C,R25*%
X142406857Y-109324180D02*
X142740190Y-108847990D01*
X142978285Y-109324180D02*
X142978285Y-108324180D01*
X142597333Y-108324180D01*
X142502095Y-108371800D01*
X142454476Y-108419419D01*
X142406857Y-108514657D01*
X142406857Y-108657514D01*
X142454476Y-108752752D01*
X142502095Y-108800371D01*
X142597333Y-108847990D01*
X142978285Y-108847990D01*
X142025904Y-108419419D02*
X141978285Y-108371800D01*
X141883047Y-108324180D01*
X141644952Y-108324180D01*
X141549714Y-108371800D01*
X141502095Y-108419419D01*
X141454476Y-108514657D01*
X141454476Y-108609895D01*
X141502095Y-108752752D01*
X142073523Y-109324180D01*
X141454476Y-109324180D01*
X140549714Y-108324180D02*
X141025904Y-108324180D01*
X141073523Y-108800371D01*
X141025904Y-108752752D01*
X140930666Y-108705133D01*
X140692571Y-108705133D01*
X140597333Y-108752752D01*
X140549714Y-108800371D01*
X140502095Y-108895609D01*
X140502095Y-109133704D01*
X140549714Y-109228942D01*
X140597333Y-109276561D01*
X140692571Y-109324180D01*
X140930666Y-109324180D01*
X141025904Y-109276561D01*
X141073523Y-109228942D01*
%TO.C,R27*%
X145703557Y-86992380D02*
X146036890Y-86516190D01*
X146274985Y-86992380D02*
X146274985Y-85992380D01*
X145894033Y-85992380D01*
X145798795Y-86040000D01*
X145751176Y-86087619D01*
X145703557Y-86182857D01*
X145703557Y-86325714D01*
X145751176Y-86420952D01*
X145798795Y-86468571D01*
X145894033Y-86516190D01*
X146274985Y-86516190D01*
X145322604Y-86087619D02*
X145274985Y-86040000D01*
X145179747Y-85992380D01*
X144941652Y-85992380D01*
X144846414Y-86040000D01*
X144798795Y-86087619D01*
X144751176Y-86182857D01*
X144751176Y-86278095D01*
X144798795Y-86420952D01*
X145370223Y-86992380D01*
X144751176Y-86992380D01*
X144417842Y-85992380D02*
X143751176Y-85992380D01*
X144179747Y-86992380D01*
%TO.C,R7*%
X183830666Y-116924180D02*
X184164000Y-116447990D01*
X184402095Y-116924180D02*
X184402095Y-115924180D01*
X184021142Y-115924180D01*
X183925904Y-115971800D01*
X183878285Y-116019419D01*
X183830666Y-116114657D01*
X183830666Y-116257514D01*
X183878285Y-116352752D01*
X183925904Y-116400371D01*
X184021142Y-116447990D01*
X184402095Y-116447990D01*
X183497333Y-115924180D02*
X182830666Y-115924180D01*
X183259238Y-116924180D01*
%TO.C,U4*%
X158325504Y-101992180D02*
X158325504Y-102801704D01*
X158277885Y-102896942D01*
X158230266Y-102944561D01*
X158135028Y-102992180D01*
X157944552Y-102992180D01*
X157849314Y-102944561D01*
X157801695Y-102896942D01*
X157754076Y-102801704D01*
X157754076Y-101992180D01*
X156849314Y-102325514D02*
X156849314Y-102992180D01*
X157087409Y-101944561D02*
X157325504Y-102658847D01*
X156706457Y-102658847D01*
%TO.C,TP7*%
X182558666Y-68210180D02*
X181987238Y-68210180D01*
X182272952Y-69210180D02*
X182272952Y-68210180D01*
X181653904Y-69210180D02*
X181653904Y-68210180D01*
X181272952Y-68210180D01*
X181177714Y-68257800D01*
X181130095Y-68305419D01*
X181082476Y-68400657D01*
X181082476Y-68543514D01*
X181130095Y-68638752D01*
X181177714Y-68686371D01*
X181272952Y-68733990D01*
X181653904Y-68733990D01*
X180749142Y-68210180D02*
X180082476Y-68210180D01*
X180511047Y-69210180D01*
%TO.C,U10*%
X179077095Y-72414180D02*
X179077095Y-73223704D01*
X179029476Y-73318942D01*
X178981857Y-73366561D01*
X178886619Y-73414180D01*
X178696142Y-73414180D01*
X178600904Y-73366561D01*
X178553285Y-73318942D01*
X178505666Y-73223704D01*
X178505666Y-72414180D01*
X177505666Y-73414180D02*
X178077095Y-73414180D01*
X177791380Y-73414180D02*
X177791380Y-72414180D01*
X177886619Y-72557038D01*
X177981857Y-72652276D01*
X178077095Y-72699895D01*
X176886619Y-72414180D02*
X176791380Y-72414180D01*
X176696142Y-72461800D01*
X176648523Y-72509419D01*
X176600904Y-72604657D01*
X176553285Y-72795133D01*
X176553285Y-73033228D01*
X176600904Y-73223704D01*
X176648523Y-73318942D01*
X176696142Y-73366561D01*
X176791380Y-73414180D01*
X176886619Y-73414180D01*
X176981857Y-73366561D01*
X177029476Y-73318942D01*
X177077095Y-73223704D01*
X177124714Y-73033228D01*
X177124714Y-72795133D01*
X177077095Y-72604657D01*
X177029476Y-72509419D01*
X176981857Y-72461800D01*
X176886619Y-72414180D01*
%TO.C,R26*%
X186896857Y-80894180D02*
X187230190Y-80417990D01*
X187468285Y-80894180D02*
X187468285Y-79894180D01*
X187087333Y-79894180D01*
X186992095Y-79941800D01*
X186944476Y-79989419D01*
X186896857Y-80084657D01*
X186896857Y-80227514D01*
X186944476Y-80322752D01*
X186992095Y-80370371D01*
X187087333Y-80417990D01*
X187468285Y-80417990D01*
X186515904Y-79989419D02*
X186468285Y-79941800D01*
X186373047Y-79894180D01*
X186134952Y-79894180D01*
X186039714Y-79941800D01*
X185992095Y-79989419D01*
X185944476Y-80084657D01*
X185944476Y-80179895D01*
X185992095Y-80322752D01*
X186563523Y-80894180D01*
X185944476Y-80894180D01*
X185087333Y-79894180D02*
X185277809Y-79894180D01*
X185373047Y-79941800D01*
X185420666Y-79989419D01*
X185515904Y-80132276D01*
X185563523Y-80322752D01*
X185563523Y-80703704D01*
X185515904Y-80798942D01*
X185468285Y-80846561D01*
X185373047Y-80894180D01*
X185182571Y-80894180D01*
X185087333Y-80846561D01*
X185039714Y-80798942D01*
X184992095Y-80703704D01*
X184992095Y-80465609D01*
X185039714Y-80370371D01*
X185087333Y-80322752D01*
X185182571Y-80275133D01*
X185373047Y-80275133D01*
X185468285Y-80322752D01*
X185515904Y-80370371D01*
X185563523Y-80465609D01*
%TO.C,R17*%
X168663857Y-80894180D02*
X168997190Y-80417990D01*
X169235285Y-80894180D02*
X169235285Y-79894180D01*
X168854333Y-79894180D01*
X168759095Y-79941800D01*
X168711476Y-79989419D01*
X168663857Y-80084657D01*
X168663857Y-80227514D01*
X168711476Y-80322752D01*
X168759095Y-80370371D01*
X168854333Y-80417990D01*
X169235285Y-80417990D01*
X167711476Y-80894180D02*
X168282904Y-80894180D01*
X167997190Y-80894180D02*
X167997190Y-79894180D01*
X168092428Y-80037038D01*
X168187666Y-80132276D01*
X168282904Y-80179895D01*
X167378142Y-79894180D02*
X166711476Y-79894180D01*
X167140047Y-80894180D01*
%TO.C,J1*%
X167622333Y-119649180D02*
X167622333Y-120363466D01*
X167669952Y-120506323D01*
X167765190Y-120601561D01*
X167908047Y-120649180D01*
X168003285Y-120649180D01*
X166622333Y-120649180D02*
X167193761Y-120649180D01*
X166908047Y-120649180D02*
X166908047Y-119649180D01*
X167003285Y-119792038D01*
X167098523Y-119887276D01*
X167193761Y-119934895D01*
%TO.C,U6*%
X138556904Y-79894180D02*
X138556904Y-80703704D01*
X138509285Y-80798942D01*
X138461666Y-80846561D01*
X138366428Y-80894180D01*
X138175952Y-80894180D01*
X138080714Y-80846561D01*
X138033095Y-80798942D01*
X137985476Y-80703704D01*
X137985476Y-79894180D01*
X137080714Y-79894180D02*
X137271190Y-79894180D01*
X137366428Y-79941800D01*
X137414047Y-79989419D01*
X137509285Y-80132276D01*
X137556904Y-80322752D01*
X137556904Y-80703704D01*
X137509285Y-80798942D01*
X137461666Y-80846561D01*
X137366428Y-80894180D01*
X137175952Y-80894180D01*
X137080714Y-80846561D01*
X137033095Y-80798942D01*
X136985476Y-80703704D01*
X136985476Y-80465609D01*
X137033095Y-80370371D01*
X137080714Y-80322752D01*
X137175952Y-80275133D01*
X137366428Y-80275133D01*
X137461666Y-80322752D01*
X137509285Y-80370371D01*
X137556904Y-80465609D01*
%TO.C,C5*%
X169076666Y-103150942D02*
X169124285Y-103198561D01*
X169267142Y-103246180D01*
X169362380Y-103246180D01*
X169505238Y-103198561D01*
X169600476Y-103103323D01*
X169648095Y-103008085D01*
X169695714Y-102817609D01*
X169695714Y-102674752D01*
X169648095Y-102484276D01*
X169600476Y-102389038D01*
X169505238Y-102293800D01*
X169362380Y-102246180D01*
X169267142Y-102246180D01*
X169124285Y-102293800D01*
X169076666Y-102341419D01*
X168171904Y-102246180D02*
X168648095Y-102246180D01*
X168695714Y-102722371D01*
X168648095Y-102674752D01*
X168552857Y-102627133D01*
X168314761Y-102627133D01*
X168219523Y-102674752D01*
X168171904Y-102722371D01*
X168124285Y-102817609D01*
X168124285Y-103055704D01*
X168171904Y-103150942D01*
X168219523Y-103198561D01*
X168314761Y-103246180D01*
X168552857Y-103246180D01*
X168648095Y-103198561D01*
X168695714Y-103150942D01*
%TO.C,TP3*%
X169028904Y-107326180D02*
X168457476Y-107326180D01*
X168743190Y-108326180D02*
X168743190Y-107326180D01*
X168124142Y-108326180D02*
X168124142Y-107326180D01*
X167743190Y-107326180D01*
X167647952Y-107373800D01*
X167600333Y-107421419D01*
X167552714Y-107516657D01*
X167552714Y-107659514D01*
X167600333Y-107754752D01*
X167647952Y-107802371D01*
X167743190Y-107849990D01*
X168124142Y-107849990D01*
X167219380Y-107326180D02*
X166600333Y-107326180D01*
X166933666Y-107707133D01*
X166790809Y-107707133D01*
X166695571Y-107754752D01*
X166647952Y-107802371D01*
X166600333Y-107897609D01*
X166600333Y-108135704D01*
X166647952Y-108230942D01*
X166695571Y-108278561D01*
X166790809Y-108326180D01*
X167076523Y-108326180D01*
X167171761Y-108278561D01*
X167219380Y-108230942D01*
%TO.C,TP4*%
X141596904Y-72528180D02*
X141025476Y-72528180D01*
X141311190Y-73528180D02*
X141311190Y-72528180D01*
X140692142Y-73528180D02*
X140692142Y-72528180D01*
X140311190Y-72528180D01*
X140215952Y-72575800D01*
X140168333Y-72623419D01*
X140120714Y-72718657D01*
X140120714Y-72861514D01*
X140168333Y-72956752D01*
X140215952Y-73004371D01*
X140311190Y-73051990D01*
X140692142Y-73051990D01*
X139263571Y-72861514D02*
X139263571Y-73528180D01*
X139501666Y-72480561D02*
X139739761Y-73194847D01*
X139120714Y-73194847D01*
%TO.C,F3*%
X164272333Y-120250371D02*
X164605666Y-120250371D01*
X164605666Y-120774180D02*
X164605666Y-119774180D01*
X164129476Y-119774180D01*
X163843761Y-119774180D02*
X163224714Y-119774180D01*
X163558047Y-120155133D01*
X163415190Y-120155133D01*
X163319952Y-120202752D01*
X163272333Y-120250371D01*
X163224714Y-120345609D01*
X163224714Y-120583704D01*
X163272333Y-120678942D01*
X163319952Y-120726561D01*
X163415190Y-120774180D01*
X163700904Y-120774180D01*
X163796142Y-120726561D01*
X163843761Y-120678942D01*
%TO.C,C10*%
X146438857Y-122454942D02*
X146486476Y-122502561D01*
X146629333Y-122550180D01*
X146724571Y-122550180D01*
X146867428Y-122502561D01*
X146962666Y-122407323D01*
X147010285Y-122312085D01*
X147057904Y-122121609D01*
X147057904Y-121978752D01*
X147010285Y-121788276D01*
X146962666Y-121693038D01*
X146867428Y-121597800D01*
X146724571Y-121550180D01*
X146629333Y-121550180D01*
X146486476Y-121597800D01*
X146438857Y-121645419D01*
X145486476Y-122550180D02*
X146057904Y-122550180D01*
X145772190Y-122550180D02*
X145772190Y-121550180D01*
X145867428Y-121693038D01*
X145962666Y-121788276D01*
X146057904Y-121835895D01*
X144867428Y-121550180D02*
X144772190Y-121550180D01*
X144676952Y-121597800D01*
X144629333Y-121645419D01*
X144581714Y-121740657D01*
X144534095Y-121931133D01*
X144534095Y-122169228D01*
X144581714Y-122359704D01*
X144629333Y-122454942D01*
X144676952Y-122502561D01*
X144772190Y-122550180D01*
X144867428Y-122550180D01*
X144962666Y-122502561D01*
X145010285Y-122454942D01*
X145057904Y-122359704D01*
X145105523Y-122169228D01*
X145105523Y-121931133D01*
X145057904Y-121740657D01*
X145010285Y-121645419D01*
X144962666Y-121597800D01*
X144867428Y-121550180D01*
%TO.C,R19*%
X143431857Y-100774180D02*
X143765190Y-100297990D01*
X144003285Y-100774180D02*
X144003285Y-99774180D01*
X143622333Y-99774180D01*
X143527095Y-99821800D01*
X143479476Y-99869419D01*
X143431857Y-99964657D01*
X143431857Y-100107514D01*
X143479476Y-100202752D01*
X143527095Y-100250371D01*
X143622333Y-100297990D01*
X144003285Y-100297990D01*
X142479476Y-100774180D02*
X143050904Y-100774180D01*
X142765190Y-100774180D02*
X142765190Y-99774180D01*
X142860428Y-99917038D01*
X142955666Y-100012276D01*
X143050904Y-100059895D01*
X142003285Y-100774180D02*
X141812809Y-100774180D01*
X141717571Y-100726561D01*
X141669952Y-100678942D01*
X141574714Y-100536085D01*
X141527095Y-100345609D01*
X141527095Y-99964657D01*
X141574714Y-99869419D01*
X141622333Y-99821800D01*
X141717571Y-99774180D01*
X141908047Y-99774180D01*
X142003285Y-99821800D01*
X142050904Y-99869419D01*
X142098523Y-99964657D01*
X142098523Y-100202752D01*
X142050904Y-100297990D01*
X142003285Y-100345609D01*
X141908047Y-100393228D01*
X141717571Y-100393228D01*
X141622333Y-100345609D01*
X141574714Y-100297990D01*
X141527095Y-100202752D01*
%TO.C,R4*%
X163230666Y-110649180D02*
X163564000Y-110172990D01*
X163802095Y-110649180D02*
X163802095Y-109649180D01*
X163421142Y-109649180D01*
X163325904Y-109696800D01*
X163278285Y-109744419D01*
X163230666Y-109839657D01*
X163230666Y-109982514D01*
X163278285Y-110077752D01*
X163325904Y-110125371D01*
X163421142Y-110172990D01*
X163802095Y-110172990D01*
X162373523Y-109982514D02*
X162373523Y-110649180D01*
X162611619Y-109601561D02*
X162849714Y-110315847D01*
X162230666Y-110315847D01*
%TO.C,C7*%
X182616466Y-112978542D02*
X182664085Y-113026161D01*
X182806942Y-113073780D01*
X182902180Y-113073780D01*
X183045038Y-113026161D01*
X183140276Y-112930923D01*
X183187895Y-112835685D01*
X183235514Y-112645209D01*
X183235514Y-112502352D01*
X183187895Y-112311876D01*
X183140276Y-112216638D01*
X183045038Y-112121400D01*
X182902180Y-112073780D01*
X182806942Y-112073780D01*
X182664085Y-112121400D01*
X182616466Y-112169019D01*
X182283133Y-112073780D02*
X181616466Y-112073780D01*
X182045038Y-113073780D01*
%TO.C,R23*%
X151899857Y-99944180D02*
X152233190Y-99467990D01*
X152471285Y-99944180D02*
X152471285Y-98944180D01*
X152090333Y-98944180D01*
X151995095Y-98991800D01*
X151947476Y-99039419D01*
X151899857Y-99134657D01*
X151899857Y-99277514D01*
X151947476Y-99372752D01*
X151995095Y-99420371D01*
X152090333Y-99467990D01*
X152471285Y-99467990D01*
X151518904Y-99039419D02*
X151471285Y-98991800D01*
X151376047Y-98944180D01*
X151137952Y-98944180D01*
X151042714Y-98991800D01*
X150995095Y-99039419D01*
X150947476Y-99134657D01*
X150947476Y-99229895D01*
X150995095Y-99372752D01*
X151566523Y-99944180D01*
X150947476Y-99944180D01*
X150614142Y-98944180D02*
X149995095Y-98944180D01*
X150328428Y-99325133D01*
X150185571Y-99325133D01*
X150090333Y-99372752D01*
X150042714Y-99420371D01*
X149995095Y-99515609D01*
X149995095Y-99753704D01*
X150042714Y-99848942D01*
X150090333Y-99896561D01*
X150185571Y-99944180D01*
X150471285Y-99944180D01*
X150566523Y-99896561D01*
X150614142Y-99848942D01*
%TO.C,R22*%
X147631857Y-117674180D02*
X147965190Y-117197990D01*
X148203285Y-117674180D02*
X148203285Y-116674180D01*
X147822333Y-116674180D01*
X147727095Y-116721800D01*
X147679476Y-116769419D01*
X147631857Y-116864657D01*
X147631857Y-117007514D01*
X147679476Y-117102752D01*
X147727095Y-117150371D01*
X147822333Y-117197990D01*
X148203285Y-117197990D01*
X147250904Y-116769419D02*
X147203285Y-116721800D01*
X147108047Y-116674180D01*
X146869952Y-116674180D01*
X146774714Y-116721800D01*
X146727095Y-116769419D01*
X146679476Y-116864657D01*
X146679476Y-116959895D01*
X146727095Y-117102752D01*
X147298523Y-117674180D01*
X146679476Y-117674180D01*
X146298523Y-116769419D02*
X146250904Y-116721800D01*
X146155666Y-116674180D01*
X145917571Y-116674180D01*
X145822333Y-116721800D01*
X145774714Y-116769419D01*
X145727095Y-116864657D01*
X145727095Y-116959895D01*
X145774714Y-117102752D01*
X146346142Y-117674180D01*
X145727095Y-117674180D01*
%TO.C,R2*%
X177310666Y-107899180D02*
X177644000Y-107422990D01*
X177882095Y-107899180D02*
X177882095Y-106899180D01*
X177501142Y-106899180D01*
X177405904Y-106946800D01*
X177358285Y-106994419D01*
X177310666Y-107089657D01*
X177310666Y-107232514D01*
X177358285Y-107327752D01*
X177405904Y-107375371D01*
X177501142Y-107422990D01*
X177882095Y-107422990D01*
X176929714Y-106994419D02*
X176882095Y-106946800D01*
X176786857Y-106899180D01*
X176548761Y-106899180D01*
X176453523Y-106946800D01*
X176405904Y-106994419D01*
X176358285Y-107089657D01*
X176358285Y-107184895D01*
X176405904Y-107327752D01*
X176977333Y-107899180D01*
X176358285Y-107899180D01*
%TO.C,C21*%
X177807857Y-72035942D02*
X177855476Y-72083561D01*
X177998333Y-72131180D01*
X178093571Y-72131180D01*
X178236428Y-72083561D01*
X178331666Y-71988323D01*
X178379285Y-71893085D01*
X178426904Y-71702609D01*
X178426904Y-71559752D01*
X178379285Y-71369276D01*
X178331666Y-71274038D01*
X178236428Y-71178800D01*
X178093571Y-71131180D01*
X177998333Y-71131180D01*
X177855476Y-71178800D01*
X177807857Y-71226419D01*
X177426904Y-71226419D02*
X177379285Y-71178800D01*
X177284047Y-71131180D01*
X177045952Y-71131180D01*
X176950714Y-71178800D01*
X176903095Y-71226419D01*
X176855476Y-71321657D01*
X176855476Y-71416895D01*
X176903095Y-71559752D01*
X177474523Y-72131180D01*
X176855476Y-72131180D01*
X175903095Y-72131180D02*
X176474523Y-72131180D01*
X176188809Y-72131180D02*
X176188809Y-71131180D01*
X176284047Y-71274038D01*
X176379285Y-71369276D01*
X176474523Y-71416895D01*
%TO.C,C13*%
X174251857Y-117566042D02*
X174299476Y-117613661D01*
X174442333Y-117661280D01*
X174537571Y-117661280D01*
X174680428Y-117613661D01*
X174775666Y-117518423D01*
X174823285Y-117423185D01*
X174870904Y-117232709D01*
X174870904Y-117089852D01*
X174823285Y-116899376D01*
X174775666Y-116804138D01*
X174680428Y-116708900D01*
X174537571Y-116661280D01*
X174442333Y-116661280D01*
X174299476Y-116708900D01*
X174251857Y-116756519D01*
X173299476Y-117661280D02*
X173870904Y-117661280D01*
X173585190Y-117661280D02*
X173585190Y-116661280D01*
X173680428Y-116804138D01*
X173775666Y-116899376D01*
X173870904Y-116946995D01*
X172966142Y-116661280D02*
X172347095Y-116661280D01*
X172680428Y-117042233D01*
X172537571Y-117042233D01*
X172442333Y-117089852D01*
X172394714Y-117137471D01*
X172347095Y-117232709D01*
X172347095Y-117470804D01*
X172394714Y-117566042D01*
X172442333Y-117613661D01*
X172537571Y-117661280D01*
X172823285Y-117661280D01*
X172918523Y-117613661D01*
X172966142Y-117566042D01*
%TO.C,C15*%
X135897857Y-110516942D02*
X135945476Y-110564561D01*
X136088333Y-110612180D01*
X136183571Y-110612180D01*
X136326428Y-110564561D01*
X136421666Y-110469323D01*
X136469285Y-110374085D01*
X136516904Y-110183609D01*
X136516904Y-110040752D01*
X136469285Y-109850276D01*
X136421666Y-109755038D01*
X136326428Y-109659800D01*
X136183571Y-109612180D01*
X136088333Y-109612180D01*
X135945476Y-109659800D01*
X135897857Y-109707419D01*
X134945476Y-110612180D02*
X135516904Y-110612180D01*
X135231190Y-110612180D02*
X135231190Y-109612180D01*
X135326428Y-109755038D01*
X135421666Y-109850276D01*
X135516904Y-109897895D01*
X134040714Y-109612180D02*
X134516904Y-109612180D01*
X134564523Y-110088371D01*
X134516904Y-110040752D01*
X134421666Y-109993133D01*
X134183571Y-109993133D01*
X134088333Y-110040752D01*
X134040714Y-110088371D01*
X133993095Y-110183609D01*
X133993095Y-110421704D01*
X134040714Y-110516942D01*
X134088333Y-110564561D01*
X134183571Y-110612180D01*
X134421666Y-110612180D01*
X134516904Y-110564561D01*
X134564523Y-110516942D01*
%TO.C,J2*%
X143919533Y-69022980D02*
X143919533Y-69737266D01*
X143967152Y-69880123D01*
X144062390Y-69975361D01*
X144205247Y-70022980D01*
X144300485Y-70022980D01*
X143490961Y-69118219D02*
X143443342Y-69070600D01*
X143348104Y-69022980D01*
X143110009Y-69022980D01*
X143014771Y-69070600D01*
X142967152Y-69118219D01*
X142919533Y-69213457D01*
X142919533Y-69308695D01*
X142967152Y-69451552D01*
X143538580Y-70022980D01*
X142919533Y-70022980D01*
%TO.C,TH1*%
X175874714Y-125049180D02*
X175303285Y-125049180D01*
X175589000Y-126049180D02*
X175589000Y-125049180D01*
X174969952Y-126049180D02*
X174969952Y-125049180D01*
X174969952Y-125525371D02*
X174398523Y-125525371D01*
X174398523Y-126049180D02*
X174398523Y-125049180D01*
X173398523Y-126049180D02*
X173969952Y-126049180D01*
X173684238Y-126049180D02*
X173684238Y-125049180D01*
X173779476Y-125192038D01*
X173874714Y-125287276D01*
X173969952Y-125334895D01*
D11*
%TO.C,C2*%
X179224000Y-100135548D02*
X179224000Y-100658052D01*
X177754000Y-100135548D02*
X177754000Y-100658052D01*
%TO.C,R16*%
X138354000Y-107323864D02*
X138354000Y-106869736D01*
X139824000Y-107323864D02*
X139824000Y-106869736D01*
%TO.C,U3*%
X151059000Y-119086800D02*
X150334000Y-119086800D01*
X150334000Y-114866800D02*
X150334000Y-115591800D01*
X153829000Y-114866800D02*
X154554000Y-114866800D01*
X154554000Y-114866800D02*
X154554000Y-115591800D01*
X153829000Y-119086800D02*
X154554000Y-119086800D01*
X154554000Y-119086800D02*
X154554000Y-118361800D01*
X151059000Y-114866800D02*
X150334000Y-114866800D01*
%TO.C,C8*%
X145774000Y-106495552D02*
X145774000Y-105973048D01*
X144304000Y-106495552D02*
X144304000Y-105973048D01*
%TO.C,R18*%
X169224000Y-72144736D02*
X169224000Y-72598864D01*
X167754000Y-72144736D02*
X167754000Y-72598864D01*
%TO.C,U1*%
X173100400Y-101642600D02*
X173100400Y-100142600D01*
X176320400Y-101642600D02*
X176320400Y-104567600D01*
X173100400Y-101642600D02*
X173100400Y-103142600D01*
X176320400Y-101642600D02*
X176320400Y-100142600D01*
%TO.C,R1*%
X134907664Y-76781800D02*
X133453536Y-76781800D01*
X134907664Y-74961800D02*
X133453536Y-74961800D01*
%TO.C,TP1*%
X125670000Y-111241800D02*
X125670000Y-111301800D01*
X128330000Y-108641800D02*
X127000000Y-108641800D01*
X128330000Y-111241800D02*
X125670000Y-111241800D01*
X128330000Y-111301800D02*
X125670000Y-111301800D01*
X128330000Y-109971800D02*
X128330000Y-108641800D01*
X128330000Y-111241800D02*
X128330000Y-111301800D01*
%TO.C,R8*%
X142816436Y-91879000D02*
X143270564Y-91879000D01*
X142816436Y-90409000D02*
X143270564Y-90409000D01*
%TO.C,TP2*%
X148719000Y-100021800D02*
X148719000Y-98691800D01*
X148719000Y-101351800D02*
X146059000Y-101351800D01*
X148719000Y-98691800D02*
X147389000Y-98691800D01*
X148719000Y-101291800D02*
X148719000Y-101351800D01*
X148719000Y-101291800D02*
X146059000Y-101291800D01*
X146059000Y-101291800D02*
X146059000Y-101351800D01*
%TO.C,C12*%
X158340248Y-94536800D02*
X158862752Y-94536800D01*
X158340248Y-96006800D02*
X158862752Y-96006800D01*
%TO.C,C11*%
X159102748Y-117506800D02*
X159625252Y-117506800D01*
X159102748Y-116036800D02*
X159625252Y-116036800D01*
%TO.C,U2*%
X141016700Y-96496800D02*
X141016700Y-98446800D01*
X135896700Y-96496800D02*
X135896700Y-98446800D01*
X141016700Y-96496800D02*
X141016700Y-94546800D01*
X135896700Y-96496800D02*
X135896700Y-93046800D01*
%TO.C,C6*%
X133404000Y-98460552D02*
X133404000Y-97938048D01*
X134874000Y-98460552D02*
X134874000Y-97938048D01*
%TO.C,R24*%
X152954000Y-94423864D02*
X152954000Y-93969736D01*
X154424000Y-94423864D02*
X154424000Y-93969736D01*
%TO.C,C4*%
X138354000Y-102598048D02*
X138354000Y-103120552D01*
X139824000Y-102598048D02*
X139824000Y-103120552D01*
%TO.C,F1*%
X128279000Y-69985548D02*
X128279000Y-72758052D01*
X131699000Y-69985548D02*
X131699000Y-72758052D01*
%TO.C,F2*%
X185274000Y-92435548D02*
X185274000Y-95208052D01*
X181854000Y-92435548D02*
X181854000Y-95208052D01*
%TO.C,C1*%
X137571044Y-88086961D02*
X138093548Y-88086961D01*
X137571044Y-89556961D02*
X138093548Y-89556961D01*
%TO.C,R10*%
X171549000Y-108094736D02*
X171549000Y-108548864D01*
X170079000Y-108094736D02*
X170079000Y-108548864D01*
%TO.C,R5*%
X157795000Y-110573864D02*
X157795000Y-110119736D01*
X159265000Y-110573864D02*
X159265000Y-110119736D01*
%TO.C,R28*%
X172857936Y-122832800D02*
X173312064Y-122832800D01*
X172857936Y-121362800D02*
X173312064Y-121362800D01*
%TO.C,L2*%
X179169000Y-92501800D02*
X179169000Y-91651800D01*
X178559000Y-91041800D02*
X173059000Y-91041800D01*
X179169000Y-97151800D02*
X179169000Y-96301800D01*
X173059000Y-97761800D02*
X178559000Y-97761800D01*
X172449000Y-91651800D02*
X172449000Y-92501800D01*
X172449000Y-96301800D02*
X172449000Y-97151800D01*
X173059000Y-91041800D02*
G75*
G03*
X172449000Y-91651800I0J-610000D01*
G01*
X172449000Y-97151800D02*
G75*
G03*
X173059000Y-97761800I610000J0D01*
G01*
X179169000Y-91651800D02*
G75*
G03*
X178559000Y-91041800I-610000J0D01*
G01*
X178559000Y-97761800D02*
G75*
G03*
X179169000Y-97151800I0J610000D01*
G01*
%TO.C,L1*%
X134085000Y-101042800D02*
X128805000Y-101042800D01*
X128805000Y-101042800D02*
X128805000Y-101987800D01*
X134085000Y-106322800D02*
X128805000Y-106322800D01*
X134085000Y-101987800D02*
X134085000Y-101042800D01*
X128805000Y-106322800D02*
X128805000Y-105377800D01*
X134085000Y-105377800D02*
X134085000Y-106322800D01*
%TO.C,U5*%
X177927762Y-117835992D02*
X177927762Y-115385992D01*
X181147762Y-116035992D02*
X181147762Y-117835992D01*
%TO.C,C14*%
X135110248Y-82706800D02*
X135632752Y-82706800D01*
X135110248Y-84176800D02*
X135632752Y-84176800D01*
%TO.C,C3*%
X137569748Y-90584000D02*
X138092252Y-90584000D01*
X137569748Y-92054000D02*
X138092252Y-92054000D01*
%TO.C,R9*%
X139202936Y-75134800D02*
X139657064Y-75134800D01*
X139202936Y-76604800D02*
X139657064Y-76604800D01*
%TO.C,C9*%
X153240248Y-121556800D02*
X153762752Y-121556800D01*
X153240248Y-120086800D02*
X153762752Y-120086800D01*
%TO.C,R25*%
X141004000Y-105969736D02*
X141004000Y-106423864D01*
X142474000Y-105969736D02*
X142474000Y-106423864D01*
%TO.C,R27*%
X141490236Y-87300400D02*
X141944364Y-87300400D01*
X141490236Y-85830400D02*
X141944364Y-85830400D01*
%TO.C,R7*%
X183461936Y-119031800D02*
X183916064Y-119031800D01*
X183461936Y-117561800D02*
X183916064Y-117561800D01*
%TO.C,U4*%
X159199000Y-98496800D02*
X159199000Y-100946800D01*
X155979000Y-100296800D02*
X155979000Y-98496800D01*
%TO.C,TP7*%
X182626762Y-67741800D02*
X179966762Y-67741800D01*
X179966762Y-67741800D02*
X179966762Y-67801800D01*
X182626762Y-66471800D02*
X182626762Y-65141800D01*
X182626762Y-67741800D02*
X182626762Y-67801800D01*
X182626762Y-67801800D02*
X179966762Y-67801800D01*
X182626762Y-65141800D02*
X181296762Y-65141800D01*
%TO.C,U10*%
X177839000Y-73796800D02*
X173979000Y-73796800D01*
X177839000Y-85566800D02*
X181699000Y-85566800D01*
X181699000Y-85566800D02*
X181699000Y-85321800D01*
X173979000Y-73796800D02*
X173979000Y-74041800D01*
X177839000Y-85566800D02*
X173979000Y-85566800D01*
X177839000Y-73796800D02*
X181699000Y-73796800D01*
X181699000Y-74041800D02*
X183514000Y-74041800D01*
X181699000Y-73796800D02*
X181699000Y-74041800D01*
X173979000Y-85566800D02*
X173979000Y-85321800D01*
%TO.C,R26*%
X186026936Y-82956800D02*
X186481064Y-82956800D01*
X186026936Y-81486800D02*
X186481064Y-81486800D01*
%TO.C,R17*%
X169654000Y-81173864D02*
X169654000Y-80719736D01*
X171124000Y-81173864D02*
X171124000Y-80719736D01*
%TO.C,J1*%
X169149000Y-122886800D02*
X169149000Y-121671800D01*
X164229000Y-122886800D02*
X165149000Y-122886800D01*
X169089000Y-126846800D02*
X169089000Y-129106800D01*
X169149000Y-122886800D02*
X169429000Y-122886800D01*
X165149000Y-121286800D02*
X165149000Y-122886800D01*
X164989000Y-126846800D02*
X165989000Y-126846800D01*
X168589000Y-126846800D02*
X168589000Y-125246800D01*
X167789000Y-129106800D02*
X167789000Y-124746800D01*
X166789000Y-124746800D02*
X166789000Y-129106800D01*
X165989000Y-126846800D02*
X165989000Y-125246800D01*
X170349000Y-122886800D02*
X169429000Y-122886800D01*
X164229000Y-129106800D02*
X164229000Y-121286800D01*
X165989000Y-125246800D02*
X164989000Y-125246800D01*
X168589000Y-126846800D02*
X168589000Y-129106800D01*
X170349000Y-121286800D02*
X170349000Y-129106800D01*
X167789000Y-124746800D02*
X166789000Y-124746800D01*
X169429000Y-122886800D02*
X169429000Y-121286800D01*
X168589000Y-125246800D02*
X169589000Y-125246800D01*
X164229000Y-121286800D02*
X165149000Y-121286800D01*
X169589000Y-125246800D02*
X169589000Y-126846800D01*
X165149000Y-122886800D02*
X165429000Y-122886800D01*
X169589000Y-126846800D02*
X168589000Y-126846800D01*
X170349000Y-129106800D02*
X164229000Y-129106800D01*
X164989000Y-125246800D02*
X164989000Y-126846800D01*
X169429000Y-121286800D02*
X170349000Y-121286800D01*
%TO.C,U6*%
X135080600Y-81876000D02*
X132630600Y-81876000D01*
X133280600Y-78656000D02*
X135080600Y-78656000D01*
%TO.C,C5*%
X170179000Y-102970552D02*
X170179000Y-102448048D01*
X171649000Y-102970552D02*
X171649000Y-102448048D01*
%TO.C,TP3*%
X169097000Y-105587800D02*
X169097000Y-104257800D01*
X169097000Y-106917800D02*
X166437000Y-106917800D01*
X169097000Y-106857800D02*
X166437000Y-106857800D01*
X166437000Y-106857800D02*
X166437000Y-106917800D01*
X169097000Y-106857800D02*
X169097000Y-106917800D01*
X169097000Y-104257800D02*
X167767000Y-104257800D01*
%TO.C,TP4*%
X139159000Y-72141800D02*
X139159000Y-72201800D01*
X141819000Y-69541800D02*
X140489000Y-69541800D01*
X141819000Y-72201800D02*
X139159000Y-72201800D01*
X141819000Y-72141800D02*
X139159000Y-72141800D01*
X141819000Y-70871800D02*
X141819000Y-69541800D01*
X141819000Y-72141800D02*
X141819000Y-72201800D01*
%TO.C,F3*%
X161375252Y-118611800D02*
X158602748Y-118611800D01*
X161375252Y-122031800D02*
X158602748Y-122031800D01*
%TO.C,C10*%
X147479000Y-122023048D02*
X147479000Y-122545552D01*
X148949000Y-122023048D02*
X148949000Y-122545552D01*
%TO.C,R19*%
X142511936Y-101186800D02*
X142966064Y-101186800D01*
X142511936Y-102656800D02*
X142966064Y-102656800D01*
%TO.C,R4*%
X160335000Y-110573864D02*
X160335000Y-110119736D01*
X161805000Y-110573864D02*
X161805000Y-110119736D01*
%TO.C,C7*%
X179365248Y-111911800D02*
X179887752Y-111911800D01*
X179365248Y-113381800D02*
X179887752Y-113381800D01*
%TO.C,R23*%
X154590600Y-98699536D02*
X154590600Y-100153664D01*
X152770600Y-98699536D02*
X152770600Y-100153664D01*
%TO.C,R22*%
X147216064Y-119606800D02*
X146761936Y-119606800D01*
X147216064Y-118136800D02*
X146761936Y-118136800D01*
%TO.C,R2*%
X174011936Y-106711800D02*
X174466064Y-106711800D01*
X174011936Y-108181800D02*
X174466064Y-108181800D01*
%TO.C,C21*%
X173727748Y-72606800D02*
X174250252Y-72606800D01*
X173727748Y-71136800D02*
X174250252Y-71136800D01*
%TO.C,C13*%
X175279000Y-117495552D02*
X175279000Y-116973048D01*
X176749000Y-117495552D02*
X176749000Y-116973048D01*
%TO.C,C15*%
X131532248Y-109234000D02*
X132054752Y-109234000D01*
X131532248Y-110704000D02*
X132054752Y-110704000D01*
D10*
%TO.C,J2*%
X151637000Y-64471800D02*
X151637000Y-68471800D01*
X144637000Y-68171800D02*
X142637000Y-68171800D01*
X135637000Y-64471800D02*
X151637000Y-64471800D01*
X142637000Y-68171800D02*
X142637000Y-68471800D01*
X144637000Y-68471800D02*
X144637000Y-68171800D01*
X142637000Y-68471800D02*
X135637000Y-68471800D01*
X135637000Y-68471800D02*
X135637000Y-64471800D01*
X151637000Y-68471800D02*
X144637000Y-68471800D01*
D11*
%TO.C,TH1*%
X171329000Y-125898864D02*
X171329000Y-125444736D01*
X172799000Y-125898864D02*
X172799000Y-125444736D01*
%TD*%
M02*
