%TF.GenerationSoftware,KiCad,Pcbnew,(6.0.5)*%
%TF.CreationDate,2022-12-16T06:33:13-05:00*%
%TF.ProjectId,Dev_Board_Adapter,4465765f-426f-4617-9264-5f4164617074,rev?*%
%TF.SameCoordinates,Original*%
%TF.FileFunction,Legend,Top*%
%TF.FilePolarity,Positive*%
%FSLAX45Y45*%
G04 Gerber Fmt 4.5, Leading zero omitted, Abs format (unit mm)*
G04 Created by KiCad (PCBNEW (6.0.5)) date 2022-12-16 06:33:13*
%MOMM*%
%LPD*%
G01*
G04 APERTURE LIST*
%ADD10C,0.150000*%
%ADD11C,0.120000*%
%ADD12C,0.010000*%
G04 APERTURE END LIST*
D10*
X11399038Y-7083486D02*
X11403800Y-7088248D01*
X11408562Y-7097771D01*
X11408562Y-7121581D01*
X11403800Y-7131105D01*
X11399038Y-7135867D01*
X11389514Y-7140628D01*
X11379990Y-7140628D01*
X11365705Y-7135867D01*
X11308562Y-7078724D01*
X11308562Y-7140628D01*
X11408562Y-7202533D02*
X11408562Y-7212057D01*
X11403800Y-7221581D01*
X11399038Y-7226343D01*
X11389514Y-7231105D01*
X11370467Y-7235867D01*
X11346657Y-7235867D01*
X11327609Y-7231105D01*
X11318086Y-7226343D01*
X11313324Y-7221581D01*
X11308562Y-7212057D01*
X11308562Y-7202533D01*
X11313324Y-7193009D01*
X11318086Y-7188248D01*
X11327609Y-7183486D01*
X11346657Y-7178724D01*
X11370467Y-7178724D01*
X11389514Y-7183486D01*
X11399038Y-7188248D01*
X11403800Y-7193009D01*
X11408562Y-7202533D01*
X11399038Y-7273962D02*
X11403800Y-7278724D01*
X11408562Y-7288248D01*
X11408562Y-7312057D01*
X11403800Y-7321581D01*
X11399038Y-7326343D01*
X11389514Y-7331105D01*
X11379990Y-7331105D01*
X11365705Y-7326343D01*
X11308562Y-7269200D01*
X11308562Y-7331105D01*
X11399038Y-7369200D02*
X11403800Y-7373962D01*
X11408562Y-7383486D01*
X11408562Y-7407295D01*
X11403800Y-7416819D01*
X11399038Y-7421581D01*
X11389514Y-7426343D01*
X11379990Y-7426343D01*
X11365705Y-7421581D01*
X11308562Y-7364438D01*
X11308562Y-7426343D01*
X11346657Y-7469200D02*
X11346657Y-7545390D01*
X11308562Y-7645390D02*
X11308562Y-7588248D01*
X11308562Y-7616819D02*
X11408562Y-7616819D01*
X11394276Y-7607295D01*
X11384752Y-7597771D01*
X11379990Y-7588248D01*
X11399038Y-7683486D02*
X11403800Y-7688248D01*
X11408562Y-7697771D01*
X11408562Y-7721581D01*
X11403800Y-7731105D01*
X11399038Y-7735867D01*
X11389514Y-7740628D01*
X11379990Y-7740628D01*
X11365705Y-7735867D01*
X11308562Y-7678724D01*
X11308562Y-7740628D01*
X11346657Y-7783486D02*
X11346657Y-7859676D01*
X11408562Y-7926343D02*
X11408562Y-7935867D01*
X11403800Y-7945390D01*
X11399038Y-7950152D01*
X11389514Y-7954914D01*
X11370467Y-7959676D01*
X11346657Y-7959676D01*
X11327609Y-7954914D01*
X11318086Y-7950152D01*
X11313324Y-7945390D01*
X11308562Y-7935867D01*
X11308562Y-7926343D01*
X11313324Y-7916819D01*
X11318086Y-7912057D01*
X11327609Y-7907295D01*
X11346657Y-7902533D01*
X11370467Y-7902533D01*
X11389514Y-7907295D01*
X11399038Y-7912057D01*
X11403800Y-7916819D01*
X11408562Y-7926343D01*
X11308562Y-8007295D02*
X11308562Y-8026343D01*
X11313324Y-8035867D01*
X11318086Y-8040628D01*
X11332371Y-8050152D01*
X11351419Y-8054914D01*
X11389514Y-8054914D01*
X11399038Y-8050152D01*
X11403800Y-8045390D01*
X11408562Y-8035867D01*
X11408562Y-8016819D01*
X11403800Y-8007295D01*
X11399038Y-8002533D01*
X11389514Y-7997771D01*
X11365705Y-7997771D01*
X11356181Y-8002533D01*
X11351419Y-8007295D01*
X11346657Y-8016819D01*
X11346657Y-8035867D01*
X11351419Y-8045390D01*
X11356181Y-8050152D01*
X11365705Y-8054914D01*
X11459362Y-9063867D02*
X11387933Y-9063867D01*
X11373648Y-9059105D01*
X11364124Y-9049581D01*
X11359362Y-9035295D01*
X11359362Y-9025771D01*
X11368886Y-9111486D02*
X11364124Y-9116248D01*
X11359362Y-9111486D01*
X11364124Y-9106724D01*
X11368886Y-9111486D01*
X11359362Y-9111486D01*
X11359362Y-9235295D02*
X11459362Y-9235295D01*
X11459362Y-9259105D01*
X11454600Y-9273390D01*
X11445076Y-9282914D01*
X11435552Y-9287676D01*
X11416505Y-9292438D01*
X11402219Y-9292438D01*
X11383171Y-9287676D01*
X11373648Y-9282914D01*
X11364124Y-9273390D01*
X11359362Y-9259105D01*
X11359362Y-9235295D01*
X11359362Y-9349581D02*
X11364124Y-9340057D01*
X11368886Y-9335295D01*
X11378409Y-9330533D01*
X11406981Y-9330533D01*
X11416505Y-9335295D01*
X11421267Y-9340057D01*
X11426028Y-9349581D01*
X11426028Y-9363867D01*
X11421267Y-9373390D01*
X11416505Y-9378152D01*
X11406981Y-9382914D01*
X11378409Y-9382914D01*
X11368886Y-9378152D01*
X11364124Y-9373390D01*
X11359362Y-9363867D01*
X11359362Y-9349581D01*
X11359362Y-9440057D02*
X11364124Y-9430533D01*
X11373648Y-9425771D01*
X11459362Y-9425771D01*
X11359362Y-9478152D02*
X11426028Y-9478152D01*
X11459362Y-9478152D02*
X11454600Y-9473390D01*
X11449838Y-9478152D01*
X11454600Y-9482914D01*
X11459362Y-9478152D01*
X11449838Y-9478152D01*
X11426028Y-9525771D02*
X11359362Y-9525771D01*
X11416505Y-9525771D02*
X11421267Y-9530533D01*
X11426028Y-9540057D01*
X11426028Y-9554343D01*
X11421267Y-9563867D01*
X11411743Y-9568629D01*
X11359362Y-9568629D01*
X11359362Y-9659105D02*
X11411743Y-9659105D01*
X11421267Y-9654343D01*
X11426028Y-9644819D01*
X11426028Y-9625771D01*
X11421267Y-9616248D01*
X11364124Y-9659105D02*
X11359362Y-9649581D01*
X11359362Y-9625771D01*
X11364124Y-9616248D01*
X11373648Y-9611486D01*
X11383171Y-9611486D01*
X11392695Y-9616248D01*
X11397457Y-9625771D01*
X11397457Y-9649581D01*
X11402219Y-9659105D01*
X11984828Y-9204343D02*
X11918162Y-9228152D01*
X11984828Y-9251962D01*
X11918162Y-9342438D02*
X11918162Y-9285295D01*
X11918162Y-9313867D02*
X12018162Y-9313867D01*
X12003876Y-9304343D01*
X11994352Y-9294819D01*
X11989590Y-9285295D01*
X11927686Y-9385295D02*
X11922924Y-9390057D01*
X11918162Y-9385295D01*
X11922924Y-9380533D01*
X11927686Y-9385295D01*
X11918162Y-9385295D01*
X12018162Y-9451962D02*
X12018162Y-9461486D01*
X12013400Y-9471010D01*
X12008638Y-9475771D01*
X11999114Y-9480533D01*
X11980067Y-9485295D01*
X11956257Y-9485295D01*
X11937209Y-9480533D01*
X11927686Y-9475771D01*
X11922924Y-9471010D01*
X11918162Y-9461486D01*
X11918162Y-9451962D01*
X11922924Y-9442438D01*
X11927686Y-9437676D01*
X11937209Y-9432914D01*
X11956257Y-9428152D01*
X11980067Y-9428152D01*
X11999114Y-9432914D01*
X12008638Y-9437676D01*
X12013400Y-9442438D01*
X12018162Y-9451962D01*
X11949124Y-7067676D02*
X12149124Y-7067676D01*
X12149124Y-7143867D01*
X12139600Y-7162914D01*
X12130076Y-7172438D01*
X12111028Y-7181962D01*
X12082457Y-7181962D01*
X12063409Y-7172438D01*
X12053886Y-7162914D01*
X12044362Y-7143867D01*
X12044362Y-7067676D01*
X11949124Y-7353390D02*
X12053886Y-7353390D01*
X12072933Y-7343867D01*
X12082457Y-7324819D01*
X12082457Y-7286724D01*
X12072933Y-7267676D01*
X11958648Y-7353390D02*
X11949124Y-7334343D01*
X11949124Y-7286724D01*
X11958648Y-7267676D01*
X11977695Y-7258152D01*
X11996743Y-7258152D01*
X12015790Y-7267676D01*
X12025314Y-7286724D01*
X12025314Y-7334343D01*
X12034838Y-7353390D01*
X11949124Y-7448628D02*
X12082457Y-7448628D01*
X12149124Y-7448628D02*
X12139600Y-7439105D01*
X12130076Y-7448628D01*
X12139600Y-7458152D01*
X12149124Y-7448628D01*
X12130076Y-7448628D01*
X11949124Y-7629581D02*
X12149124Y-7629581D01*
X11958648Y-7629581D02*
X11949124Y-7610533D01*
X11949124Y-7572438D01*
X11958648Y-7553390D01*
X11968171Y-7543867D01*
X11987219Y-7534343D01*
X12044362Y-7534343D01*
X12063409Y-7543867D01*
X12072933Y-7553390D01*
X12082457Y-7572438D01*
X12082457Y-7610533D01*
X12072933Y-7629581D01*
X11958648Y-7867676D02*
X11949124Y-7896248D01*
X11949124Y-7943867D01*
X11958648Y-7962914D01*
X11968171Y-7972438D01*
X11987219Y-7981962D01*
X12006267Y-7981962D01*
X12025314Y-7972438D01*
X12034838Y-7962914D01*
X12044362Y-7943867D01*
X12053886Y-7905771D01*
X12063409Y-7886724D01*
X12072933Y-7877200D01*
X12091981Y-7867676D01*
X12111028Y-7867676D01*
X12130076Y-7877200D01*
X12139600Y-7886724D01*
X12149124Y-7905771D01*
X12149124Y-7953390D01*
X12139600Y-7981962D01*
X11949124Y-8067676D02*
X12082457Y-8067676D01*
X12149124Y-8067676D02*
X12139600Y-8058152D01*
X12130076Y-8067676D01*
X12139600Y-8077200D01*
X12149124Y-8067676D01*
X12130076Y-8067676D01*
X11958648Y-8248628D02*
X11949124Y-8229581D01*
X11949124Y-8191486D01*
X11958648Y-8172438D01*
X11968171Y-8162914D01*
X11987219Y-8153390D01*
X12044362Y-8153390D01*
X12063409Y-8162914D01*
X12072933Y-8172438D01*
X12082457Y-8191486D01*
X12082457Y-8229581D01*
X12072933Y-8248628D01*
X11949124Y-8334343D02*
X12149124Y-8334343D01*
X12025314Y-8353390D02*
X11949124Y-8410533D01*
X12082457Y-8410533D02*
X12006267Y-8334343D01*
X11949124Y-8648629D02*
X12149124Y-8648629D01*
X12149124Y-8696248D01*
X12139600Y-8724819D01*
X12120552Y-8743867D01*
X12101505Y-8753390D01*
X12063409Y-8762914D01*
X12034838Y-8762914D01*
X11996743Y-8753390D01*
X11977695Y-8743867D01*
X11958648Y-8724819D01*
X11949124Y-8696248D01*
X11949124Y-8648629D01*
X11949124Y-8934343D02*
X12053886Y-8934343D01*
X12072933Y-8924819D01*
X12082457Y-8905771D01*
X12082457Y-8867676D01*
X12072933Y-8848629D01*
X11958648Y-8934343D02*
X11949124Y-8915295D01*
X11949124Y-8867676D01*
X11958648Y-8848629D01*
X11977695Y-8839105D01*
X11996743Y-8839105D01*
X12015790Y-8848629D01*
X12025314Y-8867676D01*
X12025314Y-8915295D01*
X12034838Y-8934343D01*
X12082457Y-9010533D02*
X11949124Y-9058152D01*
X12082457Y-9105771D02*
X11949124Y-9058152D01*
X11901505Y-9039105D01*
X11891981Y-9029581D01*
X11882457Y-9010533D01*
%TO.C,J3*%
X12819067Y-7539838D02*
X12819067Y-7611267D01*
X12814305Y-7625552D01*
X12804781Y-7635076D01*
X12790495Y-7639838D01*
X12780971Y-7639838D01*
X12857162Y-7539838D02*
X12919067Y-7539838D01*
X12885733Y-7577933D01*
X12900019Y-7577933D01*
X12909543Y-7582695D01*
X12914305Y-7587457D01*
X12919067Y-7596981D01*
X12919067Y-7620790D01*
X12914305Y-7630314D01*
X12909543Y-7635076D01*
X12900019Y-7639838D01*
X12871448Y-7639838D01*
X12861924Y-7635076D01*
X12857162Y-7630314D01*
%TO.C,J1*%
X12898467Y-8600238D02*
X12898467Y-8671667D01*
X12893705Y-8685952D01*
X12884181Y-8695476D01*
X12869895Y-8700238D01*
X12860371Y-8700238D01*
X12998467Y-8700238D02*
X12941324Y-8700238D01*
X12969895Y-8700238D02*
X12969895Y-8600238D01*
X12960371Y-8614524D01*
X12950848Y-8624048D01*
X12941324Y-8628810D01*
D11*
%TO.C,J3*%
X12954000Y-7473600D02*
X12821000Y-7473600D01*
X13081000Y-7473600D02*
X13595000Y-7473600D01*
X13081000Y-7207600D02*
X13595000Y-7207600D01*
X13081000Y-7473600D02*
X13081000Y-7207600D01*
X12821000Y-7473600D02*
X12821000Y-7340600D01*
X13595000Y-7473600D02*
X13595000Y-7207600D01*
D10*
%TO.C,J1*%
X13405000Y-8732800D02*
X13405000Y-8532800D01*
X13435000Y-8732800D02*
X13405000Y-8732800D01*
X13035000Y-9432800D02*
X13435000Y-9432800D01*
X13405000Y-8532800D02*
X13435000Y-8532800D01*
X13435000Y-9432800D02*
X13435000Y-8732800D01*
X13435000Y-8532800D02*
X13435000Y-7832800D01*
X13035000Y-7832800D02*
X13035000Y-9432800D01*
X13435000Y-7832800D02*
X13035000Y-7832800D01*
%TO.C,G\u002A\u002A\u002A*%
G36*
X11761189Y-7198235D02*
G01*
X11770487Y-7197348D01*
X11779389Y-7196509D01*
X11787798Y-7195726D01*
X11795616Y-7195008D01*
X11802746Y-7194363D01*
X11809090Y-7193801D01*
X11814552Y-7193329D01*
X11819034Y-7192957D01*
X11822438Y-7192693D01*
X11824668Y-7192546D01*
X11825626Y-7192523D01*
X11825655Y-7192532D01*
X11825487Y-7193249D01*
X11824817Y-7195094D01*
X11823703Y-7197924D01*
X11822203Y-7201594D01*
X11820378Y-7205960D01*
X11818286Y-7210877D01*
X11815986Y-7216202D01*
X11815938Y-7216312D01*
X11813623Y-7221639D01*
X11811493Y-7226551D01*
X11809610Y-7230905D01*
X11808036Y-7234560D01*
X11806832Y-7237370D01*
X11806059Y-7239195D01*
X11805781Y-7239889D01*
X11805781Y-7239891D01*
X11806374Y-7240258D01*
X11808090Y-7241246D01*
X11810833Y-7242800D01*
X11814508Y-7244868D01*
X11819019Y-7247395D01*
X11824272Y-7250329D01*
X11830171Y-7253617D01*
X11836620Y-7257204D01*
X11843524Y-7261038D01*
X11850293Y-7264791D01*
X11857539Y-7268815D01*
X11864419Y-7272653D01*
X11870836Y-7276252D01*
X11876696Y-7279556D01*
X11881903Y-7282511D01*
X11886362Y-7285064D01*
X11889976Y-7287159D01*
X11892651Y-7288742D01*
X11894291Y-7289758D01*
X11894803Y-7290148D01*
X11894209Y-7290591D01*
X11892493Y-7291652D01*
X11889751Y-7293273D01*
X11886078Y-7295402D01*
X11881573Y-7297982D01*
X11876331Y-7300958D01*
X11870448Y-7304276D01*
X11864022Y-7307881D01*
X11857148Y-7311718D01*
X11851161Y-7315045D01*
X11843963Y-7319037D01*
X11837110Y-7322840D01*
X11830701Y-7326398D01*
X11824834Y-7329657D01*
X11819609Y-7332562D01*
X11815124Y-7335057D01*
X11811479Y-7337087D01*
X11808773Y-7338598D01*
X11807104Y-7339534D01*
X11806580Y-7339833D01*
X11806440Y-7340256D01*
X11806605Y-7341241D01*
X11807115Y-7342891D01*
X11808009Y-7345309D01*
X11809327Y-7348596D01*
X11811108Y-7352855D01*
X11813392Y-7358188D01*
X11815861Y-7363878D01*
X11818174Y-7369223D01*
X11820280Y-7374163D01*
X11822121Y-7378555D01*
X11823637Y-7382256D01*
X11824771Y-7385120D01*
X11825462Y-7387004D01*
X11825652Y-7387765D01*
X11825648Y-7387770D01*
X11824908Y-7387768D01*
X11822879Y-7387639D01*
X11819660Y-7387393D01*
X11815348Y-7387037D01*
X11810039Y-7386580D01*
X11803833Y-7386032D01*
X11796824Y-7385399D01*
X11789112Y-7384692D01*
X11780794Y-7383919D01*
X11771965Y-7383088D01*
X11762725Y-7382208D01*
X11761189Y-7382061D01*
X11751894Y-7381172D01*
X11742999Y-7380328D01*
X11734599Y-7379538D01*
X11726792Y-7378810D01*
X11719676Y-7378153D01*
X11713346Y-7377576D01*
X11707900Y-7377088D01*
X11703436Y-7376698D01*
X11700049Y-7376415D01*
X11697838Y-7376246D01*
X11696899Y-7376202D01*
X11696873Y-7376207D01*
X11697269Y-7376765D01*
X11698511Y-7378269D01*
X11700520Y-7380626D01*
X11703214Y-7383743D01*
X11706513Y-7387530D01*
X11710336Y-7391892D01*
X11714604Y-7396738D01*
X11719235Y-7401974D01*
X11723346Y-7406606D01*
X11728231Y-7412111D01*
X11732828Y-7417310D01*
X11737055Y-7422110D01*
X11740832Y-7426417D01*
X11744077Y-7430138D01*
X11746707Y-7433180D01*
X11748641Y-7435447D01*
X11749798Y-7436848D01*
X11750109Y-7437285D01*
X11749954Y-7437498D01*
X11749409Y-7437824D01*
X11748360Y-7438310D01*
X11746691Y-7439000D01*
X11744286Y-7439940D01*
X11741030Y-7441175D01*
X11736806Y-7442750D01*
X11731500Y-7444711D01*
X11725342Y-7446975D01*
X11719711Y-7449043D01*
X11712870Y-7443113D01*
X11703819Y-7435462D01*
X11693910Y-7427437D01*
X11683304Y-7419150D01*
X11672161Y-7410715D01*
X11660642Y-7402244D01*
X11648909Y-7393849D01*
X11637122Y-7385643D01*
X11625443Y-7377738D01*
X11614032Y-7370248D01*
X11603050Y-7363284D01*
X11592659Y-7356959D01*
X11583019Y-7351386D01*
X11576856Y-7348019D01*
X11569738Y-7344240D01*
X11573074Y-7341944D01*
X11579910Y-7337568D01*
X11587878Y-7333034D01*
X11596741Y-7328450D01*
X11606266Y-7323926D01*
X11616218Y-7319570D01*
X11626361Y-7315492D01*
X11626534Y-7315429D01*
X11751388Y-7315429D01*
X11751501Y-7315418D01*
X11752338Y-7315150D01*
X11754385Y-7314505D01*
X11757522Y-7313520D01*
X11761630Y-7312234D01*
X11766590Y-7310683D01*
X11772284Y-7308904D01*
X11778590Y-7306936D01*
X11785391Y-7304814D01*
X11792211Y-7302688D01*
X11799340Y-7300465D01*
X11806063Y-7298366D01*
X11812264Y-7296427D01*
X11817827Y-7294686D01*
X11822637Y-7293177D01*
X11826578Y-7291938D01*
X11829534Y-7291005D01*
X11831390Y-7290413D01*
X11832029Y-7290200D01*
X11831411Y-7289977D01*
X11829579Y-7289376D01*
X11826646Y-7288435D01*
X11822728Y-7287189D01*
X11817938Y-7285674D01*
X11812390Y-7283927D01*
X11806199Y-7281984D01*
X11799480Y-7279881D01*
X11792363Y-7277658D01*
X11785189Y-7275420D01*
X11778397Y-7273299D01*
X11772105Y-7271332D01*
X11766432Y-7269557D01*
X11761498Y-7268011D01*
X11757420Y-7266731D01*
X11754319Y-7265754D01*
X11752312Y-7265118D01*
X11751524Y-7264862D01*
X11751450Y-7265116D01*
X11752203Y-7266139D01*
X11753624Y-7267717D01*
X11753819Y-7267921D01*
X11755869Y-7270383D01*
X11757969Y-7273442D01*
X11759557Y-7276230D01*
X11761916Y-7282441D01*
X11762923Y-7288746D01*
X11762599Y-7295007D01*
X11760966Y-7301087D01*
X11758044Y-7306848D01*
X11754145Y-7311845D01*
X11752558Y-7313626D01*
X11751588Y-7314890D01*
X11751388Y-7315429D01*
X11626534Y-7315429D01*
X11636462Y-7311802D01*
X11641899Y-7309981D01*
X11652602Y-7306697D01*
X11664360Y-7303411D01*
X11676839Y-7300204D01*
X11689705Y-7297160D01*
X11702623Y-7294362D01*
X11713680Y-7292185D01*
X11724224Y-7290213D01*
X11706373Y-7286630D01*
X11687785Y-7282671D01*
X11670471Y-7278501D01*
X11654326Y-7274081D01*
X11639244Y-7269375D01*
X11625120Y-7264344D01*
X11611846Y-7258952D01*
X11599318Y-7253161D01*
X11587429Y-7246933D01*
X11577031Y-7240827D01*
X11574390Y-7239164D01*
X11572214Y-7237743D01*
X11570764Y-7236736D01*
X11570301Y-7236345D01*
X11570736Y-7235828D01*
X11572166Y-7234867D01*
X11574334Y-7233624D01*
X11575715Y-7232896D01*
X11583252Y-7228851D01*
X11591694Y-7223989D01*
X11600900Y-7218408D01*
X11610730Y-7212207D01*
X11621040Y-7205484D01*
X11631690Y-7198339D01*
X11642538Y-7190870D01*
X11653443Y-7183177D01*
X11664262Y-7175357D01*
X11674855Y-7167511D01*
X11685079Y-7159735D01*
X11694793Y-7152130D01*
X11703856Y-7144795D01*
X11712125Y-7137827D01*
X11712870Y-7137183D01*
X11719711Y-7131253D01*
X11725342Y-7133321D01*
X11731786Y-7135690D01*
X11737038Y-7137632D01*
X11741213Y-7139189D01*
X11744425Y-7140408D01*
X11746792Y-7141335D01*
X11748428Y-7142013D01*
X11749449Y-7142489D01*
X11749971Y-7142807D01*
X11750109Y-7143003D01*
X11749660Y-7143612D01*
X11748365Y-7145166D01*
X11746308Y-7147572D01*
X11743569Y-7150735D01*
X11740229Y-7154563D01*
X11736372Y-7158962D01*
X11732077Y-7163838D01*
X11727427Y-7169097D01*
X11723354Y-7173690D01*
X11718481Y-7179186D01*
X11713904Y-7184369D01*
X11709703Y-7189145D01*
X11705958Y-7193422D01*
X11702751Y-7197108D01*
X11700161Y-7200110D01*
X11698269Y-7202337D01*
X11697156Y-7203694D01*
X11696881Y-7204096D01*
X11697599Y-7204072D01*
X11699606Y-7203923D01*
X11702803Y-7203657D01*
X11707095Y-7203282D01*
X11712384Y-7202809D01*
X11718574Y-7202246D01*
X11725566Y-7201601D01*
X11733265Y-7200884D01*
X11741573Y-7200103D01*
X11750393Y-7199267D01*
X11751524Y-7199159D01*
X11759628Y-7198385D01*
X11761189Y-7198235D01*
G37*
D12*
X11761189Y-7198235D02*
X11770487Y-7197348D01*
X11779389Y-7196509D01*
X11787798Y-7195726D01*
X11795616Y-7195008D01*
X11802746Y-7194363D01*
X11809090Y-7193801D01*
X11814552Y-7193329D01*
X11819034Y-7192957D01*
X11822438Y-7192693D01*
X11824668Y-7192546D01*
X11825626Y-7192523D01*
X11825655Y-7192532D01*
X11825487Y-7193249D01*
X11824817Y-7195094D01*
X11823703Y-7197924D01*
X11822203Y-7201594D01*
X11820378Y-7205960D01*
X11818286Y-7210877D01*
X11815986Y-7216202D01*
X11815938Y-7216312D01*
X11813623Y-7221639D01*
X11811493Y-7226551D01*
X11809610Y-7230905D01*
X11808036Y-7234560D01*
X11806832Y-7237370D01*
X11806059Y-7239195D01*
X11805781Y-7239889D01*
X11805781Y-7239891D01*
X11806374Y-7240258D01*
X11808090Y-7241246D01*
X11810833Y-7242800D01*
X11814508Y-7244868D01*
X11819019Y-7247395D01*
X11824272Y-7250329D01*
X11830171Y-7253617D01*
X11836620Y-7257204D01*
X11843524Y-7261038D01*
X11850293Y-7264791D01*
X11857539Y-7268815D01*
X11864419Y-7272653D01*
X11870836Y-7276252D01*
X11876696Y-7279556D01*
X11881903Y-7282511D01*
X11886362Y-7285064D01*
X11889976Y-7287159D01*
X11892651Y-7288742D01*
X11894291Y-7289758D01*
X11894803Y-7290148D01*
X11894209Y-7290591D01*
X11892493Y-7291652D01*
X11889751Y-7293273D01*
X11886078Y-7295402D01*
X11881573Y-7297982D01*
X11876331Y-7300958D01*
X11870448Y-7304276D01*
X11864022Y-7307881D01*
X11857148Y-7311718D01*
X11851161Y-7315045D01*
X11843963Y-7319037D01*
X11837110Y-7322840D01*
X11830701Y-7326398D01*
X11824834Y-7329657D01*
X11819609Y-7332562D01*
X11815124Y-7335057D01*
X11811479Y-7337087D01*
X11808773Y-7338598D01*
X11807104Y-7339534D01*
X11806580Y-7339833D01*
X11806440Y-7340256D01*
X11806605Y-7341241D01*
X11807115Y-7342891D01*
X11808009Y-7345309D01*
X11809327Y-7348596D01*
X11811108Y-7352855D01*
X11813392Y-7358188D01*
X11815861Y-7363878D01*
X11818174Y-7369223D01*
X11820280Y-7374163D01*
X11822121Y-7378555D01*
X11823637Y-7382256D01*
X11824771Y-7385120D01*
X11825462Y-7387004D01*
X11825652Y-7387765D01*
X11825648Y-7387770D01*
X11824908Y-7387768D01*
X11822879Y-7387639D01*
X11819660Y-7387393D01*
X11815348Y-7387037D01*
X11810039Y-7386580D01*
X11803833Y-7386032D01*
X11796824Y-7385399D01*
X11789112Y-7384692D01*
X11780794Y-7383919D01*
X11771965Y-7383088D01*
X11762725Y-7382208D01*
X11761189Y-7382061D01*
X11751894Y-7381172D01*
X11742999Y-7380328D01*
X11734599Y-7379538D01*
X11726792Y-7378810D01*
X11719676Y-7378153D01*
X11713346Y-7377576D01*
X11707900Y-7377088D01*
X11703436Y-7376698D01*
X11700049Y-7376415D01*
X11697838Y-7376246D01*
X11696899Y-7376202D01*
X11696873Y-7376207D01*
X11697269Y-7376765D01*
X11698511Y-7378269D01*
X11700520Y-7380626D01*
X11703214Y-7383743D01*
X11706513Y-7387530D01*
X11710336Y-7391892D01*
X11714604Y-7396738D01*
X11719235Y-7401974D01*
X11723346Y-7406606D01*
X11728231Y-7412111D01*
X11732828Y-7417310D01*
X11737055Y-7422110D01*
X11740832Y-7426417D01*
X11744077Y-7430138D01*
X11746707Y-7433180D01*
X11748641Y-7435447D01*
X11749798Y-7436848D01*
X11750109Y-7437285D01*
X11749954Y-7437498D01*
X11749409Y-7437824D01*
X11748360Y-7438310D01*
X11746691Y-7439000D01*
X11744286Y-7439940D01*
X11741030Y-7441175D01*
X11736806Y-7442750D01*
X11731500Y-7444711D01*
X11725342Y-7446975D01*
X11719711Y-7449043D01*
X11712870Y-7443113D01*
X11703819Y-7435462D01*
X11693910Y-7427437D01*
X11683304Y-7419150D01*
X11672161Y-7410715D01*
X11660642Y-7402244D01*
X11648909Y-7393849D01*
X11637122Y-7385643D01*
X11625443Y-7377738D01*
X11614032Y-7370248D01*
X11603050Y-7363284D01*
X11592659Y-7356959D01*
X11583019Y-7351386D01*
X11576856Y-7348019D01*
X11569738Y-7344240D01*
X11573074Y-7341944D01*
X11579910Y-7337568D01*
X11587878Y-7333034D01*
X11596741Y-7328450D01*
X11606266Y-7323926D01*
X11616218Y-7319570D01*
X11626361Y-7315492D01*
X11626534Y-7315429D01*
X11751388Y-7315429D01*
X11751501Y-7315418D01*
X11752338Y-7315150D01*
X11754385Y-7314505D01*
X11757522Y-7313520D01*
X11761630Y-7312234D01*
X11766590Y-7310683D01*
X11772284Y-7308904D01*
X11778590Y-7306936D01*
X11785391Y-7304814D01*
X11792211Y-7302688D01*
X11799340Y-7300465D01*
X11806063Y-7298366D01*
X11812264Y-7296427D01*
X11817827Y-7294686D01*
X11822637Y-7293177D01*
X11826578Y-7291938D01*
X11829534Y-7291005D01*
X11831390Y-7290413D01*
X11832029Y-7290200D01*
X11831411Y-7289977D01*
X11829579Y-7289376D01*
X11826646Y-7288435D01*
X11822728Y-7287189D01*
X11817938Y-7285674D01*
X11812390Y-7283927D01*
X11806199Y-7281984D01*
X11799480Y-7279881D01*
X11792363Y-7277658D01*
X11785189Y-7275420D01*
X11778397Y-7273299D01*
X11772105Y-7271332D01*
X11766432Y-7269557D01*
X11761498Y-7268011D01*
X11757420Y-7266731D01*
X11754319Y-7265754D01*
X11752312Y-7265118D01*
X11751524Y-7264862D01*
X11751450Y-7265116D01*
X11752203Y-7266139D01*
X11753624Y-7267717D01*
X11753819Y-7267921D01*
X11755869Y-7270383D01*
X11757969Y-7273442D01*
X11759557Y-7276230D01*
X11761916Y-7282441D01*
X11762923Y-7288746D01*
X11762599Y-7295007D01*
X11760966Y-7301087D01*
X11758044Y-7306848D01*
X11754145Y-7311845D01*
X11752558Y-7313626D01*
X11751588Y-7314890D01*
X11751388Y-7315429D01*
X11626534Y-7315429D01*
X11636462Y-7311802D01*
X11641899Y-7309981D01*
X11652602Y-7306697D01*
X11664360Y-7303411D01*
X11676839Y-7300204D01*
X11689705Y-7297160D01*
X11702623Y-7294362D01*
X11713680Y-7292185D01*
X11724224Y-7290213D01*
X11706373Y-7286630D01*
X11687785Y-7282671D01*
X11670471Y-7278501D01*
X11654326Y-7274081D01*
X11639244Y-7269375D01*
X11625120Y-7264344D01*
X11611846Y-7258952D01*
X11599318Y-7253161D01*
X11587429Y-7246933D01*
X11577031Y-7240827D01*
X11574390Y-7239164D01*
X11572214Y-7237743D01*
X11570764Y-7236736D01*
X11570301Y-7236345D01*
X11570736Y-7235828D01*
X11572166Y-7234867D01*
X11574334Y-7233624D01*
X11575715Y-7232896D01*
X11583252Y-7228851D01*
X11591694Y-7223989D01*
X11600900Y-7218408D01*
X11610730Y-7212207D01*
X11621040Y-7205484D01*
X11631690Y-7198339D01*
X11642538Y-7190870D01*
X11653443Y-7183177D01*
X11664262Y-7175357D01*
X11674855Y-7167511D01*
X11685079Y-7159735D01*
X11694793Y-7152130D01*
X11703856Y-7144795D01*
X11712125Y-7137827D01*
X11712870Y-7137183D01*
X11719711Y-7131253D01*
X11725342Y-7133321D01*
X11731786Y-7135690D01*
X11737038Y-7137632D01*
X11741213Y-7139189D01*
X11744425Y-7140408D01*
X11746792Y-7141335D01*
X11748428Y-7142013D01*
X11749449Y-7142489D01*
X11749971Y-7142807D01*
X11750109Y-7143003D01*
X11749660Y-7143612D01*
X11748365Y-7145166D01*
X11746308Y-7147572D01*
X11743569Y-7150735D01*
X11740229Y-7154563D01*
X11736372Y-7158962D01*
X11732077Y-7163838D01*
X11727427Y-7169097D01*
X11723354Y-7173690D01*
X11718481Y-7179186D01*
X11713904Y-7184369D01*
X11709703Y-7189145D01*
X11705958Y-7193422D01*
X11702751Y-7197108D01*
X11700161Y-7200110D01*
X11698269Y-7202337D01*
X11697156Y-7203694D01*
X11696881Y-7204096D01*
X11697599Y-7204072D01*
X11699606Y-7203923D01*
X11702803Y-7203657D01*
X11707095Y-7203282D01*
X11712384Y-7202809D01*
X11718574Y-7202246D01*
X11725566Y-7201601D01*
X11733265Y-7200884D01*
X11741573Y-7200103D01*
X11750393Y-7199267D01*
X11751524Y-7199159D01*
X11759628Y-7198385D01*
X11761189Y-7198235D01*
G36*
X11620544Y-7041948D02*
G01*
X11621596Y-7043580D01*
X11623129Y-7046099D01*
X11625045Y-7049343D01*
X11627245Y-7053147D01*
X11629068Y-7056349D01*
X11631859Y-7061241D01*
X11634072Y-7065009D01*
X11635776Y-7067761D01*
X11637042Y-7069606D01*
X11637942Y-7070650D01*
X11638545Y-7071001D01*
X11638676Y-7070988D01*
X11639928Y-7070642D01*
X11642325Y-7070007D01*
X11645731Y-7069121D01*
X11650007Y-7068016D01*
X11655015Y-7066730D01*
X11660617Y-7065296D01*
X11666675Y-7063749D01*
X11673051Y-7062126D01*
X11679607Y-7060459D01*
X11686204Y-7058786D01*
X11692706Y-7057140D01*
X11698973Y-7055556D01*
X11704869Y-7054070D01*
X11710254Y-7052717D01*
X11714991Y-7051532D01*
X11718941Y-7050549D01*
X11721968Y-7049804D01*
X11723932Y-7049331D01*
X11724696Y-7049167D01*
X11724701Y-7049168D01*
X11724603Y-7049870D01*
X11724260Y-7051803D01*
X11723697Y-7054835D01*
X11722939Y-7058832D01*
X11722013Y-7063660D01*
X11720943Y-7069186D01*
X11719754Y-7075276D01*
X11718474Y-7081798D01*
X11718452Y-7081909D01*
X11716853Y-7089968D01*
X11715482Y-7096747D01*
X11714318Y-7102340D01*
X11713342Y-7106835D01*
X11712532Y-7110324D01*
X11711867Y-7112898D01*
X11711327Y-7114647D01*
X11710891Y-7115663D01*
X11710720Y-7115910D01*
X11709377Y-7117157D01*
X11707034Y-7119073D01*
X11703843Y-7121545D01*
X11699957Y-7124462D01*
X11695527Y-7127714D01*
X11690706Y-7131190D01*
X11685648Y-7134777D01*
X11680503Y-7138364D01*
X11675425Y-7141841D01*
X11672177Y-7144027D01*
X11656267Y-7154354D01*
X11639822Y-7164472D01*
X11623057Y-7174265D01*
X11606184Y-7183620D01*
X11589415Y-7192420D01*
X11572965Y-7200551D01*
X11557045Y-7207898D01*
X11542038Y-7214278D01*
X11537937Y-7215887D01*
X11533256Y-7217635D01*
X11528238Y-7219441D01*
X11523125Y-7221223D01*
X11518159Y-7222899D01*
X11513582Y-7224386D01*
X11509637Y-7225603D01*
X11506565Y-7226468D01*
X11504963Y-7226839D01*
X11503298Y-7227265D01*
X11502415Y-7227712D01*
X11502373Y-7227808D01*
X11502877Y-7228475D01*
X11504286Y-7229907D01*
X11506446Y-7231965D01*
X11509203Y-7234509D01*
X11512402Y-7237402D01*
X11515889Y-7240504D01*
X11519510Y-7243678D01*
X11523111Y-7246785D01*
X11526537Y-7249686D01*
X11529096Y-7251805D01*
X11537286Y-7258293D01*
X11545388Y-7264268D01*
X11553719Y-7269942D01*
X11562596Y-7275527D01*
X11572338Y-7281235D01*
X11577053Y-7283881D01*
X11580524Y-7285851D01*
X11583483Y-7287617D01*
X11585749Y-7289062D01*
X11587142Y-7290073D01*
X11587491Y-7290526D01*
X11586685Y-7291053D01*
X11584915Y-7292084D01*
X11582444Y-7293470D01*
X11579616Y-7295018D01*
X11566028Y-7302709D01*
X11553519Y-7310525D01*
X11541777Y-7318671D01*
X11530493Y-7327354D01*
X11529164Y-7328434D01*
X11525979Y-7331078D01*
X11522496Y-7334038D01*
X11518869Y-7337177D01*
X11515253Y-7340354D01*
X11511801Y-7343434D01*
X11508667Y-7346277D01*
X11506005Y-7348744D01*
X11503969Y-7350699D01*
X11502713Y-7352003D01*
X11502373Y-7352488D01*
X11502982Y-7352913D01*
X11504493Y-7353361D01*
X11504963Y-7353457D01*
X11507207Y-7353999D01*
X11510510Y-7354955D01*
X11514628Y-7356244D01*
X11519320Y-7357784D01*
X11524343Y-7359492D01*
X11529456Y-7361288D01*
X11534415Y-7363087D01*
X11538979Y-7364810D01*
X11542038Y-7366018D01*
X11556930Y-7372349D01*
X11572574Y-7379566D01*
X11588756Y-7387552D01*
X11605261Y-7396191D01*
X11621875Y-7405368D01*
X11638383Y-7414967D01*
X11654570Y-7424872D01*
X11670223Y-7434967D01*
X11672075Y-7436199D01*
X11677018Y-7439538D01*
X11682131Y-7443061D01*
X11687261Y-7446658D01*
X11692257Y-7450219D01*
X11696966Y-7453631D01*
X11701236Y-7456784D01*
X11704915Y-7459568D01*
X11707850Y-7461870D01*
X11709889Y-7463580D01*
X11710692Y-7464355D01*
X11711089Y-7465091D01*
X11711593Y-7466579D01*
X11712225Y-7468906D01*
X11713002Y-7472155D01*
X11713945Y-7476412D01*
X11715073Y-7481762D01*
X11716404Y-7488290D01*
X11717959Y-7496079D01*
X11718409Y-7498356D01*
X11719694Y-7504887D01*
X11720886Y-7510988D01*
X11721962Y-7516528D01*
X11722894Y-7521372D01*
X11723659Y-7525388D01*
X11724229Y-7528441D01*
X11724580Y-7530398D01*
X11724686Y-7531127D01*
X11724686Y-7531128D01*
X11724016Y-7530987D01*
X11722135Y-7530536D01*
X11719183Y-7529809D01*
X11715296Y-7528842D01*
X11710613Y-7527670D01*
X11705272Y-7526328D01*
X11699410Y-7524851D01*
X11693167Y-7523273D01*
X11686679Y-7521631D01*
X11680084Y-7519958D01*
X11673522Y-7518290D01*
X11667130Y-7516662D01*
X11661045Y-7515109D01*
X11655406Y-7513665D01*
X11650351Y-7512367D01*
X11646018Y-7511249D01*
X11642544Y-7510345D01*
X11640069Y-7509692D01*
X11638729Y-7509323D01*
X11638676Y-7509308D01*
X11638146Y-7509476D01*
X11637340Y-7510307D01*
X11636188Y-7511906D01*
X11634620Y-7514381D01*
X11632563Y-7517841D01*
X11629949Y-7522393D01*
X11629068Y-7523946D01*
X11626716Y-7528069D01*
X11624571Y-7531758D01*
X11622733Y-7534849D01*
X11621300Y-7537179D01*
X11620371Y-7538582D01*
X11620060Y-7538929D01*
X11619619Y-7538357D01*
X11618465Y-7536691D01*
X11616646Y-7534000D01*
X11614209Y-7530357D01*
X11611200Y-7525831D01*
X11607666Y-7520495D01*
X11603655Y-7514419D01*
X11599213Y-7507675D01*
X11594387Y-7500333D01*
X11589225Y-7492465D01*
X11583774Y-7484142D01*
X11578079Y-7475435D01*
X11573648Y-7468652D01*
X11567800Y-7459701D01*
X11562156Y-7451080D01*
X11556764Y-7442860D01*
X11551671Y-7435114D01*
X11546925Y-7427910D01*
X11542572Y-7421322D01*
X11538659Y-7415419D01*
X11535235Y-7410274D01*
X11532345Y-7405957D01*
X11530037Y-7402540D01*
X11528359Y-7400093D01*
X11527356Y-7398688D01*
X11527077Y-7398361D01*
X11526281Y-7398562D01*
X11524305Y-7399140D01*
X11521293Y-7400053D01*
X11517389Y-7401254D01*
X11512739Y-7402699D01*
X11507488Y-7404343D01*
X11501780Y-7406142D01*
X11499733Y-7406790D01*
X11493916Y-7408619D01*
X11488514Y-7410289D01*
X11483672Y-7411759D01*
X11479531Y-7412986D01*
X11476235Y-7413928D01*
X11473927Y-7414543D01*
X11472751Y-7414788D01*
X11472632Y-7414779D01*
X11472646Y-7414037D01*
X11472818Y-7412011D01*
X11473137Y-7408801D01*
X11473591Y-7404505D01*
X11474169Y-7399222D01*
X11474861Y-7393049D01*
X11475656Y-7386086D01*
X11476542Y-7378431D01*
X11477508Y-7370182D01*
X11478543Y-7361439D01*
X11479636Y-7352298D01*
X11479644Y-7352236D01*
X11487110Y-7290148D01*
X11479779Y-7229332D01*
X11478687Y-7220252D01*
X11477644Y-7211546D01*
X11476663Y-7203315D01*
X11475754Y-7195663D01*
X11474931Y-7188690D01*
X11474204Y-7182500D01*
X11473587Y-7177193D01*
X11473091Y-7172874D01*
X11472729Y-7169643D01*
X11472511Y-7167602D01*
X11472449Y-7166876D01*
X11472658Y-7165616D01*
X11473027Y-7165236D01*
X11473796Y-7165439D01*
X11475747Y-7166021D01*
X11478733Y-7166935D01*
X11482611Y-7168136D01*
X11487234Y-7169581D01*
X11492459Y-7171222D01*
X11498139Y-7173017D01*
X11499937Y-7173586D01*
X11505736Y-7175419D01*
X11511130Y-7177113D01*
X11515973Y-7178622D01*
X11520119Y-7179902D01*
X11523421Y-7180907D01*
X11525734Y-7181593D01*
X11526911Y-7181913D01*
X11527021Y-7181932D01*
X11527490Y-7181360D01*
X11528670Y-7179692D01*
X11530516Y-7177000D01*
X11532978Y-7173355D01*
X11536011Y-7168828D01*
X11539566Y-7163490D01*
X11543597Y-7157413D01*
X11548057Y-7150666D01*
X11552897Y-7143323D01*
X11558072Y-7135453D01*
X11563534Y-7127128D01*
X11569235Y-7118419D01*
X11573660Y-7111647D01*
X11579508Y-7102697D01*
X11585148Y-7094078D01*
X11590534Y-7085860D01*
X11595619Y-7078115D01*
X11600355Y-7070913D01*
X11604695Y-7064326D01*
X11608594Y-7058425D01*
X11612003Y-7053280D01*
X11614876Y-7048964D01*
X11617165Y-7045547D01*
X11618825Y-7043100D01*
X11619807Y-7041695D01*
X11620072Y-7041367D01*
X11620544Y-7041948D01*
G37*
X11620544Y-7041948D02*
X11621596Y-7043580D01*
X11623129Y-7046099D01*
X11625045Y-7049343D01*
X11627245Y-7053147D01*
X11629068Y-7056349D01*
X11631859Y-7061241D01*
X11634072Y-7065009D01*
X11635776Y-7067761D01*
X11637042Y-7069606D01*
X11637942Y-7070650D01*
X11638545Y-7071001D01*
X11638676Y-7070988D01*
X11639928Y-7070642D01*
X11642325Y-7070007D01*
X11645731Y-7069121D01*
X11650007Y-7068016D01*
X11655015Y-7066730D01*
X11660617Y-7065296D01*
X11666675Y-7063749D01*
X11673051Y-7062126D01*
X11679607Y-7060459D01*
X11686204Y-7058786D01*
X11692706Y-7057140D01*
X11698973Y-7055556D01*
X11704869Y-7054070D01*
X11710254Y-7052717D01*
X11714991Y-7051532D01*
X11718941Y-7050549D01*
X11721968Y-7049804D01*
X11723932Y-7049331D01*
X11724696Y-7049167D01*
X11724701Y-7049168D01*
X11724603Y-7049870D01*
X11724260Y-7051803D01*
X11723697Y-7054835D01*
X11722939Y-7058832D01*
X11722013Y-7063660D01*
X11720943Y-7069186D01*
X11719754Y-7075276D01*
X11718474Y-7081798D01*
X11718452Y-7081909D01*
X11716853Y-7089968D01*
X11715482Y-7096747D01*
X11714318Y-7102340D01*
X11713342Y-7106835D01*
X11712532Y-7110324D01*
X11711867Y-7112898D01*
X11711327Y-7114647D01*
X11710891Y-7115663D01*
X11710720Y-7115910D01*
X11709377Y-7117157D01*
X11707034Y-7119073D01*
X11703843Y-7121545D01*
X11699957Y-7124462D01*
X11695527Y-7127714D01*
X11690706Y-7131190D01*
X11685648Y-7134777D01*
X11680503Y-7138364D01*
X11675425Y-7141841D01*
X11672177Y-7144027D01*
X11656267Y-7154354D01*
X11639822Y-7164472D01*
X11623057Y-7174265D01*
X11606184Y-7183620D01*
X11589415Y-7192420D01*
X11572965Y-7200551D01*
X11557045Y-7207898D01*
X11542038Y-7214278D01*
X11537937Y-7215887D01*
X11533256Y-7217635D01*
X11528238Y-7219441D01*
X11523125Y-7221223D01*
X11518159Y-7222899D01*
X11513582Y-7224386D01*
X11509637Y-7225603D01*
X11506565Y-7226468D01*
X11504963Y-7226839D01*
X11503298Y-7227265D01*
X11502415Y-7227712D01*
X11502373Y-7227808D01*
X11502877Y-7228475D01*
X11504286Y-7229907D01*
X11506446Y-7231965D01*
X11509203Y-7234509D01*
X11512402Y-7237402D01*
X11515889Y-7240504D01*
X11519510Y-7243678D01*
X11523111Y-7246785D01*
X11526537Y-7249686D01*
X11529096Y-7251805D01*
X11537286Y-7258293D01*
X11545388Y-7264268D01*
X11553719Y-7269942D01*
X11562596Y-7275527D01*
X11572338Y-7281235D01*
X11577053Y-7283881D01*
X11580524Y-7285851D01*
X11583483Y-7287617D01*
X11585749Y-7289062D01*
X11587142Y-7290073D01*
X11587491Y-7290526D01*
X11586685Y-7291053D01*
X11584915Y-7292084D01*
X11582444Y-7293470D01*
X11579616Y-7295018D01*
X11566028Y-7302709D01*
X11553519Y-7310525D01*
X11541777Y-7318671D01*
X11530493Y-7327354D01*
X11529164Y-7328434D01*
X11525979Y-7331078D01*
X11522496Y-7334038D01*
X11518869Y-7337177D01*
X11515253Y-7340354D01*
X11511801Y-7343434D01*
X11508667Y-7346277D01*
X11506005Y-7348744D01*
X11503969Y-7350699D01*
X11502713Y-7352003D01*
X11502373Y-7352488D01*
X11502982Y-7352913D01*
X11504493Y-7353361D01*
X11504963Y-7353457D01*
X11507207Y-7353999D01*
X11510510Y-7354955D01*
X11514628Y-7356244D01*
X11519320Y-7357784D01*
X11524343Y-7359492D01*
X11529456Y-7361288D01*
X11534415Y-7363087D01*
X11538979Y-7364810D01*
X11542038Y-7366018D01*
X11556930Y-7372349D01*
X11572574Y-7379566D01*
X11588756Y-7387552D01*
X11605261Y-7396191D01*
X11621875Y-7405368D01*
X11638383Y-7414967D01*
X11654570Y-7424872D01*
X11670223Y-7434967D01*
X11672075Y-7436199D01*
X11677018Y-7439538D01*
X11682131Y-7443061D01*
X11687261Y-7446658D01*
X11692257Y-7450219D01*
X11696966Y-7453631D01*
X11701236Y-7456784D01*
X11704915Y-7459568D01*
X11707850Y-7461870D01*
X11709889Y-7463580D01*
X11710692Y-7464355D01*
X11711089Y-7465091D01*
X11711593Y-7466579D01*
X11712225Y-7468906D01*
X11713002Y-7472155D01*
X11713945Y-7476412D01*
X11715073Y-7481762D01*
X11716404Y-7488290D01*
X11717959Y-7496079D01*
X11718409Y-7498356D01*
X11719694Y-7504887D01*
X11720886Y-7510988D01*
X11721962Y-7516528D01*
X11722894Y-7521372D01*
X11723659Y-7525388D01*
X11724229Y-7528441D01*
X11724580Y-7530398D01*
X11724686Y-7531127D01*
X11724686Y-7531128D01*
X11724016Y-7530987D01*
X11722135Y-7530536D01*
X11719183Y-7529809D01*
X11715296Y-7528842D01*
X11710613Y-7527670D01*
X11705272Y-7526328D01*
X11699410Y-7524851D01*
X11693167Y-7523273D01*
X11686679Y-7521631D01*
X11680084Y-7519958D01*
X11673522Y-7518290D01*
X11667130Y-7516662D01*
X11661045Y-7515109D01*
X11655406Y-7513665D01*
X11650351Y-7512367D01*
X11646018Y-7511249D01*
X11642544Y-7510345D01*
X11640069Y-7509692D01*
X11638729Y-7509323D01*
X11638676Y-7509308D01*
X11638146Y-7509476D01*
X11637340Y-7510307D01*
X11636188Y-7511906D01*
X11634620Y-7514381D01*
X11632563Y-7517841D01*
X11629949Y-7522393D01*
X11629068Y-7523946D01*
X11626716Y-7528069D01*
X11624571Y-7531758D01*
X11622733Y-7534849D01*
X11621300Y-7537179D01*
X11620371Y-7538582D01*
X11620060Y-7538929D01*
X11619619Y-7538357D01*
X11618465Y-7536691D01*
X11616646Y-7534000D01*
X11614209Y-7530357D01*
X11611200Y-7525831D01*
X11607666Y-7520495D01*
X11603655Y-7514419D01*
X11599213Y-7507675D01*
X11594387Y-7500333D01*
X11589225Y-7492465D01*
X11583774Y-7484142D01*
X11578079Y-7475435D01*
X11573648Y-7468652D01*
X11567800Y-7459701D01*
X11562156Y-7451080D01*
X11556764Y-7442860D01*
X11551671Y-7435114D01*
X11546925Y-7427910D01*
X11542572Y-7421322D01*
X11538659Y-7415419D01*
X11535235Y-7410274D01*
X11532345Y-7405957D01*
X11530037Y-7402540D01*
X11528359Y-7400093D01*
X11527356Y-7398688D01*
X11527077Y-7398361D01*
X11526281Y-7398562D01*
X11524305Y-7399140D01*
X11521293Y-7400053D01*
X11517389Y-7401254D01*
X11512739Y-7402699D01*
X11507488Y-7404343D01*
X11501780Y-7406142D01*
X11499733Y-7406790D01*
X11493916Y-7408619D01*
X11488514Y-7410289D01*
X11483672Y-7411759D01*
X11479531Y-7412986D01*
X11476235Y-7413928D01*
X11473927Y-7414543D01*
X11472751Y-7414788D01*
X11472632Y-7414779D01*
X11472646Y-7414037D01*
X11472818Y-7412011D01*
X11473137Y-7408801D01*
X11473591Y-7404505D01*
X11474169Y-7399222D01*
X11474861Y-7393049D01*
X11475656Y-7386086D01*
X11476542Y-7378431D01*
X11477508Y-7370182D01*
X11478543Y-7361439D01*
X11479636Y-7352298D01*
X11479644Y-7352236D01*
X11487110Y-7290148D01*
X11479779Y-7229332D01*
X11478687Y-7220252D01*
X11477644Y-7211546D01*
X11476663Y-7203315D01*
X11475754Y-7195663D01*
X11474931Y-7188690D01*
X11474204Y-7182500D01*
X11473587Y-7177193D01*
X11473091Y-7172874D01*
X11472729Y-7169643D01*
X11472511Y-7167602D01*
X11472449Y-7166876D01*
X11472658Y-7165616D01*
X11473027Y-7165236D01*
X11473796Y-7165439D01*
X11475747Y-7166021D01*
X11478733Y-7166935D01*
X11482611Y-7168136D01*
X11487234Y-7169581D01*
X11492459Y-7171222D01*
X11498139Y-7173017D01*
X11499937Y-7173586D01*
X11505736Y-7175419D01*
X11511130Y-7177113D01*
X11515973Y-7178622D01*
X11520119Y-7179902D01*
X11523421Y-7180907D01*
X11525734Y-7181593D01*
X11526911Y-7181913D01*
X11527021Y-7181932D01*
X11527490Y-7181360D01*
X11528670Y-7179692D01*
X11530516Y-7177000D01*
X11532978Y-7173355D01*
X11536011Y-7168828D01*
X11539566Y-7163490D01*
X11543597Y-7157413D01*
X11548057Y-7150666D01*
X11552897Y-7143323D01*
X11558072Y-7135453D01*
X11563534Y-7127128D01*
X11569235Y-7118419D01*
X11573660Y-7111647D01*
X11579508Y-7102697D01*
X11585148Y-7094078D01*
X11590534Y-7085860D01*
X11595619Y-7078115D01*
X11600355Y-7070913D01*
X11604695Y-7064326D01*
X11608594Y-7058425D01*
X11612003Y-7053280D01*
X11614876Y-7048964D01*
X11617165Y-7045547D01*
X11618825Y-7043100D01*
X11619807Y-7041695D01*
X11620072Y-7041367D01*
X11620544Y-7041948D01*
%TD*%
M02*
