%TF.GenerationSoftware,KiCad,Pcbnew,(6.0.5)*%
%TF.CreationDate,2022-12-16T06:33:13-05:00*%
%TF.ProjectId,Dev_Board_Adapter,4465765f-426f-4617-9264-5f4164617074,rev?*%
%TF.SameCoordinates,Original*%
%TF.FileFunction,Legend,Bot*%
%TF.FilePolarity,Positive*%
%FSLAX45Y45*%
G04 Gerber Fmt 4.5, Leading zero omitted, Abs format (unit mm)*
G04 Created by KiCad (PCBNEW (6.0.5)) date 2022-12-16 06:33:13*
%MOMM*%
%LPD*%
G01*
G04 APERTURE LIST*
%ADD10C,0.150000*%
%ADD11C,0.120000*%
G04 APERTURE END LIST*
D10*
%TO.C,J2*%
X12502193Y-9627718D02*
X12502193Y-9699147D01*
X12506955Y-9713432D01*
X12516479Y-9722956D01*
X12530765Y-9727718D01*
X12540288Y-9727718D01*
X12459336Y-9637242D02*
X12454574Y-9632480D01*
X12445050Y-9627718D01*
X12421241Y-9627718D01*
X12411717Y-9632480D01*
X12406955Y-9637242D01*
X12402193Y-9646766D01*
X12402193Y-9656290D01*
X12406955Y-9670575D01*
X12464098Y-9727718D01*
X12402193Y-9727718D01*
%TO.C,J4*%
X11740193Y-9632118D02*
X11740193Y-9703547D01*
X11744955Y-9717832D01*
X11754479Y-9727356D01*
X11768765Y-9732118D01*
X11778288Y-9732118D01*
X11649717Y-9665451D02*
X11649717Y-9732118D01*
X11673527Y-9627356D02*
X11697336Y-9698785D01*
X11635431Y-9698785D01*
D11*
%TO.C,J2*%
X12728860Y-7034880D02*
X12595860Y-7034880D01*
X12728860Y-7167880D02*
X12728860Y-7034880D01*
X12468860Y-7034880D02*
X12208860Y-7034880D01*
X12728860Y-9586880D02*
X12208860Y-9586880D01*
X12728860Y-7294880D02*
X12468860Y-7294880D01*
X12208860Y-7034880D02*
X12208860Y-9586880D01*
X12468860Y-7294880D02*
X12468860Y-7034880D01*
X12728860Y-7294880D02*
X12728860Y-9586880D01*
%TO.C,J4*%
X11573860Y-7542880D02*
X11839860Y-7542880D01*
X11573860Y-9453880D02*
X11573860Y-9586880D01*
X11573860Y-9586880D02*
X11706860Y-9586880D01*
X11573860Y-9326880D02*
X11573860Y-7542880D01*
X11839860Y-9326880D02*
X11839860Y-7542880D01*
X11573860Y-9326880D02*
X11839860Y-9326880D01*
%TD*%
M02*
