%TF.GenerationSoftware,KiCad,Pcbnew,(6.0.5)*%
%TF.CreationDate,2022-12-16T06:33:13-05:00*%
%TF.ProjectId,Dev_Board_Adapter,4465765f-426f-4617-9264-5f4164617074,rev?*%
%TF.SameCoordinates,Original*%
%TF.FileFunction,Copper,L1,Top*%
%TF.FilePolarity,Positive*%
%FSLAX45Y45*%
G04 Gerber Fmt 4.5, Leading zero omitted, Abs format (unit mm)*
G04 Created by KiCad (PCBNEW (6.0.5)) date 2022-12-16 06:33:13*
%MOMM*%
%LPD*%
G01*
G04 APERTURE LIST*
%TA.AperFunction,ComponentPad*%
%ADD10R,1.700000X1.700000*%
%TD*%
%TA.AperFunction,ComponentPad*%
%ADD11O,1.700000X1.700000*%
%TD*%
%TA.AperFunction,ComponentPad*%
%ADD12R,1.200000X1.200000*%
%TD*%
%TA.AperFunction,ComponentPad*%
%ADD13C,1.200000*%
%TD*%
%TA.AperFunction,ViaPad*%
%ADD14C,0.800000*%
%TD*%
%TA.AperFunction,Conductor*%
%ADD15C,1.000000*%
%TD*%
%TA.AperFunction,Conductor*%
%ADD16C,0.200000*%
%TD*%
G04 APERTURE END LIST*
D10*
%TO.P,J3,1,Pin_1*%
%TO.N,/CAN_PAYLOAD-*%
X12954000Y-7340600D03*
D11*
%TO.P,J3,2,Pin_2*%
%TO.N,GND*%
X13208000Y-7340600D03*
%TO.P,J3,3,Pin_3*%
%TO.N,/CAN_PAYLOAD+*%
X13462000Y-7340600D03*
%TD*%
D12*
%TO.P,J1,1,Pin_1*%
%TO.N,unconnected-(J1-Pad1)*%
X13335000Y-8832800D03*
D13*
%TO.P,J1,2,Pin_2*%
%TO.N,+5V*%
X13335000Y-8632800D03*
%TO.P,J1,3,Pin_3*%
%TO.N,GND*%
X13335000Y-8432800D03*
%TO.P,J1,4,Pin_4*%
%TO.N,/CAN_PAYLOAD+*%
X13135000Y-8832800D03*
%TO.P,J1,5,Pin_5*%
%TO.N,/CAN_PAYLOAD-*%
X13135000Y-8632800D03*
%TO.P,J1,6*%
%TO.N,N/C*%
X13135000Y-8432800D03*
%TD*%
D10*
%TO.P,J2,1,Pin_1*%
%TO.N,unconnected-(J2-Pad1)*%
X12595860Y-7167880D03*
D11*
%TO.P,J2,2,Pin_2*%
%TO.N,unconnected-(J2-Pad2)*%
X12341860Y-7167880D03*
%TO.P,J2,3,Pin_3*%
%TO.N,unconnected-(J2-Pad3)*%
X12595860Y-7421880D03*
%TO.P,J2,4,Pin_4*%
%TO.N,unconnected-(J2-Pad4)*%
X12341860Y-7421880D03*
%TO.P,J2,5,Pin_5*%
%TO.N,unconnected-(J2-Pad5)*%
X12595860Y-7675880D03*
%TO.P,J2,6,Pin_6*%
%TO.N,unconnected-(J2-Pad6)*%
X12341860Y-7675880D03*
%TO.P,J2,7,Pin_7*%
%TO.N,unconnected-(J2-Pad7)*%
X12595860Y-7929880D03*
%TO.P,J2,8,Pin_8*%
%TO.N,unconnected-(J2-Pad8)*%
X12341860Y-7929880D03*
%TO.P,J2,9,Pin_9*%
%TO.N,unconnected-(J2-Pad9)*%
X12595860Y-8183880D03*
%TO.P,J2,10,Pin_10*%
%TO.N,unconnected-(J2-Pad10)*%
X12341860Y-8183880D03*
%TO.P,J2,11,Pin_11*%
%TO.N,unconnected-(J2-Pad11)*%
X12595860Y-8437880D03*
%TO.P,J2,12,Pin_12*%
%TO.N,unconnected-(J2-Pad12)*%
X12341860Y-8437880D03*
%TO.P,J2,13,Pin_13*%
%TO.N,unconnected-(J2-Pad13)*%
X12595860Y-8691880D03*
%TO.P,J2,14,Pin_14*%
%TO.N,unconnected-(J2-Pad14)*%
X12341860Y-8691880D03*
%TO.P,J2,15,Pin_15*%
%TO.N,unconnected-(J2-Pad15)*%
X12595860Y-8945880D03*
%TO.P,J2,16,Pin_16*%
%TO.N,unconnected-(J2-Pad16)*%
X12341860Y-8945880D03*
%TO.P,J2,17,Pin_17*%
%TO.N,unconnected-(J2-Pad17)*%
X12595860Y-9199880D03*
%TO.P,J2,18,Pin_18*%
%TO.N,unconnected-(J2-Pad18)*%
X12341860Y-9199880D03*
%TO.P,J2,19,Pin_19*%
%TO.N,unconnected-(J2-Pad19)*%
X12595860Y-9453880D03*
%TO.P,J2,20,Pin_20*%
%TO.N,unconnected-(J2-Pad20)*%
X12341860Y-9453880D03*
%TD*%
D10*
%TO.P,J4,1,Pin_1*%
%TO.N,GND*%
X11706860Y-9453880D03*
D11*
%TO.P,J4,2,Pin_2*%
%TO.N,+5V*%
X11706860Y-9199880D03*
%TO.P,J4,3,Pin_3*%
%TO.N,unconnected-(J4-Pad3)*%
X11706860Y-8945880D03*
%TO.P,J4,4,Pin_4*%
%TO.N,unconnected-(J4-Pad4)*%
X11706860Y-8691880D03*
%TO.P,J4,5,Pin_5*%
%TO.N,unconnected-(J4-Pad5)*%
X11706860Y-8437880D03*
%TO.P,J4,6,Pin_6*%
%TO.N,unconnected-(J4-Pad6)*%
X11706860Y-8183880D03*
%TO.P,J4,7,Pin_7*%
%TO.N,unconnected-(J4-Pad7)*%
X11706860Y-7929880D03*
%TO.P,J4,8,Pin_8*%
%TO.N,unconnected-(J4-Pad8)*%
X11706860Y-7675880D03*
%TD*%
D14*
%TO.N,/CAN_PAYLOAD+*%
X12979400Y-7620000D03*
%TD*%
D15*
%TO.N,+5V*%
X12039600Y-9296400D02*
X12039600Y-9550400D01*
X13538200Y-9626600D02*
X13538200Y-8712200D01*
X13538200Y-8712200D02*
X13458800Y-8632800D01*
X12141200Y-9652000D02*
X13512800Y-9652000D01*
X11943080Y-9199880D02*
X12039600Y-9296400D01*
X12039600Y-9550400D02*
X12141200Y-9652000D01*
X13458800Y-8632800D02*
X13335000Y-8632800D01*
X11706860Y-9199880D02*
X11943080Y-9199880D01*
X13512800Y-9652000D02*
X13538200Y-9626600D01*
D16*
%TO.N,/CAN_PAYLOAD-*%
X12954000Y-7772400D02*
X12954000Y-8379010D01*
X12954000Y-7340600D02*
X12954000Y-7518400D01*
X12954000Y-7518400D02*
X12979400Y-7543800D01*
X13135000Y-8560010D02*
X13135000Y-8632800D01*
X13055600Y-7543800D02*
X13081000Y-7569200D01*
X12979400Y-7543800D02*
X13055600Y-7543800D01*
X12954000Y-8379010D02*
X13135000Y-8560010D01*
X13081000Y-7645400D02*
X12954000Y-7772400D01*
X13081000Y-7569200D02*
X13081000Y-7645400D01*
%TO.N,/CAN_PAYLOAD+*%
X13090000Y-8743505D02*
X13090000Y-8787800D01*
X12914048Y-8567553D02*
X13090000Y-8743505D01*
X12979400Y-7620000D02*
X12914048Y-7685352D01*
X13135000Y-8832800D02*
X13090000Y-8787800D01*
X12914048Y-7685352D02*
X12914048Y-8567553D01*
%TD*%
%TA.AperFunction,Conductor*%
%TO.N,GND*%
G36*
X12276561Y-7027451D02*
G01*
X12281211Y-7032816D01*
X12282221Y-7039844D01*
X12279272Y-7046302D01*
X12275567Y-7049227D01*
X12269221Y-7052531D01*
X12268807Y-7052841D01*
X12268807Y-7052841D01*
X12251770Y-7065633D01*
X12251356Y-7065943D01*
X12247412Y-7070071D01*
X12241988Y-7075747D01*
X12235923Y-7082094D01*
X12223334Y-7100548D01*
X12213929Y-7120810D01*
X12207959Y-7142337D01*
X12205585Y-7164549D01*
X12206871Y-7186851D01*
X12206985Y-7187356D01*
X12206985Y-7187357D01*
X12209390Y-7198031D01*
X12211782Y-7208644D01*
X12215880Y-7218736D01*
X12218652Y-7225561D01*
X12220187Y-7229342D01*
X12220456Y-7229782D01*
X12230536Y-7246231D01*
X12231859Y-7248389D01*
X12246485Y-7265274D01*
X12263673Y-7279543D01*
X12270719Y-7283661D01*
X12271004Y-7283828D01*
X12275877Y-7288991D01*
X12277184Y-7295970D01*
X12274511Y-7302547D01*
X12270465Y-7305883D01*
X12269221Y-7306531D01*
X12268807Y-7306841D01*
X12268807Y-7306841D01*
X12251770Y-7319633D01*
X12251356Y-7319943D01*
X12235923Y-7336094D01*
X12223334Y-7354548D01*
X12221760Y-7357939D01*
X12216437Y-7369407D01*
X12213929Y-7374810D01*
X12207959Y-7396337D01*
X12205585Y-7418549D01*
X12205615Y-7419065D01*
X12205615Y-7419065D01*
X12206289Y-7430753D01*
X12206871Y-7440851D01*
X12206985Y-7441356D01*
X12206985Y-7441357D01*
X12208804Y-7449430D01*
X12211782Y-7462644D01*
X12217520Y-7476775D01*
X12219442Y-7481507D01*
X12220187Y-7483342D01*
X12224470Y-7490332D01*
X12231589Y-7501949D01*
X12231859Y-7502389D01*
X12246485Y-7519274D01*
X12263673Y-7533543D01*
X12266248Y-7535048D01*
X12271004Y-7537828D01*
X12275877Y-7542991D01*
X12277184Y-7549970D01*
X12274511Y-7556547D01*
X12270465Y-7559883D01*
X12269221Y-7560531D01*
X12268807Y-7560841D01*
X12268807Y-7560841D01*
X12256584Y-7570019D01*
X12251356Y-7573943D01*
X12235923Y-7590094D01*
X12223334Y-7608548D01*
X12221760Y-7611939D01*
X12215794Y-7624792D01*
X12213929Y-7628810D01*
X12207959Y-7650337D01*
X12205585Y-7672549D01*
X12205615Y-7673065D01*
X12205615Y-7673065D01*
X12206323Y-7685352D01*
X12206871Y-7694851D01*
X12206985Y-7695356D01*
X12206985Y-7695357D01*
X12208972Y-7704174D01*
X12211782Y-7716644D01*
X12220187Y-7737342D01*
X12225262Y-7745624D01*
X12231589Y-7755949D01*
X12231859Y-7756389D01*
X12246485Y-7773274D01*
X12263673Y-7787543D01*
X12270719Y-7791661D01*
X12271004Y-7791828D01*
X12275877Y-7796991D01*
X12277184Y-7803970D01*
X12274511Y-7810547D01*
X12270465Y-7813883D01*
X12269221Y-7814531D01*
X12268807Y-7814841D01*
X12268807Y-7814841D01*
X12266385Y-7816660D01*
X12251356Y-7827943D01*
X12235923Y-7844094D01*
X12223334Y-7862548D01*
X12213929Y-7882810D01*
X12207959Y-7904337D01*
X12205585Y-7926549D01*
X12205615Y-7927065D01*
X12205615Y-7927065D01*
X12206161Y-7936539D01*
X12206871Y-7948851D01*
X12206985Y-7949356D01*
X12206985Y-7949357D01*
X12207713Y-7952588D01*
X12211782Y-7970644D01*
X12220187Y-7991342D01*
X12225262Y-7999624D01*
X12231589Y-8009949D01*
X12231859Y-8010389D01*
X12246485Y-8027274D01*
X12263673Y-8041543D01*
X12270719Y-8045661D01*
X12271004Y-8045828D01*
X12275877Y-8050991D01*
X12277184Y-8057970D01*
X12274511Y-8064547D01*
X12270465Y-8067883D01*
X12269221Y-8068531D01*
X12268807Y-8068841D01*
X12268807Y-8068841D01*
X12266385Y-8070660D01*
X12251356Y-8081943D01*
X12235923Y-8098094D01*
X12223334Y-8116548D01*
X12213929Y-8136810D01*
X12207959Y-8158337D01*
X12205585Y-8180549D01*
X12205615Y-8181065D01*
X12205615Y-8181065D01*
X12206841Y-8202335D01*
X12206871Y-8202851D01*
X12206985Y-8203356D01*
X12206985Y-8203357D01*
X12208972Y-8212174D01*
X12211782Y-8224644D01*
X12220187Y-8245342D01*
X12225262Y-8253624D01*
X12231589Y-8263949D01*
X12231859Y-8264389D01*
X12246485Y-8281274D01*
X12263673Y-8295543D01*
X12270719Y-8299661D01*
X12271004Y-8299828D01*
X12275877Y-8304991D01*
X12277184Y-8311970D01*
X12274511Y-8318547D01*
X12270465Y-8321883D01*
X12269221Y-8322531D01*
X12268807Y-8322841D01*
X12268807Y-8322841D01*
X12253996Y-8333962D01*
X12251356Y-8335943D01*
X12235923Y-8352094D01*
X12223334Y-8370548D01*
X12213929Y-8390811D01*
X12207959Y-8412337D01*
X12205585Y-8434550D01*
X12205615Y-8435065D01*
X12205615Y-8435065D01*
X12206161Y-8444539D01*
X12206871Y-8456852D01*
X12206985Y-8457356D01*
X12206985Y-8457357D01*
X12207428Y-8459324D01*
X12211782Y-8478644D01*
X12220187Y-8499342D01*
X12224794Y-8506860D01*
X12231589Y-8517949D01*
X12231859Y-8518389D01*
X12246485Y-8535274D01*
X12263673Y-8549543D01*
X12270212Y-8553365D01*
X12271004Y-8553828D01*
X12275877Y-8558991D01*
X12277184Y-8565970D01*
X12274511Y-8572547D01*
X12270465Y-8575883D01*
X12269221Y-8576531D01*
X12268807Y-8576841D01*
X12268807Y-8576841D01*
X12256186Y-8586317D01*
X12251356Y-8589944D01*
X12235923Y-8606094D01*
X12223334Y-8624548D01*
X12213929Y-8644811D01*
X12207959Y-8666337D01*
X12205585Y-8688550D01*
X12205615Y-8689065D01*
X12205615Y-8689065D01*
X12206161Y-8698539D01*
X12206871Y-8710852D01*
X12206985Y-8711356D01*
X12206985Y-8711357D01*
X12207574Y-8713973D01*
X12211782Y-8732644D01*
X12220187Y-8753342D01*
X12225262Y-8761624D01*
X12231589Y-8771949D01*
X12231859Y-8772389D01*
X12246485Y-8789274D01*
X12263673Y-8803543D01*
X12270719Y-8807661D01*
X12271004Y-8807828D01*
X12275877Y-8812991D01*
X12277184Y-8819970D01*
X12274511Y-8826547D01*
X12270465Y-8829883D01*
X12269221Y-8830531D01*
X12268807Y-8830841D01*
X12268807Y-8830841D01*
X12266385Y-8832660D01*
X12251356Y-8843944D01*
X12235923Y-8860094D01*
X12235632Y-8860520D01*
X12235631Y-8860521D01*
X12228834Y-8870486D01*
X12223334Y-8878548D01*
X12213929Y-8898811D01*
X12207959Y-8920337D01*
X12205585Y-8942550D01*
X12205615Y-8943065D01*
X12205615Y-8943065D01*
X12206161Y-8952539D01*
X12206871Y-8964852D01*
X12206985Y-8965356D01*
X12206985Y-8965357D01*
X12208972Y-8974174D01*
X12211782Y-8986644D01*
X12220187Y-9007342D01*
X12225262Y-9015624D01*
X12231589Y-9025949D01*
X12231859Y-9026389D01*
X12246485Y-9043274D01*
X12263673Y-9057543D01*
X12270719Y-9061661D01*
X12271004Y-9061828D01*
X12275877Y-9066991D01*
X12277184Y-9073970D01*
X12274511Y-9080547D01*
X12270465Y-9083883D01*
X12269221Y-9084531D01*
X12268807Y-9084841D01*
X12268807Y-9084841D01*
X12264089Y-9088384D01*
X12251356Y-9097944D01*
X12250372Y-9098974D01*
X12240265Y-9109550D01*
X12235923Y-9114094D01*
X12235632Y-9114520D01*
X12235631Y-9114521D01*
X12228583Y-9124854D01*
X12223334Y-9132548D01*
X12213929Y-9152811D01*
X12207959Y-9174337D01*
X12205585Y-9196550D01*
X12205615Y-9197065D01*
X12205615Y-9197065D01*
X12206161Y-9206539D01*
X12206871Y-9218852D01*
X12206985Y-9219356D01*
X12206985Y-9219357D01*
X12207511Y-9221693D01*
X12211782Y-9240644D01*
X12215408Y-9249574D01*
X12218742Y-9257783D01*
X12220187Y-9261342D01*
X12224085Y-9267703D01*
X12231589Y-9279949D01*
X12231859Y-9280389D01*
X12246485Y-9297274D01*
X12263673Y-9311543D01*
X12267177Y-9313591D01*
X12271004Y-9315828D01*
X12275877Y-9320991D01*
X12277184Y-9327970D01*
X12274511Y-9334547D01*
X12270465Y-9337883D01*
X12269221Y-9338531D01*
X12268807Y-9338841D01*
X12268807Y-9338841D01*
X12262428Y-9343631D01*
X12251356Y-9351944D01*
X12235923Y-9368094D01*
X12223334Y-9386548D01*
X12213929Y-9406811D01*
X12207959Y-9428337D01*
X12205585Y-9450550D01*
X12205615Y-9451065D01*
X12205615Y-9451065D01*
X12206161Y-9460539D01*
X12206871Y-9472852D01*
X12206985Y-9473356D01*
X12206985Y-9473357D01*
X12208421Y-9479728D01*
X12211782Y-9494644D01*
X12220187Y-9515342D01*
X12220456Y-9515782D01*
X12230374Y-9531967D01*
X12232228Y-9538820D01*
X12230082Y-9545588D01*
X12224618Y-9550121D01*
X12219631Y-9551150D01*
X12188193Y-9551150D01*
X12181380Y-9549150D01*
X12179283Y-9547460D01*
X12144140Y-9512317D01*
X12140738Y-9506086D01*
X12140450Y-9503408D01*
X12140450Y-9302584D01*
X12140524Y-9301224D01*
X12140866Y-9298074D01*
X12140866Y-9298073D01*
X12140932Y-9297461D01*
X12140495Y-9292461D01*
X12140462Y-9291979D01*
X12140450Y-9291731D01*
X12140450Y-9291423D01*
X12140137Y-9288229D01*
X12140031Y-9287149D01*
X12140019Y-9287018D01*
X12139262Y-9278372D01*
X12139209Y-9277759D01*
X12139060Y-9277247D01*
X12139008Y-9276717D01*
X12136321Y-9267817D01*
X12136287Y-9267703D01*
X12133863Y-9259359D01*
X12133863Y-9259358D01*
X12133691Y-9258766D01*
X12133446Y-9258293D01*
X12133292Y-9257783D01*
X12129433Y-9250525D01*
X12128927Y-9249574D01*
X12128866Y-9249457D01*
X12124873Y-9241755D01*
X12124589Y-9241207D01*
X12124257Y-9240791D01*
X12124007Y-9240320D01*
X12118124Y-9233108D01*
X12118055Y-9233023D01*
X12114926Y-9229103D01*
X12114676Y-9228852D01*
X12114612Y-9228781D01*
X12114241Y-9228347D01*
X12111506Y-9224994D01*
X12107973Y-9222071D01*
X12107096Y-9221273D01*
X12018765Y-9132942D01*
X12017855Y-9131927D01*
X12015870Y-9129458D01*
X12015483Y-9128978D01*
X12011638Y-9125751D01*
X12011273Y-9125433D01*
X12011092Y-9125269D01*
X12010872Y-9125049D01*
X12007545Y-9122316D01*
X12007465Y-9122250D01*
X12000333Y-9116265D01*
X11999866Y-9116008D01*
X11999454Y-9115670D01*
X11991271Y-9111282D01*
X11991155Y-9111219D01*
X11983542Y-9107034D01*
X11983541Y-9107034D01*
X11983001Y-9106737D01*
X11982493Y-9106576D01*
X11982024Y-9106324D01*
X11973127Y-9103604D01*
X11973024Y-9103572D01*
X11964149Y-9100757D01*
X11963620Y-9100697D01*
X11963110Y-9100541D01*
X11953854Y-9099601D01*
X11953741Y-9099589D01*
X11950379Y-9099212D01*
X11949107Y-9099069D01*
X11949107Y-9099069D01*
X11948757Y-9099030D01*
X11948405Y-9099030D01*
X11948306Y-9099025D01*
X11947738Y-9098980D01*
X11944797Y-9098681D01*
X11944046Y-9098605D01*
X11944046Y-9098605D01*
X11943434Y-9098543D01*
X11939206Y-9098942D01*
X11938869Y-9098974D01*
X11937683Y-9099030D01*
X11802740Y-9099030D01*
X11795928Y-9097030D01*
X11794931Y-9096318D01*
X11782701Y-9086660D01*
X11782701Y-9086660D01*
X11782296Y-9086340D01*
X11778165Y-9084060D01*
X11773168Y-9079016D01*
X11771691Y-9072072D01*
X11774203Y-9065432D01*
X11776938Y-9062771D01*
X11781320Y-9059645D01*
X11794846Y-9049997D01*
X11810670Y-9034229D01*
X11816619Y-9025949D01*
X11823403Y-9016508D01*
X11823705Y-9016088D01*
X11825792Y-9011866D01*
X11833374Y-8996525D01*
X11833374Y-8996525D01*
X11833603Y-8996061D01*
X11840097Y-8974687D01*
X11843013Y-8952539D01*
X11843176Y-8945880D01*
X11841345Y-8923616D01*
X11835903Y-8901950D01*
X11826995Y-8881464D01*
X11814861Y-8862708D01*
X11799827Y-8846185D01*
X11799422Y-8845865D01*
X11799421Y-8845865D01*
X11782701Y-8832660D01*
X11782701Y-8832660D01*
X11782296Y-8832340D01*
X11778165Y-8830060D01*
X11773168Y-8825016D01*
X11771691Y-8818072D01*
X11774203Y-8811432D01*
X11776938Y-8808771D01*
X11781320Y-8805645D01*
X11794846Y-8795997D01*
X11810670Y-8780229D01*
X11816619Y-8771949D01*
X11823403Y-8762508D01*
X11823705Y-8762088D01*
X11825792Y-8757866D01*
X11833374Y-8742525D01*
X11833374Y-8742525D01*
X11833603Y-8742061D01*
X11840097Y-8720687D01*
X11843013Y-8698539D01*
X11843147Y-8693047D01*
X11843167Y-8692217D01*
X11843167Y-8692216D01*
X11843176Y-8691880D01*
X11841345Y-8669616D01*
X11835903Y-8647950D01*
X11826995Y-8627464D01*
X11823051Y-8621366D01*
X11815142Y-8609142D01*
X11815142Y-8609141D01*
X11814861Y-8608708D01*
X11799827Y-8592185D01*
X11799422Y-8591865D01*
X11799421Y-8591865D01*
X11782701Y-8578660D01*
X11782701Y-8578660D01*
X11782296Y-8578340D01*
X11778165Y-8576060D01*
X11773168Y-8571016D01*
X11771691Y-8564072D01*
X11774203Y-8557432D01*
X11776938Y-8554771D01*
X11781320Y-8551645D01*
X11794846Y-8541997D01*
X11797095Y-8539756D01*
X11805418Y-8531463D01*
X11810670Y-8526229D01*
X11810981Y-8525795D01*
X11823403Y-8508508D01*
X11823705Y-8508088D01*
X11825792Y-8503866D01*
X11833374Y-8488525D01*
X11833374Y-8488525D01*
X11833603Y-8488061D01*
X11840097Y-8466687D01*
X11843013Y-8444539D01*
X11843176Y-8437880D01*
X11841345Y-8415616D01*
X11835903Y-8393950D01*
X11826995Y-8373464D01*
X11814861Y-8354708D01*
X11799827Y-8338185D01*
X11799422Y-8337865D01*
X11799421Y-8337865D01*
X11782701Y-8324660D01*
X11782701Y-8324660D01*
X11782296Y-8324340D01*
X11778165Y-8322060D01*
X11773168Y-8317016D01*
X11771691Y-8310072D01*
X11774203Y-8303432D01*
X11776938Y-8300771D01*
X11781320Y-8297645D01*
X11794846Y-8287997D01*
X11810670Y-8272229D01*
X11816619Y-8263949D01*
X11823403Y-8254508D01*
X11823705Y-8254088D01*
X11825792Y-8249866D01*
X11833374Y-8234525D01*
X11833374Y-8234525D01*
X11833603Y-8234061D01*
X11840097Y-8212687D01*
X11843013Y-8190539D01*
X11843176Y-8183880D01*
X11841345Y-8161616D01*
X11835903Y-8139950D01*
X11826995Y-8119464D01*
X11823051Y-8113366D01*
X11815142Y-8101142D01*
X11815142Y-8101141D01*
X11814861Y-8100708D01*
X11799827Y-8084185D01*
X11799422Y-8083865D01*
X11799421Y-8083865D01*
X11782701Y-8070660D01*
X11782701Y-8070660D01*
X11782296Y-8070340D01*
X11778165Y-8068060D01*
X11773168Y-8063016D01*
X11771691Y-8056072D01*
X11774203Y-8049432D01*
X11776938Y-8046771D01*
X11781320Y-8043645D01*
X11794846Y-8033997D01*
X11810670Y-8018229D01*
X11816619Y-8009949D01*
X11823403Y-8000508D01*
X11823705Y-8000088D01*
X11825792Y-7995866D01*
X11833374Y-7980525D01*
X11833374Y-7980525D01*
X11833603Y-7980061D01*
X11840097Y-7958687D01*
X11843013Y-7936539D01*
X11843176Y-7929880D01*
X11841345Y-7907616D01*
X11835903Y-7885950D01*
X11826995Y-7865464D01*
X11814861Y-7846708D01*
X11799827Y-7830185D01*
X11799422Y-7829865D01*
X11799421Y-7829865D01*
X11782701Y-7816660D01*
X11782701Y-7816660D01*
X11782296Y-7816340D01*
X11778165Y-7814060D01*
X11773168Y-7809016D01*
X11771691Y-7802072D01*
X11774203Y-7795432D01*
X11776938Y-7792771D01*
X11781320Y-7789645D01*
X11794846Y-7779997D01*
X11810670Y-7764229D01*
X11816619Y-7755949D01*
X11823403Y-7746508D01*
X11823705Y-7746088D01*
X11825792Y-7741866D01*
X11833374Y-7726525D01*
X11833374Y-7726525D01*
X11833603Y-7726061D01*
X11840097Y-7704687D01*
X11843013Y-7682539D01*
X11843176Y-7675880D01*
X11841345Y-7653616D01*
X11835903Y-7631950D01*
X11826995Y-7611464D01*
X11820231Y-7601007D01*
X11815142Y-7593142D01*
X11815142Y-7593141D01*
X11814861Y-7592708D01*
X11799827Y-7576185D01*
X11799422Y-7575865D01*
X11799421Y-7575865D01*
X11782701Y-7562660D01*
X11782701Y-7562660D01*
X11782296Y-7562340D01*
X11762739Y-7551544D01*
X11762252Y-7551371D01*
X11762252Y-7551371D01*
X11742169Y-7544259D01*
X11742168Y-7544259D01*
X11741681Y-7544087D01*
X11741172Y-7543996D01*
X11741172Y-7543996D01*
X11720197Y-7540260D01*
X11720197Y-7540260D01*
X11719688Y-7540169D01*
X11712305Y-7540079D01*
X11697868Y-7539903D01*
X11697868Y-7539903D01*
X11697351Y-7539896D01*
X11675269Y-7543275D01*
X11654036Y-7550216D01*
X11634221Y-7560531D01*
X11633807Y-7560841D01*
X11633807Y-7560841D01*
X11621584Y-7570019D01*
X11616356Y-7573943D01*
X11600923Y-7590094D01*
X11588334Y-7608548D01*
X11586760Y-7611939D01*
X11580794Y-7624792D01*
X11578929Y-7628810D01*
X11572959Y-7650337D01*
X11570585Y-7672549D01*
X11570615Y-7673065D01*
X11570615Y-7673065D01*
X11571323Y-7685352D01*
X11571871Y-7694851D01*
X11571985Y-7695356D01*
X11571985Y-7695357D01*
X11573972Y-7704174D01*
X11576782Y-7716644D01*
X11585187Y-7737342D01*
X11590262Y-7745624D01*
X11596589Y-7755949D01*
X11596859Y-7756389D01*
X11611485Y-7773274D01*
X11628673Y-7787543D01*
X11635719Y-7791661D01*
X11636004Y-7791828D01*
X11640877Y-7796991D01*
X11642184Y-7803970D01*
X11639511Y-7810547D01*
X11635465Y-7813883D01*
X11634221Y-7814531D01*
X11633807Y-7814841D01*
X11633807Y-7814841D01*
X11631385Y-7816660D01*
X11616356Y-7827943D01*
X11600923Y-7844094D01*
X11588334Y-7862548D01*
X11578929Y-7882810D01*
X11572959Y-7904337D01*
X11570585Y-7926549D01*
X11570615Y-7927065D01*
X11570615Y-7927065D01*
X11571161Y-7936539D01*
X11571871Y-7948851D01*
X11571985Y-7949356D01*
X11571985Y-7949357D01*
X11572713Y-7952588D01*
X11576782Y-7970644D01*
X11585187Y-7991342D01*
X11590262Y-7999624D01*
X11596589Y-8009949D01*
X11596859Y-8010389D01*
X11611485Y-8027274D01*
X11628673Y-8041543D01*
X11635719Y-8045661D01*
X11636004Y-8045828D01*
X11640877Y-8050991D01*
X11642184Y-8057970D01*
X11639511Y-8064547D01*
X11635465Y-8067883D01*
X11634221Y-8068531D01*
X11633807Y-8068841D01*
X11633807Y-8068841D01*
X11631385Y-8070660D01*
X11616356Y-8081943D01*
X11600923Y-8098094D01*
X11588334Y-8116548D01*
X11578929Y-8136810D01*
X11572959Y-8158337D01*
X11570585Y-8180549D01*
X11570615Y-8181065D01*
X11570615Y-8181065D01*
X11571841Y-8202335D01*
X11571871Y-8202851D01*
X11571985Y-8203356D01*
X11571985Y-8203357D01*
X11573972Y-8212174D01*
X11576782Y-8224644D01*
X11585187Y-8245342D01*
X11590262Y-8253624D01*
X11596589Y-8263949D01*
X11596859Y-8264389D01*
X11611485Y-8281274D01*
X11628673Y-8295543D01*
X11635719Y-8299661D01*
X11636004Y-8299828D01*
X11640877Y-8304991D01*
X11642184Y-8311970D01*
X11639511Y-8318547D01*
X11635465Y-8321883D01*
X11634221Y-8322531D01*
X11633807Y-8322841D01*
X11633807Y-8322841D01*
X11618996Y-8333962D01*
X11616356Y-8335943D01*
X11600923Y-8352094D01*
X11588334Y-8370548D01*
X11578929Y-8390811D01*
X11572959Y-8412337D01*
X11570585Y-8434550D01*
X11570615Y-8435065D01*
X11570615Y-8435065D01*
X11571161Y-8444539D01*
X11571871Y-8456852D01*
X11571985Y-8457356D01*
X11571985Y-8457357D01*
X11572428Y-8459324D01*
X11576782Y-8478644D01*
X11585187Y-8499342D01*
X11589794Y-8506860D01*
X11596589Y-8517949D01*
X11596859Y-8518389D01*
X11611485Y-8535274D01*
X11628673Y-8549543D01*
X11635212Y-8553365D01*
X11636004Y-8553828D01*
X11640877Y-8558991D01*
X11642184Y-8565970D01*
X11639511Y-8572547D01*
X11635465Y-8575883D01*
X11634221Y-8576531D01*
X11633807Y-8576841D01*
X11633807Y-8576841D01*
X11621186Y-8586317D01*
X11616356Y-8589944D01*
X11600923Y-8606094D01*
X11588334Y-8624548D01*
X11578929Y-8644811D01*
X11572959Y-8666337D01*
X11570585Y-8688550D01*
X11570615Y-8689065D01*
X11570615Y-8689065D01*
X11571161Y-8698539D01*
X11571871Y-8710852D01*
X11571985Y-8711356D01*
X11571985Y-8711357D01*
X11572574Y-8713973D01*
X11576782Y-8732644D01*
X11585187Y-8753342D01*
X11590262Y-8761624D01*
X11596589Y-8771949D01*
X11596859Y-8772389D01*
X11611485Y-8789274D01*
X11628673Y-8803543D01*
X11635719Y-8807661D01*
X11636004Y-8807828D01*
X11640877Y-8812991D01*
X11642184Y-8819970D01*
X11639511Y-8826547D01*
X11635465Y-8829883D01*
X11634221Y-8830531D01*
X11633807Y-8830841D01*
X11633807Y-8830841D01*
X11631385Y-8832660D01*
X11616356Y-8843944D01*
X11600923Y-8860094D01*
X11600632Y-8860520D01*
X11600631Y-8860521D01*
X11593834Y-8870486D01*
X11588334Y-8878548D01*
X11578929Y-8898811D01*
X11572959Y-8920337D01*
X11570585Y-8942550D01*
X11570615Y-8943065D01*
X11570615Y-8943065D01*
X11571161Y-8952539D01*
X11571871Y-8964852D01*
X11571985Y-8965356D01*
X11571985Y-8965357D01*
X11573972Y-8974174D01*
X11576782Y-8986644D01*
X11585187Y-9007342D01*
X11590262Y-9015624D01*
X11596589Y-9025949D01*
X11596859Y-9026389D01*
X11611485Y-9043274D01*
X11628673Y-9057543D01*
X11635719Y-9061661D01*
X11636004Y-9061828D01*
X11640877Y-9066991D01*
X11642184Y-9073970D01*
X11639511Y-9080547D01*
X11635465Y-9083883D01*
X11634221Y-9084531D01*
X11633807Y-9084841D01*
X11633807Y-9084841D01*
X11629089Y-9088384D01*
X11616356Y-9097944D01*
X11615372Y-9098974D01*
X11605265Y-9109550D01*
X11600923Y-9114094D01*
X11600632Y-9114520D01*
X11600631Y-9114521D01*
X11593583Y-9124854D01*
X11588334Y-9132548D01*
X11578929Y-9152811D01*
X11572959Y-9174337D01*
X11570585Y-9196550D01*
X11570615Y-9197065D01*
X11570615Y-9197065D01*
X11571161Y-9206539D01*
X11571871Y-9218852D01*
X11571985Y-9219356D01*
X11571985Y-9219357D01*
X11572511Y-9221693D01*
X11576782Y-9240644D01*
X11580408Y-9249574D01*
X11583742Y-9257783D01*
X11585187Y-9261342D01*
X11589085Y-9267703D01*
X11596589Y-9279949D01*
X11596859Y-9280389D01*
X11611485Y-9297274D01*
X11611882Y-9297604D01*
X11611883Y-9297604D01*
X11612402Y-9298036D01*
X11616366Y-9303926D01*
X11616515Y-9311024D01*
X11612804Y-9317076D01*
X11608777Y-9319528D01*
X11598055Y-9323548D01*
X11596495Y-9324401D01*
X11586288Y-9332052D01*
X11585031Y-9333308D01*
X11577381Y-9343515D01*
X11576528Y-9345075D01*
X11572012Y-9357119D01*
X11571649Y-9358645D01*
X11571097Y-9363731D01*
X11571060Y-9364413D01*
X11571060Y-9426669D01*
X11571507Y-9428192D01*
X11571646Y-9428313D01*
X11572415Y-9428480D01*
X11840848Y-9428480D01*
X11842372Y-9428033D01*
X11842493Y-9427894D01*
X11842660Y-9427125D01*
X11842660Y-9364413D01*
X11842623Y-9363731D01*
X11842070Y-9358645D01*
X11841708Y-9357120D01*
X11837192Y-9345075D01*
X11836339Y-9343515D01*
X11828688Y-9333308D01*
X11827432Y-9332052D01*
X11817225Y-9324401D01*
X11817189Y-9324382D01*
X11817161Y-9324354D01*
X11816506Y-9323863D01*
X11816577Y-9323768D01*
X11812175Y-9319356D01*
X11810673Y-9312417D01*
X11813162Y-9305768D01*
X11818850Y-9301520D01*
X11823240Y-9300730D01*
X11896087Y-9300730D01*
X11902899Y-9302730D01*
X11904997Y-9304420D01*
X11935059Y-9334483D01*
X11938462Y-9340714D01*
X11938750Y-9343393D01*
X11938750Y-9544216D01*
X11938676Y-9545576D01*
X11938268Y-9549339D01*
X11938336Y-9550121D01*
X11938705Y-9554339D01*
X11938738Y-9554821D01*
X11938750Y-9555069D01*
X11938750Y-9555377D01*
X11938780Y-9555684D01*
X11939169Y-9559651D01*
X11939181Y-9559782D01*
X11939568Y-9564208D01*
X11939991Y-9569041D01*
X11940140Y-9569553D01*
X11940192Y-9570083D01*
X11942879Y-9578983D01*
X11942913Y-9579097D01*
X11944151Y-9583359D01*
X11945509Y-9588034D01*
X11945754Y-9588507D01*
X11945908Y-9589017D01*
X11946198Y-9589561D01*
X11950273Y-9597226D01*
X11950334Y-9597343D01*
X11954611Y-9605593D01*
X11954943Y-9606009D01*
X11955193Y-9606480D01*
X11961075Y-9613692D01*
X11961145Y-9613777D01*
X11964274Y-9617697D01*
X11964524Y-9617948D01*
X11964588Y-9618020D01*
X11964958Y-9618453D01*
X11967693Y-9621806D01*
X11971227Y-9624729D01*
X11972104Y-9625527D01*
X12018305Y-9671728D01*
X12054554Y-9707978D01*
X12057957Y-9714209D01*
X12057451Y-9721291D01*
X12053196Y-9726974D01*
X12046544Y-9729455D01*
X12045645Y-9729488D01*
X11293085Y-9729488D01*
X11290871Y-9729292D01*
X11290092Y-9729153D01*
X11290092Y-9729153D01*
X11289222Y-9728997D01*
X11289222Y-9728997D01*
X11289209Y-9728995D01*
X11289209Y-9728993D01*
X11282905Y-9726904D01*
X11278443Y-9721382D01*
X11277584Y-9718178D01*
X11277200Y-9715239D01*
X11277093Y-9713606D01*
X11277093Y-9543347D01*
X11571060Y-9543347D01*
X11571097Y-9544029D01*
X11571649Y-9549115D01*
X11572012Y-9550640D01*
X11576528Y-9562685D01*
X11577381Y-9564245D01*
X11585031Y-9574452D01*
X11586288Y-9575709D01*
X11596495Y-9583359D01*
X11598055Y-9584212D01*
X11610099Y-9588728D01*
X11611625Y-9589091D01*
X11616711Y-9589643D01*
X11617393Y-9589680D01*
X11679648Y-9589680D01*
X11681172Y-9589233D01*
X11681293Y-9589094D01*
X11681460Y-9588325D01*
X11681460Y-9587868D01*
X11732260Y-9587868D01*
X11732707Y-9589392D01*
X11732846Y-9589513D01*
X11733615Y-9589680D01*
X11796327Y-9589680D01*
X11797009Y-9589643D01*
X11802095Y-9589091D01*
X11803620Y-9588728D01*
X11815665Y-9584212D01*
X11817225Y-9583359D01*
X11827432Y-9575709D01*
X11828688Y-9574452D01*
X11836339Y-9564245D01*
X11837192Y-9562685D01*
X11841708Y-9550641D01*
X11842070Y-9549115D01*
X11842623Y-9544029D01*
X11842660Y-9543347D01*
X11842660Y-9481092D01*
X11842212Y-9479568D01*
X11842073Y-9479447D01*
X11841305Y-9479280D01*
X11734071Y-9479280D01*
X11732548Y-9479728D01*
X11732427Y-9479867D01*
X11732260Y-9480635D01*
X11732260Y-9587868D01*
X11681460Y-9587868D01*
X11681460Y-9481092D01*
X11681012Y-9479568D01*
X11680873Y-9479447D01*
X11680105Y-9479280D01*
X11572872Y-9479280D01*
X11571348Y-9479728D01*
X11571227Y-9479867D01*
X11571060Y-9480635D01*
X11571060Y-9543347D01*
X11277093Y-9543347D01*
X11277093Y-7041009D01*
X11277260Y-7038964D01*
X11277605Y-7036869D01*
X11277819Y-7036904D01*
X11279595Y-7031292D01*
X11285056Y-7026755D01*
X11288416Y-7025829D01*
X11290498Y-7025557D01*
X11292132Y-7025451D01*
X12269749Y-7025451D01*
X12276561Y-7027451D01*
G37*
%TD.AperFunction*%
%TA.AperFunction,Conductor*%
G36*
X13636140Y-7025595D02*
G01*
X13637456Y-7025796D01*
X13638556Y-7025964D01*
X13644988Y-7028970D01*
X13648774Y-7034976D01*
X13649148Y-7036785D01*
X13649326Y-7038148D01*
X13649432Y-7039782D01*
X13649432Y-8655948D01*
X13647432Y-8662760D01*
X13642066Y-8667410D01*
X13635039Y-8668420D01*
X13628581Y-8665471D01*
X13625646Y-8661747D01*
X13623473Y-8657555D01*
X13623189Y-8657007D01*
X13622857Y-8656591D01*
X13622607Y-8656120D01*
X13616726Y-8648910D01*
X13616643Y-8648808D01*
X13613747Y-8645179D01*
X13613746Y-8645179D01*
X13613526Y-8644903D01*
X13613276Y-8644653D01*
X13613212Y-8644581D01*
X13612841Y-8644146D01*
X13611923Y-8643021D01*
X13610106Y-8640794D01*
X13609632Y-8640402D01*
X13609632Y-8640401D01*
X13606573Y-8637870D01*
X13605695Y-8637071D01*
X13534485Y-8565862D01*
X13533575Y-8564848D01*
X13531590Y-8562378D01*
X13531203Y-8561898D01*
X13527358Y-8558671D01*
X13526993Y-8558353D01*
X13526812Y-8558189D01*
X13526592Y-8557969D01*
X13523265Y-8555236D01*
X13523185Y-8555170D01*
X13516053Y-8549185D01*
X13515586Y-8548928D01*
X13515174Y-8548590D01*
X13506991Y-8544202D01*
X13506875Y-8544139D01*
X13499262Y-8539954D01*
X13499261Y-8539954D01*
X13498721Y-8539657D01*
X13498213Y-8539496D01*
X13497744Y-8539244D01*
X13488847Y-8536524D01*
X13488744Y-8536492D01*
X13479869Y-8533677D01*
X13479340Y-8533617D01*
X13478830Y-8533461D01*
X13469574Y-8532521D01*
X13469461Y-8532509D01*
X13466099Y-8532132D01*
X13464827Y-8531989D01*
X13464827Y-8531989D01*
X13464477Y-8531950D01*
X13464125Y-8531950D01*
X13464026Y-8531945D01*
X13463458Y-8531900D01*
X13460517Y-8531601D01*
X13459766Y-8531525D01*
X13459766Y-8531525D01*
X13459154Y-8531463D01*
X13454926Y-8531862D01*
X13454589Y-8531894D01*
X13453403Y-8531950D01*
X13403305Y-8531950D01*
X13396493Y-8529950D01*
X13393826Y-8527652D01*
X13393090Y-8526811D01*
X13336281Y-8470002D01*
X13334887Y-8469241D01*
X13334703Y-8469254D01*
X13334042Y-8469679D01*
X13277926Y-8525795D01*
X13277165Y-8527189D01*
X13277367Y-8530012D01*
X13275857Y-8536949D01*
X13271241Y-8541739D01*
X13269565Y-8542736D01*
X13254248Y-8556169D01*
X13244839Y-8568103D01*
X13239051Y-8572215D01*
X13231959Y-8572544D01*
X13225815Y-8568987D01*
X13224849Y-8567842D01*
X13218076Y-8558772D01*
X13218076Y-8558771D01*
X13217730Y-8558309D01*
X13207860Y-8549185D01*
X13203194Y-8544872D01*
X13203194Y-8544872D01*
X13202770Y-8544480D01*
X13202282Y-8544172D01*
X13202282Y-8544172D01*
X13201127Y-8543443D01*
X13196433Y-8538117D01*
X13195364Y-8531098D01*
X13198260Y-8524616D01*
X13199794Y-8523100D01*
X13201335Y-8521818D01*
X13213719Y-8511519D01*
X13217593Y-8506860D01*
X13226376Y-8496299D01*
X13226376Y-8496299D01*
X13226746Y-8495855D01*
X13226774Y-8495804D01*
X13232151Y-8491429D01*
X13238270Y-8490508D01*
X13240432Y-8490723D01*
X13241968Y-8489911D01*
X13297798Y-8434081D01*
X13298436Y-8432913D01*
X13371441Y-8432913D01*
X13371454Y-8433097D01*
X13371879Y-8433758D01*
X13428024Y-8489903D01*
X13429261Y-8490579D01*
X13429919Y-8490086D01*
X13436373Y-8478563D01*
X13436840Y-8477513D01*
X13443014Y-8459324D01*
X13443283Y-8458205D01*
X13446069Y-8438991D01*
X13446132Y-8438253D01*
X13446265Y-8433170D01*
X13446241Y-8432431D01*
X13444464Y-8413098D01*
X13444254Y-8411965D01*
X13439041Y-8393479D01*
X13438628Y-8392404D01*
X13430216Y-8375346D01*
X13429487Y-8374799D01*
X13428245Y-8375476D01*
X13372202Y-8431519D01*
X13371441Y-8432913D01*
X13298436Y-8432913D01*
X13298559Y-8432687D01*
X13298546Y-8432503D01*
X13298121Y-8431842D01*
X13241854Y-8375575D01*
X13240460Y-8374814D01*
X13237455Y-8375029D01*
X13230518Y-8373520D01*
X13226460Y-8370000D01*
X13218076Y-8358771D01*
X13218076Y-8358771D01*
X13217730Y-8358309D01*
X13202770Y-8344480D01*
X13193558Y-8338667D01*
X13277279Y-8338667D01*
X13277627Y-8339506D01*
X13333719Y-8395598D01*
X13335113Y-8396359D01*
X13335297Y-8396346D01*
X13335958Y-8395921D01*
X13392028Y-8339850D01*
X13392704Y-8338613D01*
X13392101Y-8337807D01*
X13386006Y-8333962D01*
X13384981Y-8333439D01*
X13367140Y-8326322D01*
X13366037Y-8325995D01*
X13347198Y-8322248D01*
X13346053Y-8322127D01*
X13326848Y-8321876D01*
X13325700Y-8321966D01*
X13306770Y-8325219D01*
X13305658Y-8325517D01*
X13287636Y-8332165D01*
X13286599Y-8332660D01*
X13278238Y-8337634D01*
X13277279Y-8338667D01*
X13193558Y-8338667D01*
X13193399Y-8338567D01*
X13186029Y-8333917D01*
X13186028Y-8333917D01*
X13185540Y-8333609D01*
X13166618Y-8326059D01*
X13148878Y-8322531D01*
X13147203Y-8322198D01*
X13147203Y-8322198D01*
X13146637Y-8322085D01*
X13146059Y-8322077D01*
X13146059Y-8322077D01*
X13135745Y-8321942D01*
X13126265Y-8321818D01*
X13125696Y-8321916D01*
X13125696Y-8321916D01*
X13106757Y-8325170D01*
X13106187Y-8325268D01*
X13087073Y-8332320D01*
X13086577Y-8332615D01*
X13086577Y-8332615D01*
X13074994Y-8339506D01*
X13069565Y-8342736D01*
X13054248Y-8356169D01*
X13053891Y-8356622D01*
X13046701Y-8365742D01*
X13040912Y-8369854D01*
X13033820Y-8370183D01*
X13027896Y-8366851D01*
X13018540Y-8357496D01*
X13015138Y-8351265D01*
X13014850Y-8348586D01*
X13014850Y-8082800D01*
X13073653Y-8082800D01*
X13075639Y-8108040D01*
X13075754Y-8108521D01*
X13075755Y-8108522D01*
X13078496Y-8119939D01*
X13081549Y-8132659D01*
X13081739Y-8133116D01*
X13081739Y-8133116D01*
X13084570Y-8139950D01*
X13091238Y-8156050D01*
X13104467Y-8177638D01*
X13120910Y-8196890D01*
X13140162Y-8213333D01*
X13161750Y-8226562D01*
X13162207Y-8226751D01*
X13162207Y-8226751D01*
X13184684Y-8236061D01*
X13185141Y-8236250D01*
X13193603Y-8238282D01*
X13209278Y-8242045D01*
X13209279Y-8242045D01*
X13209760Y-8242161D01*
X13219742Y-8242946D01*
X13228434Y-8243631D01*
X13228435Y-8243631D01*
X13228680Y-8243650D01*
X13241320Y-8243650D01*
X13241565Y-8243631D01*
X13241565Y-8243631D01*
X13250258Y-8242946D01*
X13260240Y-8242161D01*
X13260721Y-8242045D01*
X13260722Y-8242045D01*
X13276397Y-8238282D01*
X13284859Y-8236250D01*
X13285316Y-8236061D01*
X13307793Y-8226751D01*
X13307793Y-8226751D01*
X13308250Y-8226562D01*
X13329838Y-8213333D01*
X13349090Y-8196890D01*
X13365533Y-8177638D01*
X13378762Y-8156050D01*
X13385430Y-8139950D01*
X13388261Y-8133116D01*
X13388261Y-8133116D01*
X13388450Y-8132659D01*
X13391504Y-8119939D01*
X13394245Y-8108522D01*
X13394245Y-8108521D01*
X13394361Y-8108040D01*
X13396347Y-8082800D01*
X13394361Y-8057560D01*
X13393222Y-8052814D01*
X13388566Y-8033422D01*
X13388450Y-8032941D01*
X13379271Y-8010779D01*
X13378951Y-8010007D01*
X13378951Y-8010007D01*
X13378762Y-8009550D01*
X13365533Y-7987962D01*
X13349090Y-7968710D01*
X13329838Y-7952267D01*
X13308250Y-7939038D01*
X13307793Y-7938849D01*
X13307793Y-7938849D01*
X13285316Y-7929539D01*
X13285316Y-7929539D01*
X13284859Y-7929349D01*
X13273196Y-7926549D01*
X13260722Y-7923555D01*
X13260721Y-7923554D01*
X13260240Y-7923439D01*
X13250258Y-7922653D01*
X13241565Y-7921969D01*
X13241565Y-7921969D01*
X13241320Y-7921950D01*
X13228680Y-7921950D01*
X13228435Y-7921969D01*
X13228434Y-7921969D01*
X13219742Y-7922653D01*
X13209760Y-7923439D01*
X13209279Y-7923554D01*
X13209278Y-7923555D01*
X13196804Y-7926549D01*
X13185141Y-7929349D01*
X13184684Y-7929539D01*
X13184684Y-7929539D01*
X13162207Y-7938849D01*
X13162207Y-7938849D01*
X13161750Y-7939038D01*
X13140162Y-7952267D01*
X13120910Y-7968710D01*
X13104467Y-7987962D01*
X13091238Y-8009550D01*
X13091049Y-8010007D01*
X13091049Y-8010007D01*
X13090729Y-8010779D01*
X13081549Y-8032941D01*
X13081434Y-8033422D01*
X13076778Y-8052814D01*
X13075639Y-8057560D01*
X13073653Y-8082800D01*
X13014850Y-8082800D01*
X13014850Y-7802824D01*
X13016850Y-7796012D01*
X13018540Y-7793914D01*
X13120623Y-7691831D01*
X13121862Y-7690745D01*
X13123744Y-7689301D01*
X13124399Y-7688799D01*
X13126847Y-7685607D01*
X13126848Y-7685607D01*
X13133650Y-7676743D01*
X13133650Y-7676743D01*
X13134152Y-7676088D01*
X13136895Y-7669467D01*
X13140284Y-7661285D01*
X13141850Y-7649388D01*
X13141850Y-7649388D01*
X13142375Y-7645400D01*
X13141958Y-7642231D01*
X13141850Y-7640586D01*
X13141850Y-7574014D01*
X13141958Y-7572369D01*
X13142267Y-7570019D01*
X13142375Y-7569200D01*
X13141850Y-7565212D01*
X13141850Y-7565211D01*
X13140284Y-7553315D01*
X13136125Y-7543275D01*
X13134152Y-7538512D01*
X13133627Y-7537828D01*
X13126848Y-7528994D01*
X13126848Y-7528993D01*
X13126847Y-7528992D01*
X13124399Y-7525801D01*
X13123743Y-7525298D01*
X13121862Y-7523855D01*
X13120623Y-7522768D01*
X13102031Y-7504177D01*
X13100945Y-7502937D01*
X13099501Y-7501056D01*
X13098999Y-7500401D01*
X13095807Y-7497953D01*
X13095807Y-7497952D01*
X13086288Y-7490648D01*
X13079227Y-7487723D01*
X13074975Y-7485962D01*
X13069447Y-7481507D01*
X13067205Y-7474771D01*
X13068961Y-7467892D01*
X13072241Y-7464238D01*
X13072995Y-7463673D01*
X13073589Y-7463228D01*
X13074608Y-7462464D01*
X13074608Y-7462464D01*
X13075326Y-7461926D01*
X13084061Y-7450270D01*
X13086294Y-7444314D01*
X13088480Y-7438485D01*
X13092744Y-7432808D01*
X13099400Y-7430338D01*
X13106335Y-7431859D01*
X13109802Y-7434658D01*
X13112322Y-7437567D01*
X13113058Y-7438288D01*
X13129443Y-7451892D01*
X13130288Y-7452483D01*
X13148676Y-7463228D01*
X13149604Y-7463673D01*
X13169500Y-7471270D01*
X13170490Y-7471558D01*
X13180825Y-7473661D01*
X13182230Y-7473541D01*
X13182600Y-7472506D01*
X13182600Y-7472452D01*
X13233400Y-7472452D01*
X13233806Y-7473836D01*
X13235148Y-7474039D01*
X13235818Y-7473953D01*
X13236826Y-7473739D01*
X13257225Y-7467619D01*
X13258184Y-7467243D01*
X13277309Y-7457874D01*
X13278194Y-7457346D01*
X13295533Y-7444979D01*
X13296320Y-7444314D01*
X13311405Y-7429281D01*
X13312073Y-7428496D01*
X13324802Y-7410782D01*
X13324928Y-7410872D01*
X13329637Y-7406536D01*
X13336631Y-7405314D01*
X13343175Y-7408068D01*
X13345958Y-7411251D01*
X13351999Y-7421109D01*
X13366625Y-7437994D01*
X13383813Y-7452263D01*
X13403100Y-7463534D01*
X13423969Y-7471503D01*
X13424476Y-7471606D01*
X13424476Y-7471606D01*
X13428994Y-7472525D01*
X13445860Y-7475957D01*
X13446377Y-7475976D01*
X13446377Y-7475976D01*
X13467667Y-7476756D01*
X13467668Y-7476756D01*
X13468184Y-7476775D01*
X13468696Y-7476710D01*
X13468696Y-7476710D01*
X13489829Y-7474002D01*
X13489829Y-7474002D01*
X13490342Y-7473937D01*
X13490837Y-7473788D01*
X13511243Y-7467666D01*
X13511243Y-7467666D01*
X13511738Y-7467517D01*
X13531799Y-7457690D01*
X13549986Y-7444717D01*
X13554384Y-7440335D01*
X13564415Y-7430338D01*
X13565810Y-7428949D01*
X13578845Y-7410808D01*
X13580199Y-7408068D01*
X13588514Y-7391245D01*
X13588514Y-7391245D01*
X13588743Y-7390781D01*
X13595237Y-7369407D01*
X13598153Y-7347259D01*
X13598316Y-7340600D01*
X13596485Y-7318336D01*
X13591043Y-7296670D01*
X13582135Y-7276184D01*
X13570001Y-7257428D01*
X13554967Y-7240905D01*
X13554562Y-7240585D01*
X13554561Y-7240585D01*
X13537841Y-7227380D01*
X13537841Y-7227380D01*
X13537436Y-7227060D01*
X13533803Y-7225054D01*
X13532214Y-7224177D01*
X13517879Y-7216264D01*
X13517392Y-7216091D01*
X13517392Y-7216091D01*
X13497309Y-7208979D01*
X13497308Y-7208979D01*
X13496821Y-7208807D01*
X13496312Y-7208716D01*
X13496312Y-7208716D01*
X13475337Y-7204980D01*
X13475337Y-7204980D01*
X13474828Y-7204889D01*
X13467445Y-7204799D01*
X13453008Y-7204623D01*
X13453008Y-7204623D01*
X13452491Y-7204616D01*
X13430409Y-7207995D01*
X13409176Y-7214936D01*
X13389361Y-7225251D01*
X13388947Y-7225561D01*
X13388947Y-7225561D01*
X13371910Y-7238353D01*
X13371496Y-7238663D01*
X13356063Y-7254814D01*
X13355771Y-7255241D01*
X13355771Y-7255241D01*
X13345290Y-7270607D01*
X13339799Y-7275107D01*
X13332746Y-7275924D01*
X13326371Y-7272799D01*
X13324302Y-7270350D01*
X13316243Y-7257893D01*
X13315614Y-7257076D01*
X13301281Y-7241324D01*
X13300527Y-7240621D01*
X13283814Y-7227422D01*
X13282955Y-7226852D01*
X13264312Y-7216560D01*
X13263370Y-7216137D01*
X13243296Y-7209028D01*
X13242299Y-7208765D01*
X13235184Y-7207497D01*
X13233854Y-7207643D01*
X13233400Y-7209099D01*
X13233400Y-7472452D01*
X13182600Y-7472452D01*
X13182600Y-7208910D01*
X13182208Y-7207576D01*
X13180781Y-7207377D01*
X13176932Y-7207966D01*
X13175929Y-7208205D01*
X13155687Y-7214821D01*
X13154736Y-7215221D01*
X13135846Y-7225054D01*
X13134974Y-7225604D01*
X13117943Y-7238390D01*
X13117173Y-7239075D01*
X13109448Y-7247158D01*
X13103295Y-7250701D01*
X13096204Y-7250356D01*
X13090425Y-7246231D01*
X13088540Y-7242876D01*
X13084377Y-7231770D01*
X13084061Y-7230929D01*
X13075326Y-7219274D01*
X13063670Y-7210538D01*
X13050032Y-7205425D01*
X13043813Y-7204750D01*
X12864187Y-7204750D01*
X12857968Y-7205425D01*
X12844329Y-7210538D01*
X12832674Y-7219274D01*
X12823938Y-7230929D01*
X12818825Y-7244568D01*
X12818150Y-7250787D01*
X12818150Y-7430413D01*
X12818825Y-7436632D01*
X12823938Y-7450270D01*
X12832674Y-7461926D01*
X12844329Y-7470661D01*
X12857968Y-7475774D01*
X12864187Y-7476450D01*
X12880550Y-7476450D01*
X12887362Y-7478450D01*
X12892011Y-7483816D01*
X12893150Y-7489050D01*
X12893150Y-7513586D01*
X12893042Y-7515231D01*
X12892625Y-7518400D01*
X12893150Y-7522388D01*
X12893150Y-7522388D01*
X12893599Y-7525801D01*
X12894716Y-7534285D01*
X12900848Y-7549088D01*
X12902924Y-7551794D01*
X12904048Y-7553258D01*
X12906608Y-7559880D01*
X12904963Y-7567228D01*
X12895947Y-7582844D01*
X12890046Y-7601007D01*
X12889977Y-7601663D01*
X12889977Y-7601663D01*
X12888897Y-7611939D01*
X12888050Y-7620000D01*
X12888068Y-7620179D01*
X12886118Y-7626820D01*
X12884428Y-7628917D01*
X12874425Y-7638920D01*
X12873185Y-7640007D01*
X12870649Y-7641953D01*
X12868201Y-7645144D01*
X12868200Y-7645145D01*
X12868200Y-7645146D01*
X12864216Y-7650337D01*
X12860896Y-7654664D01*
X12854764Y-7669467D01*
X12854764Y-7669467D01*
X12854589Y-7670795D01*
X12854358Y-7672549D01*
X12853198Y-7681363D01*
X12853198Y-7681364D01*
X12852673Y-7685352D01*
X12852781Y-7686171D01*
X12853090Y-7688521D01*
X12853198Y-7690166D01*
X12853198Y-8562740D01*
X12853090Y-8564384D01*
X12852673Y-8567553D01*
X12852781Y-8568372D01*
X12853005Y-8570075D01*
X12853198Y-8571541D01*
X12853198Y-8571542D01*
X12853958Y-8577311D01*
X12854764Y-8583438D01*
X12860896Y-8598241D01*
X12861398Y-8598896D01*
X12861398Y-8598896D01*
X12868200Y-8607760D01*
X12868201Y-8607761D01*
X12870649Y-8610952D01*
X12871305Y-8611455D01*
X12873186Y-8612898D01*
X12874425Y-8613985D01*
X13025459Y-8765020D01*
X13028862Y-8771251D01*
X13029150Y-8773929D01*
X13029150Y-8782986D01*
X13029042Y-8784631D01*
X13028625Y-8787800D01*
X13028733Y-8788619D01*
X13029150Y-8791788D01*
X13029150Y-8791789D01*
X13029535Y-8794714D01*
X13029076Y-8800095D01*
X13026108Y-8809654D01*
X13023713Y-8829886D01*
X13025046Y-8850215D01*
X13030060Y-8869961D01*
X13038590Y-8888462D01*
X13050348Y-8905100D01*
X13050761Y-8905502D01*
X13063047Y-8917471D01*
X13064941Y-8919316D01*
X13065421Y-8919636D01*
X13065421Y-8919636D01*
X13067594Y-8921088D01*
X13081880Y-8930634D01*
X13082411Y-8930862D01*
X13082411Y-8930862D01*
X13100068Y-8938448D01*
X13100599Y-8938676D01*
X13107882Y-8940324D01*
X13119905Y-8943045D01*
X13119906Y-8943045D01*
X13120469Y-8943173D01*
X13121046Y-8943195D01*
X13121046Y-8943195D01*
X13127347Y-8943443D01*
X13140826Y-8943972D01*
X13160988Y-8941049D01*
X13161535Y-8940864D01*
X13161535Y-8940863D01*
X13179733Y-8934686D01*
X13179733Y-8934686D01*
X13180280Y-8934500D01*
X13198055Y-8924546D01*
X13210962Y-8913811D01*
X13217479Y-8910993D01*
X13224484Y-8912145D01*
X13229852Y-8917240D01*
X13229938Y-8917471D01*
X13238674Y-8929126D01*
X13250329Y-8937862D01*
X13263968Y-8942975D01*
X13270187Y-8943650D01*
X13399813Y-8943650D01*
X13406032Y-8942975D01*
X13419670Y-8937862D01*
X13419731Y-8938023D01*
X13425635Y-8936731D01*
X13432290Y-8939205D01*
X13436551Y-8944884D01*
X13437350Y-8949300D01*
X13437350Y-9538550D01*
X13435350Y-9545362D01*
X13429984Y-9550011D01*
X13424750Y-9551150D01*
X12717829Y-9551150D01*
X12711017Y-9549150D01*
X12706367Y-9543784D01*
X12705357Y-9536757D01*
X12707596Y-9531197D01*
X12712403Y-9524508D01*
X12712705Y-9524088D01*
X12721602Y-9506086D01*
X12722374Y-9504525D01*
X12722374Y-9504525D01*
X12722603Y-9504061D01*
X12729097Y-9482687D01*
X12732013Y-9460539D01*
X12732176Y-9453880D01*
X12730345Y-9431616D01*
X12724903Y-9409950D01*
X12715995Y-9389464D01*
X12703861Y-9370708D01*
X12688827Y-9354185D01*
X12688422Y-9353865D01*
X12688421Y-9353865D01*
X12671701Y-9340660D01*
X12671701Y-9340660D01*
X12671296Y-9340340D01*
X12667165Y-9338060D01*
X12662168Y-9333016D01*
X12660691Y-9326072D01*
X12663203Y-9319432D01*
X12665938Y-9316771D01*
X12670320Y-9313645D01*
X12683846Y-9303997D01*
X12685118Y-9302730D01*
X12699303Y-9288594D01*
X12699670Y-9288229D01*
X12700540Y-9287018D01*
X12712403Y-9270508D01*
X12712705Y-9270088D01*
X12713884Y-9267703D01*
X12722374Y-9250525D01*
X12722374Y-9250525D01*
X12722603Y-9250061D01*
X12727783Y-9233012D01*
X12728946Y-9229182D01*
X12728946Y-9229182D01*
X12729097Y-9228687D01*
X12732013Y-9206539D01*
X12732176Y-9199880D01*
X12730771Y-9182800D01*
X13073653Y-9182800D01*
X13075639Y-9208040D01*
X13081549Y-9232659D01*
X13081739Y-9233116D01*
X13081739Y-9233116D01*
X13088556Y-9249574D01*
X13091238Y-9256050D01*
X13104467Y-9277638D01*
X13120910Y-9296890D01*
X13140162Y-9313333D01*
X13161750Y-9326562D01*
X13162207Y-9326751D01*
X13162207Y-9326751D01*
X13184670Y-9336055D01*
X13185141Y-9336251D01*
X13191940Y-9337883D01*
X13209278Y-9342045D01*
X13209279Y-9342046D01*
X13209760Y-9342161D01*
X13219742Y-9342947D01*
X13228434Y-9343631D01*
X13228435Y-9343631D01*
X13228680Y-9343650D01*
X13241320Y-9343650D01*
X13241565Y-9343631D01*
X13241565Y-9343631D01*
X13250258Y-9342947D01*
X13260240Y-9342161D01*
X13260721Y-9342046D01*
X13260722Y-9342045D01*
X13278060Y-9337883D01*
X13284859Y-9336251D01*
X13285330Y-9336055D01*
X13307793Y-9326751D01*
X13307793Y-9326751D01*
X13308250Y-9326562D01*
X13329838Y-9313333D01*
X13349090Y-9296890D01*
X13365533Y-9277638D01*
X13378762Y-9256050D01*
X13381444Y-9249574D01*
X13388261Y-9233116D01*
X13388261Y-9233116D01*
X13388450Y-9232659D01*
X13394361Y-9208040D01*
X13396347Y-9182800D01*
X13394361Y-9157560D01*
X13393861Y-9155475D01*
X13389056Y-9135464D01*
X13388450Y-9132941D01*
X13385472Y-9125751D01*
X13378951Y-9110007D01*
X13378951Y-9110007D01*
X13378762Y-9109550D01*
X13365533Y-9087962D01*
X13349090Y-9068710D01*
X13329838Y-9052267D01*
X13308250Y-9039038D01*
X13307793Y-9038849D01*
X13307793Y-9038849D01*
X13285316Y-9029539D01*
X13285316Y-9029539D01*
X13284859Y-9029350D01*
X13270694Y-9025949D01*
X13260722Y-9023555D01*
X13260721Y-9023555D01*
X13260240Y-9023439D01*
X13250258Y-9022654D01*
X13241565Y-9021969D01*
X13241565Y-9021969D01*
X13241320Y-9021950D01*
X13228680Y-9021950D01*
X13228435Y-9021969D01*
X13228434Y-9021969D01*
X13219742Y-9022654D01*
X13209760Y-9023439D01*
X13209279Y-9023555D01*
X13209278Y-9023555D01*
X13199305Y-9025949D01*
X13185141Y-9029350D01*
X13184684Y-9029539D01*
X13184684Y-9029539D01*
X13162207Y-9038849D01*
X13162207Y-9038849D01*
X13161750Y-9039038D01*
X13140162Y-9052267D01*
X13120910Y-9068710D01*
X13104467Y-9087962D01*
X13091238Y-9109550D01*
X13091049Y-9110007D01*
X13091049Y-9110007D01*
X13084528Y-9125751D01*
X13081549Y-9132941D01*
X13080944Y-9135464D01*
X13076139Y-9155475D01*
X13075639Y-9157560D01*
X13073653Y-9182800D01*
X12730771Y-9182800D01*
X12730345Y-9177616D01*
X12724903Y-9155950D01*
X12715995Y-9135464D01*
X12709131Y-9124854D01*
X12704142Y-9117142D01*
X12704142Y-9117141D01*
X12703861Y-9116708D01*
X12688827Y-9100185D01*
X12688422Y-9099865D01*
X12688421Y-9099865D01*
X12671701Y-9086660D01*
X12671701Y-9086660D01*
X12671296Y-9086340D01*
X12667165Y-9084060D01*
X12662168Y-9079016D01*
X12660691Y-9072072D01*
X12663203Y-9065432D01*
X12665938Y-9062771D01*
X12670320Y-9059645D01*
X12683846Y-9049997D01*
X12699670Y-9034229D01*
X12705619Y-9025949D01*
X12712403Y-9016508D01*
X12712705Y-9016088D01*
X12714792Y-9011866D01*
X12722374Y-8996525D01*
X12722374Y-8996525D01*
X12722603Y-8996061D01*
X12729097Y-8974687D01*
X12732013Y-8952539D01*
X12732176Y-8945880D01*
X12730345Y-8923616D01*
X12724903Y-8901950D01*
X12715995Y-8881464D01*
X12703861Y-8862708D01*
X12688827Y-8846185D01*
X12688422Y-8845865D01*
X12688421Y-8845865D01*
X12671701Y-8832660D01*
X12671701Y-8832660D01*
X12671296Y-8832340D01*
X12667165Y-8830060D01*
X12662168Y-8825016D01*
X12660691Y-8818072D01*
X12663203Y-8811432D01*
X12665938Y-8808771D01*
X12670320Y-8805645D01*
X12683846Y-8795997D01*
X12699670Y-8780229D01*
X12705619Y-8771949D01*
X12712403Y-8762508D01*
X12712705Y-8762088D01*
X12714792Y-8757866D01*
X12722374Y-8742525D01*
X12722374Y-8742525D01*
X12722603Y-8742061D01*
X12729097Y-8720687D01*
X12732013Y-8698539D01*
X12732147Y-8693047D01*
X12732167Y-8692217D01*
X12732167Y-8692216D01*
X12732176Y-8691880D01*
X12730345Y-8669616D01*
X12724903Y-8647950D01*
X12715995Y-8627464D01*
X12712051Y-8621366D01*
X12704142Y-8609142D01*
X12704142Y-8609141D01*
X12703861Y-8608708D01*
X12688827Y-8592185D01*
X12688422Y-8591865D01*
X12688421Y-8591865D01*
X12671701Y-8578660D01*
X12671701Y-8578660D01*
X12671296Y-8578340D01*
X12667165Y-8576060D01*
X12662168Y-8571016D01*
X12660691Y-8564072D01*
X12663203Y-8557432D01*
X12665938Y-8554771D01*
X12670320Y-8551645D01*
X12683846Y-8541997D01*
X12686095Y-8539756D01*
X12694418Y-8531463D01*
X12699670Y-8526229D01*
X12699981Y-8525795D01*
X12712403Y-8508508D01*
X12712705Y-8508088D01*
X12714792Y-8503866D01*
X12722374Y-8488525D01*
X12722374Y-8488525D01*
X12722603Y-8488061D01*
X12729097Y-8466687D01*
X12732013Y-8444539D01*
X12732176Y-8437880D01*
X12730345Y-8415616D01*
X12724903Y-8393950D01*
X12715995Y-8373464D01*
X12703861Y-8354708D01*
X12688827Y-8338185D01*
X12688422Y-8337865D01*
X12688421Y-8337865D01*
X12671701Y-8324660D01*
X12671701Y-8324660D01*
X12671296Y-8324340D01*
X12667165Y-8322060D01*
X12662168Y-8317016D01*
X12660691Y-8310072D01*
X12663203Y-8303432D01*
X12665938Y-8300771D01*
X12670320Y-8297645D01*
X12683846Y-8287997D01*
X12699670Y-8272229D01*
X12705619Y-8263949D01*
X12712403Y-8254508D01*
X12712705Y-8254088D01*
X12714792Y-8249866D01*
X12722374Y-8234525D01*
X12722374Y-8234525D01*
X12722603Y-8234061D01*
X12729097Y-8212687D01*
X12732013Y-8190539D01*
X12732176Y-8183880D01*
X12730345Y-8161616D01*
X12724903Y-8139950D01*
X12715995Y-8119464D01*
X12712051Y-8113366D01*
X12704142Y-8101142D01*
X12704142Y-8101141D01*
X12703861Y-8100708D01*
X12688827Y-8084185D01*
X12688422Y-8083865D01*
X12688421Y-8083865D01*
X12671701Y-8070660D01*
X12671701Y-8070660D01*
X12671296Y-8070340D01*
X12667165Y-8068060D01*
X12662168Y-8063016D01*
X12660691Y-8056072D01*
X12663203Y-8049432D01*
X12665938Y-8046771D01*
X12670320Y-8043645D01*
X12683846Y-8033997D01*
X12699670Y-8018229D01*
X12705619Y-8009949D01*
X12712403Y-8000508D01*
X12712705Y-8000088D01*
X12714792Y-7995866D01*
X12722374Y-7980525D01*
X12722374Y-7980525D01*
X12722603Y-7980061D01*
X12729097Y-7958687D01*
X12732013Y-7936539D01*
X12732176Y-7929880D01*
X12730345Y-7907616D01*
X12724903Y-7885950D01*
X12715995Y-7865464D01*
X12703861Y-7846708D01*
X12688827Y-7830185D01*
X12688422Y-7829865D01*
X12688421Y-7829865D01*
X12671701Y-7816660D01*
X12671701Y-7816660D01*
X12671296Y-7816340D01*
X12667165Y-7814060D01*
X12662168Y-7809016D01*
X12660691Y-7802072D01*
X12663203Y-7795432D01*
X12665938Y-7792771D01*
X12670320Y-7789645D01*
X12683846Y-7779997D01*
X12699670Y-7764229D01*
X12705619Y-7755949D01*
X12712403Y-7746508D01*
X12712705Y-7746088D01*
X12714792Y-7741866D01*
X12722374Y-7726525D01*
X12722374Y-7726525D01*
X12722603Y-7726061D01*
X12729097Y-7704687D01*
X12732013Y-7682539D01*
X12732176Y-7675880D01*
X12730345Y-7653616D01*
X12724903Y-7631950D01*
X12715995Y-7611464D01*
X12709231Y-7601007D01*
X12704142Y-7593142D01*
X12704142Y-7593141D01*
X12703861Y-7592708D01*
X12688827Y-7576185D01*
X12688422Y-7575865D01*
X12688421Y-7575865D01*
X12671701Y-7562660D01*
X12671701Y-7562660D01*
X12671296Y-7562340D01*
X12667165Y-7560060D01*
X12662168Y-7555016D01*
X12660691Y-7548072D01*
X12663203Y-7541432D01*
X12665938Y-7538771D01*
X12672227Y-7534285D01*
X12683846Y-7525997D01*
X12684547Y-7525298D01*
X12694650Y-7515231D01*
X12699670Y-7510229D01*
X12705619Y-7501949D01*
X12712403Y-7492508D01*
X12712705Y-7492088D01*
X12713169Y-7491150D01*
X12722374Y-7472525D01*
X12722374Y-7472525D01*
X12722603Y-7472061D01*
X12729097Y-7450687D01*
X12732013Y-7428539D01*
X12732176Y-7421880D01*
X12730345Y-7399616D01*
X12724903Y-7377950D01*
X12715995Y-7357464D01*
X12703861Y-7338708D01*
X12703513Y-7338325D01*
X12689140Y-7322529D01*
X12686035Y-7316144D01*
X12686874Y-7309094D01*
X12691392Y-7303617D01*
X12694036Y-7302251D01*
X12704690Y-7298257D01*
X12705530Y-7297941D01*
X12717186Y-7289206D01*
X12725921Y-7277550D01*
X12731034Y-7263912D01*
X12731710Y-7257693D01*
X12731710Y-7078067D01*
X12731034Y-7071848D01*
X12725921Y-7058209D01*
X12717186Y-7046554D01*
X12717189Y-7046551D01*
X12714010Y-7040729D01*
X12714516Y-7033647D01*
X12718771Y-7027964D01*
X12725423Y-7025483D01*
X12726322Y-7025451D01*
X13634238Y-7025451D01*
X13636140Y-7025595D01*
G37*
%TD.AperFunction*%
%TD*%
M02*
