%TF.GenerationSoftware,KiCad,Pcbnew,(6.0.5)*%
%TF.CreationDate,2022-12-09T20:35:02-05:00*%
%TF.ProjectId,Dev_Board_Adapter,4465765f-426f-4617-9264-5f4164617074,rev?*%
%TF.SameCoordinates,Original*%
%TF.FileFunction,Legend,Bot*%
%TF.FilePolarity,Positive*%
%FSLAX46Y46*%
G04 Gerber Fmt 4.6, Leading zero omitted, Abs format (unit mm)*
G04 Created by KiCad (PCBNEW (6.0.5)) date 2022-12-09 20:35:02*
%MOMM*%
%LPD*%
G01*
G04 APERTURE LIST*
%ADD10C,0.150000*%
%ADD11C,0.120000*%
G04 APERTURE END LIST*
D10*
%TO.C,J2*%
X125021933Y-96277180D02*
X125021933Y-96991466D01*
X125069552Y-97134323D01*
X125164790Y-97229561D01*
X125307647Y-97277180D01*
X125402885Y-97277180D01*
X124593361Y-96372419D02*
X124545742Y-96324800D01*
X124450504Y-96277180D01*
X124212409Y-96277180D01*
X124117171Y-96324800D01*
X124069552Y-96372419D01*
X124021933Y-96467657D01*
X124021933Y-96562895D01*
X124069552Y-96705752D01*
X124640980Y-97277180D01*
X124021933Y-97277180D01*
%TO.C,J4*%
X117401933Y-96321180D02*
X117401933Y-97035466D01*
X117449552Y-97178323D01*
X117544790Y-97273561D01*
X117687647Y-97321180D01*
X117782885Y-97321180D01*
X116497171Y-96654514D02*
X116497171Y-97321180D01*
X116735266Y-96273561D02*
X116973361Y-96987847D01*
X116354314Y-96987847D01*
D11*
%TO.C,J2*%
X127288600Y-70348800D02*
X125958600Y-70348800D01*
X127288600Y-71678800D02*
X127288600Y-70348800D01*
X124688600Y-70348800D02*
X122088600Y-70348800D01*
X127288600Y-95868800D02*
X122088600Y-95868800D01*
X127288600Y-72948800D02*
X124688600Y-72948800D01*
X122088600Y-70348800D02*
X122088600Y-95868800D01*
X124688600Y-72948800D02*
X124688600Y-70348800D01*
X127288600Y-72948800D02*
X127288600Y-95868800D01*
%TO.C,J4*%
X115738600Y-75428800D02*
X118398600Y-75428800D01*
X115738600Y-94538800D02*
X115738600Y-95868800D01*
X115738600Y-95868800D02*
X117068600Y-95868800D01*
X115738600Y-93268800D02*
X115738600Y-75428800D01*
X118398600Y-93268800D02*
X118398600Y-75428800D01*
X115738600Y-93268800D02*
X118398600Y-93268800D01*
%TD*%
M02*
