M48
; DRILL file {KiCad (6.0.5)} date Fri Dec 16 06:33:17 2022
; FORMAT={-:-/ absolute / inch / decimal}
; #@! TF.CreationDate,2022-12-16T06:33:17-05:00
; #@! TF.GenerationSoftware,Kicad,Pcbnew,(6.0.5)
; #@! TF.FileFunction,Plated,1,2,PTH
FMAT,2
INCH
; #@! TA.AperFunction,Plated,PTH,ViaDrill
T1C0.0157
; #@! TA.AperFunction,Plated,PTH,ComponentDrill
T2C0.0268
; #@! TA.AperFunction,Plated,PTH,ComponentDrill
T3C0.0394
%
G90
G05
T1
X5.11Y-3.0
T2
X5.1713Y-3.32
X5.1713Y-3.3987
X5.1713Y-3.4775
X5.25Y-3.32
X5.25Y-3.3987
X5.25Y-3.4775
T3
X4.609Y-3.022
X4.609Y-3.122
X4.609Y-3.222
X4.609Y-3.322
X4.609Y-3.422
X4.609Y-3.522
X4.609Y-3.622
X4.609Y-3.722
X4.859Y-2.822
X4.859Y-2.922
X4.859Y-3.022
X4.859Y-3.122
X4.859Y-3.222
X4.859Y-3.322
X4.859Y-3.422
X4.859Y-3.522
X4.859Y-3.622
X4.859Y-3.722
X4.959Y-2.822
X4.959Y-2.922
X4.959Y-3.022
X4.959Y-3.122
X4.959Y-3.222
X4.959Y-3.322
X4.959Y-3.422
X4.959Y-3.522
X4.959Y-3.622
X4.959Y-3.722
X5.1Y-2.89
X5.2Y-2.89
X5.3Y-2.89
T0
M30
